<svg height="100" overflow="visible" viewBox="0 0 280 100" width="280" xmlns="http://www.w3.org/2000/svg"><g><defs><path id="path-17464296482841099" d="M0 10.000000000000002 C0 4.477152502000001 4.477152502000001 0 10.000000000000002 0 C10.000000000000002 0 270 0 270 0 C275.522847498 0 280 4.477152502000001 280 10.000000000000002 C280 10.000000000000002 280 90 280 90 C280 95.522847498 275.522847498 100 270 100 C270 100 10.000000000000002 100 10.000000000000002 100 C4.477152502000001 100 0 95.522847498 0 90 C0 90 0 10.000000000000002 0 10.000000000000002 Z" vector-effect="non-scaling-stroke"/></defs> <path style="stroke: rgb(140, 140, 140); stroke-width: 0; stroke-linecap: butt; stroke-linejoin: miter; fill: rgb(247, 247, 247);" d="M0 10.000000000000002 C0 4.477152502000001 4.477152502000001 0 10.000000000000002 0 C10.000000000000002 0 270 0 270 0 C275.522847498 0 280 4.477152502000001 280 10.000000000000002 C280 10.000000000000002 280 90 280 90 C280 95.522847498 275.522847498 100 270 100 C270 100 10.000000000000002 100 10.000000000000002 100 C4.477152502000001 100 0 95.522847498 0 90 C0 90 0 10.000000000000002 0 10.000000000000002 Z" vector-effect="non-scaling-stroke"/></g><g><defs><path id="path-1746429648229941" d="M21.24999963773079 53.55182376309111 C21.343499636136805 53.483929216323325 21.30099963686134 53.38208739617164 21.31799963657153 53.29721921271191 C21.428499634687725 52.73708920187768 21.64949963092013 52.23636691946526 21.972499625413636 51.76959191043674 C26.62199954614913 45.090465872155804 31.27149946688463 38.419826652220834 35.92099938762013 31.7407006139399 C36.96649936979648 30.238533766702638 38.01199935197284 28.727880101119403 39.06599933400429 27.225713253882137 C40.49399930965979 25.18039003250259 43.51999925807266 25.18039003250259 44.94799923372817 27.225713253882137 C50.549499138234005 35.27121704586476 56.15099904273984 43.32520765619336 61.76099894710077 51.37071144817599 C62.18599893985538 51.98176236908606 62.593998932899815 52.59281328999613 62.695998931160915 53.34814012278775 C62.984998926234056 55.520765619356894 61.412498953041975 57.26056338028141 59.46599898622584 57.37089201877906 C58.12299900912125 57.44727338389282 57.051999027379615 56.92109064644247 56.27849904056622 55.80931744311997 C52.19849911012191 49.953412784398445 48.11849917967759 44.09750812567692 44.04699924908838 38.24160346695538 C43.82599925285598 37.92759118815438 43.570999257203205 37.63903936439129 43.27349926227498 37.40140845070403 C42.39799927720047 36.7139761646802 41.50549929241578 36.73943661971812 40.65549930690655 37.45232936077988 C40.22199931429684 37.817262549656725 39.9329993192237 38.28403755868524 39.61849932458529 38.73383893102183 C35.648999392257174 44.42849404116987 31.687999459784155 50.12314915131791 27.718499527456043 55.817804261465945 C26.86849954194681 57.039906103286086 25.423499566581118 57.60852293246629 24.020999590490884 57.294510653665284 C22.592999614835374 56.972011556518304 21.58149963207939 55.87721198988775 21.309499636716435 54.35807150595854 C21.30099963686134 54.30715059588271 21.326499636426618 54.23076923076895 21.249999637730788 54.205308775731034 C21.249999637730788 54.205308775731034 21.249999637730788 53.543336944745114 21.249999637730788 53.543336944745114 C21.249999637730788 53.543336944745114 21.24999963773079 53.55182376309111 21.24999963773079 53.55182376309111 Z" vector-effect="non-scaling-stroke"/></defs> <path style="stroke-width: 0; stroke-linecap: butt; stroke-linejoin: miter; fill: rgb(254, 44, 139);" d="M55.000001704796546 61.61773203322514 C55.09350170320255 61.54983748645736 55.05100170392706 61.447995666305815 55.068001703637265 61.36312748284604 C55.178501701753476 60.80299747201184 55.39950169798584 60.30227518959941 55.7225016924794 59.83550018057076 C60.37200161321488 53.156374142289906 65.02150153395041 46.48573492235482 69.6710014546859 39.80660888407397 C70.71650143686225 38.30444203683669 71.7620014190386 36.79378837125341 72.81600140107003 35.291621524016136 C74.24400137672558 33.24629830263666 77.27000132513842 33.24629830263666 78.69800130079386 35.291621524016136 C84.29950120529975 43.33712531599872 89.90100110980552 51.39111592632753 95.51100101416648 59.43661971831011 C95.93600100692106 60.04767063922009 96.3440009999656 60.65872156013029 96.44600099822662 61.41404839292181 C96.73500099329976 63.58667388949107 95.1625010201077 65.32647165041544 93.21600105329162 65.43680028891322 C91.87300107618694 65.513181654027 90.80200109444536 64.98699891657657 90.028501107632 63.87522571325394 C85.94850117718761 58.01932105453261 81.86850124674334 52.163416395811055 77.79700131615414 46.3075117370895 C77.57600131992172 45.9934994582884 77.32100132426899 45.7049476345253 77.02350132934066 45.4673167208382 C76.14800134426616 44.77988443481422 75.25550135948151 44.80534488985222 74.40550137397224 45.51823763091397 C73.97200138136259 45.88317081979085 73.68300138628945 46.34994582881927 73.36850139165108 46.799747201155924 C69.3990014593229 52.49440231130393 65.43800152684992 58.189057421451935 61.4685015945218 63.88371253159994 C60.618501609012526 65.10581437342012 59.17350163364688 65.67443120260032 57.77100165755661 65.36041892379944 C56.343001681901114 65.03791982665234 55.33150169914512 63.943120260021715 55.05950170378219 62.423979776092665 C55.05100170392706 62.37305886601666 55.07650170349234 62.296677500903115 55.000001704796546 62.271217045865114 C55.000001704796546 62.271217045865114 55.000001704796546 61.60924521487914 55.000001704796546 61.60924521487914 C55.000001704796546 61.60924521487914 55.000001704796546 61.61773203322514 55.000001704796546 61.61773203322514 Z" vector-effect="non-scaling-stroke"/></g><g><defs><path id="path-1746429648229939" d="M27.24345,16.22361c-0.102,0 -0.204,0 -0.306,0c-6.8765,0 -13.753,0 -20.6295,0c-0.204,0 -0.2805,0.09901 -0.2295,0.29704c0.748,2.78368 3.0175,5.28729 6.5025,5.72012c1.683,0.20368 3.3235,0.10184 4.879,-0.62802c1.224,-0.56862 2.142,-1.48519 2.822,-2.63091c0.0935,-0.16125 0.187,-0.22066 0.374,-0.21217c1.921,0 3.842,0 5.763,0c0.1445,0 0.238,-0.01697 0.1615,0.1952c-0.952,2.62243 -2.5245,4.77808 -4.811,6.40755c-1.445,1.02691 -3.06,1.62947 -4.7855,1.93499c-2.125,0.37342 -4.267,0.40737 -6.3835,-0.05941c-4.7855,-1.05237 -8.0495,-3.91242 -9.7835,-8.47833c-0.714,-1.88407 -0.8925,-3.86999 -0.7905,-5.88137c0.0935,-1.89256 0.4675,-3.71723 1.292,-5.42308c1.8275,-3.77663 4.8025,-6.16992 8.908,-7.06952c2.941,-0.645 5.8905,-0.53467 8.7125,0.5771c4.0545,1.58704 6.6045,4.55742 7.7775,8.72445c0.2635,0.92506 0.3995,1.8671 0.4675,2.82611c0,0.04243 -0.017,0.10184 0.051,0.1273v3.56446zM13.61795,10.8854c2.431,0 4.862,0 7.293,0c0.1105,0 0.272,0.05941 0.1955,-0.17822c-0.4335,-1.40881 -1.1645,-2.63091 -2.278,-3.59841c-1.6575,-1.44276 -3.621,-1.91802 -5.7715,-1.79921c-3.4255,0.18671 -5.9075,2.25749 -6.868,5.28729c-0.06233,0.19803 0.0085,0.29704 0.2125,0.29704c2.4055,0 4.811,0 7.2165,0z" vector-effect="non-scaling-stroke"/></defs><path style="stroke-width: 0; stroke-linecap: butt; stroke-linejoin: miter; fill: rgb(0, 0, 0);" d="M27.24345,16.22361c-0.102,0 -0.204,0 -0.306,0c-6.8765,0 -13.753,0 -20.6295,0c-0.204,0 -0.2805,0.09901 -0.2295,0.29704c0.748,2.78368 3.0175,5.28729 6.5025,5.72012c1.683,0.20368 3.3235,0.10184 4.879,-0.62802c1.224,-0.56862 2.142,-1.48519 2.822,-2.63091c0.0935,-0.16125 0.187,-0.22066 0.374,-0.21217c1.921,0 3.842,0 5.763,0c0.1445,0 0.238,-0.01697 0.1615,0.1952c-0.952,2.62243 -2.5245,4.77808 -4.811,6.40755c-1.445,1.02691 -3.06,1.62947 -4.7855,1.93499c-2.125,0.37342 -4.267,0.40737 -6.3835,-0.05941c-4.7855,-1.05237 -8.0495,-3.91242 -9.7835,-8.47833c-0.714,-1.88407 -0.8925,-3.86999 -0.7905,-5.88137c0.0935,-1.89256 0.4675,-3.71723 1.292,-5.42308c1.8275,-3.77663 4.8025,-6.16992 8.908,-7.06952c2.941,-0.645 5.8905,-0.53467 8.7125,0.5771c4.0545,1.58704 6.6045,4.55742 7.7775,8.72445c0.2635,0.92506 0.3995,1.8671 0.4675,2.82611c0,0.04243 -0.017,0.10184 0.051,0.1273v3.56446zM13.61795,10.8854c2.431,0 4.862,0 7.293,0c0.1105,0 0.272,0.05941 0.1955,-0.17822c-0.4335,-1.40881 -1.1645,-2.63091 -2.278,-3.59841c-1.6575,-1.44276 -3.621,-1.91802 -5.7715,-1.79921c-3.4255,0.18671 -5.9075,2.25749 -6.868,5.28729c-0.06233,0.19803 0.0085,0.29704 0.2125,0.29704c2.4055,0 4.811,0 7.2165,0z" transform="translate(197.75655306739554, 37.86631528729026) rotate(0)" vector-effect="non-scaling-stroke"/></g><g><defs><path id="path-1746429648228937" d="M131.36749776045096 18.934091729866566 C131.45249775900186 19.044420368364218 131.57999775682825 19.001986276634348 131.68199775508936 19.02744673167227 C133.6029977223402 19.417840375587048 134.91199770002444 21.106717226435745 134.8439977011837 23.126579992777405 C134.78449770219805 24.98519321054557 133.28849772770178 26.59768869628051 131.40149775987132 26.835319609967765 C129.26799779624315 27.09841097869294 127.27899783015157 25.647165041531498 126.97299783536823 23.584868183459964 C126.64149784101964 21.344348140122996 128.03549781725476 19.392379920549125 130.25399777943386 18.99349945828838 C130.29649777870932 18.99349945828838 130.38149777726025 19.035933550018246 130.38999777711533 18.934091729866566 C130.38999777711533 18.934091729866566 131.35899776059583 18.934091729866566 131.35899776059583 18.934091729866566 C131.35899776059583 18.934091729866566 131.36749776045096 18.934091729866566 131.36749776045096 18.934091729866566 Z" vector-effect="non-scaling-stroke"/></defs> <path style="stroke-width: 0; stroke-linecap: butt; stroke-linejoin: miter; fill: rgb(0, 0, 0);" d="M165.11749982751746 27.000000000000227 C165.20249982606833 27.110328638497776 165.3299998238947 27.067894546768002 165.43199982215583 27.093355001805776 C167.35299978940668 27.483748645720652 168.66199976709095 29.172625496569253 168.59399976825011 31.192488262910956 C168.53449976926458 33.05110148067911 167.0384997947683 34.66359696641416 165.15149982693777 34.90122788010126 C163.01799986330957 35.16431924882659 161.028999897218 33.713073311665084 160.7229999024347 31.650776453593608 C160.39149990808608 29.41025641025658 161.7854998843212 27.45828819068265 164.0039998465004 27.059407728422002 C164.04649984577577 27.059407728422002 164.13149984432675 27.101841820151776 164.13999984418183 27.000000000000227 C164.13999984418183 27.000000000000227 165.10899982766227 27.000000000000227 165.10899982766227 27.000000000000227 C165.10899982766227 27.000000000000227 165.11749982751746 27.000000000000227 165.11749982751746 27.000000000000227 Z" vector-effect="non-scaling-stroke"/></g><g><defs><path id="path-1746429648228935" d="M21.51285,2.84941c0,-0.76381 0,-1.50217 0,-2.24052c0,-0.16974 0.051,-0.20368 0.2125,-0.20368c1.768,0 3.536,0 5.304,0c0.17,0 0.204,0.05092 0.204,0.21217c0,8.77537 0,17.55074 0,26.32611c0,0.16974 -0.051,0.20368 -0.2125,0.20368c-1.768,0 -3.536,0 -5.304,0c-0.17,0 -0.2125,-0.05092 -0.204,-0.21217c0.0085,-0.72138 0,-1.44276 0,-2.15565c-0.0425,-0.03395 -0.068,0 -0.0935,0.01697c-1.564,1.35789 -3.383,2.17263 -5.4145,2.52059c-2.3715,0.40737 -4.726,0.3225 -7.021,-0.39888c-3.0515,-0.95901 -5.3465,-2.87703 -6.9955,-5.58433c-1.2155,-2.00289 -1.819,-4.19249 -1.955,-6.52636c-0.1275,-2.24052 0.0935,-4.44709 0.9605,-6.53485c1.819,-4.42163 5.032,-7.17985 9.8005,-8.02004c2.4565,-0.43283 4.8875,-0.33947 7.2505,0.5177c1.1645,0.42434 2.2185,1.04388 3.1705,1.85013c0.0765,0.06789 0.153,0.1273 0.2295,0.1952c0.0085,0.00849 0.0255,0.01697 0.068,0.04243zM5.71135,13.8653c0.017,0.75533 0.085,1.59552 0.2975,2.41874c0.6375,2.41874 2.023,4.2519 4.3095,5.32124c1.4025,0.65349 2.8985,0.78079 4.4285,0.65349c2.5245,-0.21217 4.471,-1.40033 5.7205,-3.58992c1.5385,-2.69881 1.632,-5.57584 0.6205,-8.46136c-0.7055,-2.01986 -2.0485,-3.539 -4.063,-4.37071c-1.292,-0.53467 -2.6605,-0.645 -4.046,-0.54316c-2.278,0.17822 -4.1225,1.14572 -5.525,2.94493c-1.2665,1.62947 -1.734,3.51354 -1.751,5.63525z" vector-effect="non-scaling-stroke"/></defs><path style="stroke-width: 0; stroke-linecap: butt; stroke-linejoin: miter; fill: rgb(0, 0, 0);" d="M21.51285,2.84941c0,-0.76381 0,-1.50217 0,-2.24052c0,-0.16974 0.051,-0.20368 0.2125,-0.20368c1.768,0 3.536,0 5.304,0c0.17,0 0.204,0.05092 0.204,0.21217c0,8.77537 0,17.55074 0,26.32611c0,0.16974 -0.051,0.20368 -0.2125,0.20368c-1.768,0 -3.536,0 -5.304,0c-0.17,0 -0.2125,-0.05092 -0.204,-0.21217c0.0085,-0.72138 0,-1.44276 0,-2.15565c-0.0425,-0.03395 -0.068,0 -0.0935,0.01697c-1.564,1.35789 -3.383,2.17263 -5.4145,2.52059c-2.3715,0.40737 -4.726,0.3225 -7.021,-0.39888c-3.0515,-0.95901 -5.3465,-2.87703 -6.9955,-5.58433c-1.2155,-2.00289 -1.819,-4.19249 -1.955,-6.52636c-0.1275,-2.24052 0.0935,-4.44709 0.9605,-6.53485c1.819,-4.42163 5.032,-7.17985 9.8005,-8.02004c2.4565,-0.43283 4.8875,-0.33947 7.2505,0.5177c1.1645,0.42434 2.2185,1.04388 3.1705,1.85013c0.0765,0.06789 0.153,0.1273 0.2295,0.1952c0.0085,0.00849 0.0255,0.01697 0.068,0.04243zM5.71135,13.8653c0.017,0.75533 0.085,1.59552 0.2975,2.41874c0.6375,2.41874 2.023,4.2519 4.3095,5.32124c1.4025,0.65349 2.8985,0.78079 4.4285,0.65349c2.5245,-0.21217 4.471,-1.40033 5.7205,-3.58992c1.5385,-2.69881 1.632,-5.57584 0.6205,-8.46136c-0.7055,-2.01986 -2.0485,-3.539 -4.063,-4.37071c-1.292,-0.53467 -2.6605,-0.645 -4.046,-0.54316c-2.278,0.17822 -4.1225,1.14572 -5.525,2.94493c-1.2665,1.62947 -1.734,3.51354 -1.751,5.63525z" transform="translate(108.15964879482476, 37.89074428506342) rotate(0)" vector-effect="non-scaling-stroke"/></g><g><defs><path id="path-1746429648228933" d="M146.55699750150117 51.62531599855565 C146.55699750150117 51.62531599855565 146.87999749599467 51.62531599855565 146.87999749599467 51.62531599855565 C151.41899741861394 51.62531599855565 155.95799734123324 51.62531599855565 160.49699726385253 51.62531599855565 C160.74349725965018 51.62531599855565 160.80299725863586 51.68472372697747 160.80299725863586 51.930841459010686 C160.79449725878078 53.53485012639965 160.79449725878078 55.13885879378861 160.80299725863586 56.74286746117756 C160.80299725863586 56.93806428313495 160.7519972595053 56.980498374864816 160.56499726269328 56.980498374864816 C153.3824973851403 56.980498374864816 146.1999975075873 56.980498374864816 139.01749763003434 56.980498374864816 C138.83899763307738 56.980498374864816 138.77099763423666 56.95503791982689 138.77099763423666 56.75135427952354 C138.77949763409174 55.29162152401613 138.77099763423666 53.83188876850872 138.77099763423666 52.37215601300131 C138.77099763423666 52.227880101119766 138.82199763336723 52.11755146262211 138.9154976317732 52.015709642470426 C143.53949755294343 46.592632719393485 148.16349747411363 41.16955579631654 152.78749739528382 35.74647887323959 C152.8384973944144 35.68707114481778 152.88099739368985 35.63615023474193 152.95749739238565 35.54279523293623 C152.82999739455926 35.54279523293623 152.73649739615325 35.54279523293623 152.65149739760233 35.54279523293623 C148.18899747367888 35.54279523293623 143.72649754975544 35.54279523293623 139.263997625832 35.54279523293623 C139.03449762974446 35.54279523293623 138.97499763075885 35.49187432286039 138.97499763075885 35.254243409173135 C138.98349763061393 33.667208378476126 138.97499763075885 32.08017334777911 138.97499763075885 30.49313831708211 C138.97499763075885 30.31491513181667 138.99199763046903 30.230046948356936 139.21299762670142 30.230046948356936 C146.32749750541367 30.230046948356936 153.44199738412593 30.230046948356936 160.55649726283815 30.230046948356936 C160.74349725965018 30.230046948356936 160.79449725878075 30.263994221740827 160.79449725878075 30.45919104369822 C160.78599725892565 31.8934633441677 160.79449725878075 33.327735644637194 160.79449725878075 34.76200794510668 C160.79449725878075 34.9147706753342 160.74349725965018 35.03358613217783 160.64999726124418 35.14391477067549 C155.98349734079852 40.59245214879036 151.31699742035286 46.04947634525119 146.6504974999072 51.50650054171203 C146.633497500197 51.53196099674995 146.6079975006317 51.55742145178787 146.55699750150117 51.62531599855565 Z" vector-effect="non-scaling-stroke"/></defs> <path style="stroke-width: 0; stroke-linecap: butt; stroke-linejoin: miter; fill: rgb(0, 0, 0);" d="M180.3069995685671 59.691224268688984 C180.3069995685671 59.691224268688984 180.62999956306055 59.691224268688984 180.62999956306055 59.691224268688984 C185.16899948567982 59.691224268688984 189.7079994082992 59.691224268688984 194.24699933091847 59.691224268688984 C194.49349932671612 59.691224268688984 194.55299932570176 59.75063199711076 194.55299932570176 59.996749729144085 C194.5444993258467 61.60075839653291 194.5444993258467 63.20476706392196 194.55299932570176 64.80877573131102 C194.55299932570176 65.00397255326834 194.5019993265712 65.04640664499811 194.3149993297592 65.04640664499811 C187.13249945220628 65.04640664499811 179.94999957465325 65.04640664499811 172.76749969710022 65.04640664499811 C172.5889997001433 65.04640664499811 172.52099970130257 65.02094618996034 172.52099970130257 64.81726254965702 C172.52949970115765 63.357529794149514 172.52099970130257 61.89779703864201 172.52099970130257 60.438064283134736 C172.52099970130257 60.293788371253186 172.57199970043314 60.18345973275541 172.66549969883908 60.08161791260386 C177.28949962000934 54.658540989526955 181.9134995411796 49.23546406644982 186.53749946234973 43.812387143372916 C186.5884994614803 43.75297941495114 186.6309994607558 43.70205850487537 186.70749945945158 43.60870350306959 C186.57999946162522 43.60870350306959 186.48649946321916 43.60870350306959 186.40149946466818 43.60870350306959 C181.93899954074482 43.60870350306959 177.47649961682134 43.60870350306959 173.01399969289787 43.60870350306959 C172.78449969681037 43.60870350306959 172.72499969782473 43.55778259299382 172.72499969782473 43.32015167930649 C172.7334996976798 41.73311664860944 172.72499969782473 40.14608161791239 172.72499969782473 38.55904658721556 C172.72499969782473 38.38082340195001 172.741999697535 38.295955218490235 172.9629996937673 38.295955218490235 C180.0774995724796 38.295955218490235 187.1919994511918 38.295955218490235 194.306499329904 38.295955218490235 C194.49349932671612 38.295955218490235 194.5444993258467 38.329902491874236 194.5444993258467 38.52509931383156 C194.5359993259915 39.95937161430106 194.5444993258467 41.393643914770564 194.5444993258467 42.827916215240066 C194.5444993258467 42.980678945467616 194.49349932671612 43.099494402311166 194.39999932831006 43.20982304080894 C189.73349940786443 48.65836041892362 185.0669994874188 54.11538461538453 180.40049956697317 59.572408811845435 C180.3834995672629 59.597869266883436 180.35799956769756 59.62332972192121 180.3069995685671 59.691224268688984 Z" vector-effect="non-scaling-stroke"/></g><g><defs><path id="path-1746429648227931" d="M113.7299980611353 33.57385337667028 C113.99349805664316 33.32773564463705 114.23999805244084 33.081617912603825 114.4864980482385 32.85247381726255 C116.50949801375047 31.00234741784037 118.87249797346614 29.93300830624774 121.64349792622623 29.856626941133975 C122.16199791738688 29.839653304442027 122.6804979085475 29.856626941133975 123.19899789970815 29.831166486096055 C123.36899789680997 29.831166486096055 123.41149789608545 29.882087396171897 123.41149789608545 30.043336944745388 C123.41149789608545 31.76616106897797 123.41149789608545 33.48898519321054 123.41149789608545 35.21180931744311 C123.41149789608545 35.39851932105452 123.3519978970998 35.43246659443841 123.18199789999795 35.43246659443841 C122.38299791361928 35.43246659443841 121.58399792724059 35.407006139400494 120.793497940717 35.51733477789815 C118.82149797433559 35.78891296496929 117.2574980009986 36.74792343806428 116.0249980220102 38.27555074033946 C114.62249804591995 40.01534850126398 113.9084980580922 42.018237630913674 113.77249806041073 44.233297219212695 C113.67049806214962 45.89671361502346 113.73849806099037 47.56013001083422 113.72999806113526 49.215059588299 C113.72149806128017 51.71867100036113 113.72999806113526 54.22228241242323 113.72999806113526 56.725893824485354 C113.72999806113526 56.92109064644274 113.6789980620047 56.97201155651858 113.48349806533759 56.97201155651858 C111.74099809504365 56.97201155651858 109.99849812474973 56.9635247381726 108.2559981544558 56.97201155651858 C108.0519981579336 56.97201155651858 108.00949815865812 56.92109064644274 108.00949815865812 56.71740700613939 C108.00949815865812 47.96749729144094 108.00949815865812 39.22607439508847 108.00949815865812 30.47616468039002 C108.00949815865812 30.28096785843264 108.05199815793358 30.221560130010825 108.2559981544558 30.221560130010825 C110.00699812460482 30.230046948356797 111.75799809475384 30.221560130010825 113.50899806490287 30.221560130010825 C113.68749806185981 30.221560130010825 113.72999806113526 30.26399422174069 113.72999806113526 30.44221740700613 C113.72149806128017 31.435175153485 113.72999806113526 32.42813289996388 113.72999806113526 33.42109064644275 C113.72999806113526 33.472011556518595 113.72999806113526 33.514445648248454 113.72999806113526 33.5653665583243 C113.72999806113526 33.5653665583243 113.7299980611353 33.57385337667028 113.7299980611353 33.57385337667028 Z" vector-effect="non-scaling-stroke"/></defs> <path style="stroke-width: 0; stroke-linecap: butt; stroke-linejoin: miter; fill: rgb(0, 0, 0);" d="M147.48000012820114 41.639761646804345 C147.74350012370905 41.39364391477102 147.9900001195067 41.14752618273792 148.23650011530435 40.918382087396594 C150.25950008081634 39.06825568797444 152.62250004053203 37.998916576381816 155.39349999329204 37.92253521126804 C155.91199998445268 37.90556157457604 156.43049997561332 37.92253521126804 156.94899996677395 37.89707475623004 C157.1189999638758 37.89707475623004 157.1614999631513 37.94799566630604 157.1614999631513 38.109245214879365 C157.1614999631513 39.83206933911197 157.1614999631513 41.55489346334457 157.1614999631513 43.27771758757717 C157.1614999631513 43.464427591188496 157.10199996416566 43.4983748645725 156.9319999670638 43.4983748645725 C156.1329999806851 43.4983748645725 155.3339999943064 43.472914409534496 154.54350000778288 43.58324304803227 C152.57150004140146 43.85482123510337 151.00750006806447 44.81383170819845 149.775000089076 46.3414590104735 C148.3725001129858 48.0812567713981 147.65850012515807 50.084145901047805 147.52250012747663 52.29920548934683 C147.4205001292155 53.96262188515743 147.48850012805622 55.62603828096826 147.48000012820114 57.28096785843309 C147.47150012834607 59.784579270495215 147.48000012820114 62.28819068255734 147.48000012820114 64.79180209461947 C147.48000012820114 64.9869989165768 147.42900012907057 65.03791982665257 147.23350013240338 65.03791982665257 C145.49100016210946 65.03791982665257 143.74850019181554 65.02943300830657 142.00600022152162 65.03791982665257 C141.80200022499946 65.03791982665257 141.75950022572397 64.9869989165768 141.75950022572397 64.78331527627347 C141.75950022572397 56.03340556157491 141.75950022572397 47.29198266522258 141.75950022572397 38.542072950524016 C141.75950022572397 38.34687612856669 141.80200022499946 38.28746840014492 142.00600022152162 38.28746840014492 C143.7570001916706 38.29595521849092 145.50800016181972 38.28746840014492 147.25900013196872 38.28746840014492 C147.43750012892565 38.28746840014492 147.48000012820114 38.32990249187469 147.48000012820114 38.50812567714024 C147.47150012834607 39.50108342361909 147.48000012820114 40.494041170097944 147.48000012820114 41.486998916576795 C147.48000012820114 41.53791982665257 147.48000012820114 41.58035391838257 147.48000012820114 41.631274828458345 C147.48000012820114 41.631274828458345 147.48000012820114 41.639761646804345 147.48000012820114 41.639761646804345 Z" vector-effect="non-scaling-stroke"/></g><g><defs><path id="path-1746429648227929" d="M133.73899772002295 43.596785843264854 C133.73899772002295 47.95901047309513 133.73899772002295 52.32123510292541 133.73899772002295 56.68345973275568 C133.73899772002295 56.912603828096955 133.6879977208924 56.97201155651877 133.4499977249498 56.97201155651877 C131.715997754511 56.9635247381728 129.98199778407212 56.9635247381728 128.2479978136333 56.97201155651877 C128.06099781682127 56.97201155651877 128.0099978176907 56.92957746478891 128.0099978176907 56.734380642831525 C128.0099978176907 47.97598410978707 128.0099978176907 39.21758757674262 128.0099978176907 30.467677862044148 C128.0099978176907 30.28096785843274 128.0524978169662 30.230046948356897 128.2394978137782 30.230046948356897 C129.98199778407215 30.23853376670287 131.72449775436607 30.23853376670287 133.46699772466002 30.230046948356897 C133.6794977210373 30.230046948356897 133.73049772016788 30.28096785843274 133.73049772016788 30.49313831708207 C133.73049772016788 34.863849765258315 133.73049772016788 39.23456121343457 133.73049772016788 43.605272661610826 C133.73049772016788 43.605272661610826 133.73899772002295 43.596785843264854 133.73899772002295 43.596785843264854 Z" vector-effect="non-scaling-stroke"/></defs> <path style="stroke-width: 0; stroke-linecap: butt; stroke-linejoin: miter; fill: rgb(0, 0, 0);" d="M167.48899978708812 51.662694113398175 C167.48899978708812 56.024918743228454 167.48899978708812 60.387143373058734 167.48899978708812 64.74936800288901 C167.48899978708812 64.97851209823034 167.43799978795755 65.03791982665211 167.19999979201498 65.03791982665211 C165.46599982157613 65.02943300830611 163.7319998511373 65.02943300830611 161.99799988069844 65.03791982665211 C161.81099988388644 65.03791982665211 161.75999988475587 64.99548573492234 161.75999988475587 64.80028891296479 C161.75999988475587 56.041892379920455 161.75999988475587 47.283495846875894 161.75999988475587 38.53358613217756 C161.75999988475587 38.34687612856601 161.80249988403136 38.295955218490235 161.98949988084337 38.295955218490235 C163.7319998511373 38.304442036836235 165.4744998214312 38.304442036836235 167.21699979172513 38.295955218490235 C167.42949978810248 38.295955218490235 167.48049978723304 38.34687612856601 167.48049978723304 38.55904658721556 C167.48049978723304 42.929758035391615 167.48049978723304 47.300469483567895 167.48049978723304 51.671180931744175 C167.48049978723304 51.671180931744175 167.48899978708812 51.662694113398175 167.48899978708812 51.662694113398175 Z" vector-effect="non-scaling-stroke"/></g><g><defs><path id="path-1746429648226927" d="M41.98999928415586 65.93409172986625 C39.618499324585116 65.93409172986625 37.714499357044446 64.00758396533033 37.722999356899535 61.631274828457805 C37.722999356899535 59.254965691585305 39.65249932400548 57.37089201877924 42.06649928285169 57.37089201877924 C44.41249924285715 57.37089201877924 46.29949921068764 59.31437342000712 46.29949921068764 61.716143011917545 C46.29949921068764 64.03304442036826 44.352999243871515 65.93409172986625 41.98999928415586 65.93409172986625 Z" vector-effect="non-scaling-stroke"/></defs> <path style="stroke-width: 0; stroke-linecap: butt; stroke-linejoin: miter; fill: rgb(254, 44, 139);" d="M75.74000135122162 74.00000000000023 C73.36850139165085 74.00000000000023 71.46450142411027 72.0734922354643 71.47300142396534 69.69718309859195 C71.47300142396534 67.32087396171937 73.40250139107127 65.43680028891322 75.81650134991753 65.43680028891322 C78.16250130992296 65.43680028891322 80.0495012777534 67.38028169014115 80.0495012777534 69.7820512820515 C80.0495012777534 72.0989526905023 78.10300131093732 74.00000000000023 75.74000135122162 74.00000000000023 Z" vector-effect="non-scaling-stroke"/></g></svg>