<svg height="100" overflow="visible" viewBox="0 0 280.00000000000045 100" width="280.00000000000045" xmlns="http://www.w3.org/2000/svg"><g><defs><path id="path-17464296482831096" d="M0 10.000000000000002 C0 4.477152502000001 4.477152502000001 0 10.000000000000002 0 C10.000000000000002 0 270 0 270 0 C275.522847498 0 280 4.477152502000001 280 10.000000000000002 C280 10.000000000000002 280 90 280 90 C280 95.522847498 275.522847498 100 270 100 C270 100 10.000000000000002 100 10.000000000000002 100 C4.477152502000001 100 0 95.522847498 0 90 C0 90 0 10.000000000000002 0 10.000000000000002 Z" vector-effect="non-scaling-stroke"/></defs> <path style="stroke: rgb(140, 140, 140); stroke-width: 0; stroke-linecap: butt; stroke-linejoin: miter; fill: rgb(247, 247, 247);" d="M0 10.000000000000002 C0 4.477152502000001 4.477152502000001 0 10.000000000000002 0 C10.000000000000002 0 270 0 270 0 C275.522847498 0 280 4.477152502000001 280 10.000000000000002 C280 10.000000000000002 280 90 280 90 C280 95.522847498 275.522847498 100 270 100 C270 100 10.000000000000002 100 10.000000000000002 100 C4.477152502000001 100 0 95.522847498 0 90 C0 90 0 10.000000000000002 0 10.000000000000002 Z" vector-effect="non-scaling-stroke"/></g><g><defs><path id="path-1746429648226925" d="M9.61624,0.04054c1.86415,0.06474 3.7363,0.5422 5.40043,1.35146c0.33603,0.16994 0.66405,0.26705 1.00008,0.33989c0.13601,0 0.26402,-0.03237 0.33603,-0.13757l0.16801,-0.13757c0.10401,-0.1052 0.20002,-0.13757 0.33603,-0.13757c0.26402,0 0.40003,0.16994 0.40003,0.50983v0.9792l-0.06401,1.92603l0.032,1.01157c0.032,0.23468 0.032,0.50983 0.06401,0.80925v0.23468c0,0.30752 -0.13601,0.437 -0.43203,0.437c-0.20002,0 -0.33603,-0.20231 -0.40003,-0.57457c-0.23202,-1.24625 -0.86407,-2.39539 -1.76814,-3.26939c-1.2641,-1.44857 -3.13625,-2.29019 -5.0324,-2.25782c-1.76814,-0.03237 -3.46428,0.77688 -4.50436,2.25782c-1.2001,1.75608 -1.80014,3.84396 -1.70414,5.9723c-0.06401,2.36302 0.53604,4.71795 1.73614,6.74109c1.16809,1.82082 2.60021,2.73528 4.30434,2.73528c0.66405,-0.03237 1.3041,-0.13757 1.93615,-0.33989c0.63205,-0.16994 1.2321,-0.40463 1.80014,-0.74451c0.36803,-0.23468 0.63205,-0.63931 0.76806,-1.04394c0.16801,-0.71214 0.23202,-1.44857 0.20002,-2.16071c0.10401,-0.80925 -0.13601,-1.65088 -0.60005,-2.33065c-0.63205,-0.50983 -1.43211,-0.77688 -2.23218,-0.74451c-0.30402,-0.03237 -0.43203,-0.16994 -0.43203,-0.40463c0,-0.26705 0.16801,-0.40463 0.50404,-0.40463c0.10401,0 0.26402,0 0.50404,0.03237c0.90407,0.06474 1.93615,0.13757 3.06425,0.13757c0.86407,0 1.73614,-0.03237 2.60021,-0.1052c0.33603,-0.06474 0.70406,-0.06474 1.03208,-0.1052c0.33603,0 0.50404,0.13757 0.50404,0.37226c0,0.23468 -0.16801,0.37226 -0.50404,0.437c-0.50404,0.06474 -0.90407,0.40463 -1.10409,0.87399c-0.23202,0.77688 -0.36803,1.55377 -0.30402,2.36302c0,0.30752 0,0.60694 0.032,0.91446c0.032,0.46937 0.06401,0.77688 0.06401,0.9792c0.032,0.23468 -0.032,0.437 -0.16801,0.63931c-0.20002,0.20231 -0.43203,0.33989 -0.70406,0.40463c-0.20002,0.06474 -0.93607,0.40463 -2.20018,0.94683c-1.80014,0.87399 -3.7683,1.35146 -5.76846,1.44857c-2.30418,0.06474 -4.53636,-0.84162 -6.10449,-2.56534c-1.63213,-1.82082 -2.4642,-4.18385 -2.36819,-6.61161c-0.06401,-2.80002 0.90407,-5.52721 2.73622,-7.62318c1.73614,-2.08788 4.23234,-3.23702 6.86455,-3.17228zM26.48959,15.14932c0,1.75608 0.20002,2.73528 0.63205,2.93759c0.43203,0.16994 0.90407,0.20231 1.36811,0.16994c3.13625,0 5.33643,-0.94683 6.63253,-2.80002c0.40003,-0.57457 0.66405,-0.84162 0.76806,-0.84162c0.16801,0 0.26402,0.20231 0.26402,0.57457c0,1.18151 -0.40003,2.29019 -1.13609,3.17228c-0.66405,0.80925 -1.70414,1.27862 -2.76822,1.24625c-0.23202,0 -0.66405,-0.03237 -1.3041,-0.06474l-1.66413,-0.1052l-1.50412,-0.06474c-0.50404,-0.03237 -1.10409,-0.03237 -1.73614,-0.03237c-1.16809,0 -2.30418,0.06474 -3.46428,0.20231c-0.36803,0.03237 -0.63205,0.06474 -0.76806,0.06474c-0.26402,0 -0.40003,-0.13757 -0.40003,-0.37226c0,-0.16994 0.13601,-0.30752 0.36803,-0.37226c0.53604,-0.13757 0.96808,-0.46937 1.2321,-0.9792c0.26402,-0.74451 0.40003,-1.55377 0.33603,-2.36302v-11.66945c0,-1.48094 -0.60005,-2.33065 -1.83215,-2.53297l-0.83207,-0.13757c-0.33603,-0.06474 -0.53604,-0.20231 -0.53604,-0.437c-0.032,-0.20231 0.10401,-0.40463 0.30402,-0.437h0.10401c0.13601,0 0.26402,0.03237 0.40003,0.03237c0.13601,0 0.30402,0.03237 0.53604,0.06474l0.60005,0.03237c0.56805,0.06474 1.00008,0.1052 1.2641,0.1052c0.70406,-0.03237 1.40011,-0.06474 2.13617,-0.16994c0.73606,-0.06474 1.46412,-0.1052 2.20018,-0.1052c0.56805,0 0.83207,0.13757 0.83207,0.40463c0,0.23468 -0.20002,0.37226 -0.60005,0.37226c-0.93607,0.06474 -1.40011,0.71214 -1.40011,1.9584l-0.032,12.13882zM47.45926,0.00817c2.56821,-0.1052 5.06441,0.80925 6.96856,2.53297c1.80014,1.75608 2.76822,4.18385 2.66421,6.67635c0.06401,2.80002 -0.90407,5.52721 -2.73622,7.62318c-1.76814,2.02314 -4.23234,3.06707 -7.36859,3.06707c-2.63221,0.13757 -5.23242,-0.84162 -7.16857,-2.66245c-1.83215,-1.88556 -2.80022,-4.4509 -2.70422,-7.08098c0,-1.27862 0.23202,-2.56534 0.66405,-3.77922c0.86407,-2.53297 2.76822,-4.5561 5.26442,-5.49484c1.40011,-0.60694 2.90423,-0.87399 4.40035,-0.87399zM46.45918,1.05211c-1.70414,-0.06474 -3.33627,0.71214 -4.33635,2.08788c-1.03208,1.38383 -1.56813,3.34222 -1.56813,5.80236c-0.10401,2.53297 0.56805,5.02547 1.96816,7.14572c1.13609,1.72371 3.06425,2.76765 5.10441,2.76765c1.80014,0.03237 3.50428,-0.80925 4.53636,-2.25782c1.2001,-1.78845 1.80014,-3.9087 1.70414,-6.06941c0,-1.48094 -0.26402,-2.93759 -0.80006,-4.28096c-0.43203,-1.24625 -1.16809,-2.39539 -2.10417,-3.34222c-1.2001,-1.21388 -2.83223,-1.88556 -4.50436,-1.85319zM61.49239,4.4267c0,-1.88556 -0.76806,-2.89713 -2.26418,-3.09944l-0.63205,-0.06474c-0.20002,-0.03237 -0.30402,-0.16994 -0.30402,-0.40463c0,-0.26705 0.13601,-0.40463 0.40003,-0.40463h0.33603l1.03208,0.06474c0.86407,0.03237 1.40011,0.06474 1.63213,0.06474c0.66405,0 1.86415,-0.06474 3.63229,-0.23468c1.10409,-0.1052 2.00016,-0.16994 2.76822,-0.16994c1.66413,-0.06474 3.33627,0.37226 4.73638,1.27862c1.13609,0.74451 1.80014,2.05551 1.76814,3.40696c0.10401,1.5214 -0.80006,2.89713 -2.20018,3.43933c-0.33603,0.13757 -0.50404,0.26705 -0.53604,0.37226c0,0.16994 0.16801,0.26705 0.53604,0.33989c1.06409,0.16994 2.03216,0.71214 2.73622,1.5214c0.66405,0.84162 1.03208,1.92603 1.00008,3.0347c0.06401,1.65088 -0.60005,3.26939 -1.83215,4.38616c-1.40011,1.14914 -3.16825,1.72371 -4.9684,1.61851l-2.80022,-0.06474l-2.16817,-0.03237c-1.2001,0 -2.40019,0.03237 -3.60029,0.16994c-0.30402,0.03237 -0.60005,0.06474 -0.86407,0.06474c-0.26402,0 -0.43203,-0.13757 -0.43203,-0.37226c0,-0.20231 0.13601,-0.33989 0.36803,-0.40463c1.10409,-0.20231 1.66413,-1.14914 1.66413,-2.89713v-11.60471zM64.66064,3.21282v4.0139c-0.032,0.437 0.10401,0.84162 0.40003,1.14914c0.40003,0.26705 0.86407,0.37226 1.36811,0.33989l1.90415,0.03237l0.86407,-0.03237c1.56813,-0.20231 2.36819,-1.14914 2.36819,-2.86476c0.06401,-1.24625 -0.43203,-2.4925 -1.3041,-3.37459c-0.93607,-0.87399 -2.20018,-1.35146 -3.46428,-1.27862c-0.60005,-0.06474 -1.2001,0.06474 -1.66413,0.40463c-0.36803,0.46937 -0.53604,1.04394 -0.46404,1.61851v0zM64.66064,12.51925v2.33065l0.032,0.5422l0.10401,1.18151c0.10401,1.35146 1.16809,2.02314 3.16825,2.02314c2.00016,0 3.30426,-0.46937 4.03232,-1.44857c0.60005,-0.84162 0.90407,-1.85319 0.90407,-2.86476c0,-2.19308 -0.96808,-3.54453 -2.90423,-4.04627c-1.2321,-0.30752 -2.5362,-0.437 -3.8003,-0.437c-0.66405,0 -1.10409,0.16994 -1.2641,0.46937c-0.23202,0.74451 -0.30402,1.5214 -0.26402,2.25782v0zM87.79849,1.96657l6.3045,14.63941c0.23202,0.63931 0.63205,1.18151 1.10409,1.65088c0.46404,0.37226 1.03208,0.63931 1.63213,0.74451c0.16801,0.03237 0.23202,0.16994 0.23202,0.40463c0,0.26705 -0.10401,0.37226 -0.33603,0.37226c-0.16801,0 -0.36803,-0.03237 -0.53604,-0.06474c-1.13609,-0.20231 -2.30418,-0.26705 -3.43227,-0.23468c-1.10409,-0.03237 -2.16817,0.03237 -3.23226,0.23468c-0.10401,0.03237 -0.23202,0.06474 -0.36803,0.06474c-0.20002,0.03237 -0.36803,-0.1052 -0.40003,-0.30752v-0.1052c0,-0.13757 0.10401,-0.23468 0.30402,-0.30752c0.43203,-0.13757 0.80006,-0.37226 1.10409,-0.71214c0.26402,-0.30752 0.43203,-0.67168 0.43203,-1.07631c-0.23202,-1.21388 -0.63205,-2.36302 -1.2001,-3.43933c-0.26402,-0.5422 -0.53604,-0.84162 -0.83207,-0.94683c-1.06409,-0.13757 -2.13617,-0.16994 -3.16825,-0.13757h-1.80014l-1.2321,0.23468c-0.33603,0.16994 -0.73606,0.77688 -1.16809,1.85319l-0.43203,1.07631c-0.13601,0.30752 -0.20002,0.60694 -0.20002,0.94683c0,1.18151 0.80006,1.85319 2.43219,2.05551c0.33603,0.03237 0.53604,0.16994 0.50404,0.40463c-0.032,0.23468 -0.20002,0.37226 -0.50404,0.37226c-0.23202,0 -0.46404,-0.03237 -0.70406,-0.06474c-0.53604,-0.1052 -1.10409,-0.16994 -1.63213,-0.20231c-0.43203,0 -1.13609,0.03237 -2.10417,0.13757c-0.73606,0.06474 -1.16809,0.1052 -1.33611,0.1052c-0.26402,0 -0.40003,-0.1052 -0.40003,-0.33989c0,-0.20231 0.13601,-0.33989 0.40003,-0.437c0.46404,-0.13757 0.90407,-0.46937 1.2001,-0.87399c0.53604,-0.84162 0.96808,-1.75608 1.33611,-2.66245l3.7683,-8.80469c0.30402,-0.71214 0.50404,-1.18151 0.63205,-1.44857l1.3041,-2.66245l0.66405,-1.31908v0.03237c0.30402,-0.71214 0.50404,-1.07631 0.60005,-1.07631c0.13601,0 0.40003,0.40463 0.76806,1.18151l0.30402,0.71214zM88.33453,10.69842l-1.80014,-4.28096c-0.43203,-1.01157 -0.73606,-1.5214 -0.93607,-1.5214c-0.10401,0 -0.30402,0.33989 -0.60005,0.9792l-0.26402,0.57457l-1.60013,3.74685l-0.16801,0.33989c-0.06401,0.1052 -0.10401,0.23468 -0.10401,0.37226c0,0.30752 0.33603,0.46937 1.00008,0.46937h4.06433c0.33603,0 0.53604,-0.1052 0.53604,-0.30752c0,-0.06474 -0.032,-0.16994 -0.06401,-0.23468zM103.30373,15.14932c0,1.75608 0.20002,2.73528 0.63205,2.93759c0.43203,0.16994 0.90407,0.20231 1.33611,0.16994c3.13625,0 5.33643,-0.94683 6.63253,-2.80002c0.40003,-0.57457 0.66405,-0.84162 0.76806,-0.84162c0.16801,0 0.26402,0.20231 0.26402,0.57457c0,1.18151 -0.40003,2.29019 -1.13609,3.17228c-0.66405,0.80925 -1.70414,1.27862 -2.76822,1.24625c-0.23202,0 -0.66405,-0.03237 -1.33611,-0.06474l-1.66413,-0.1052l-1.50412,-0.06474c-0.50404,-0.03237 -1.10409,-0.03237 -1.73614,-0.03237c-1.16809,0 -2.30418,0.06474 -3.46428,0.20231c-0.36803,0.03237 -0.63205,0.06474 -0.76806,0.06474c-0.26402,0 -0.40003,-0.13757 -0.40003,-0.37226c0,-0.16994 0.13601,-0.30752 0.36803,-0.37226c0.53604,-0.13757 0.96808,-0.46937 1.2321,-0.9792c0.26402,-0.74451 0.36803,-1.55377 0.33603,-2.36302v-11.66945c0,-1.48094 -0.60005,-2.33065 -1.83215,-2.53297l-0.83207,-0.13757c-0.36803,-0.06474 -0.53604,-0.20231 -0.53604,-0.437c-0.032,-0.20231 0.10401,-0.40463 0.30402,-0.437h0.10401c0.13601,0 0.26402,0.03237 0.40003,0.03237c0.13601,0 0.30402,0.03237 0.53604,0.06474l0.60005,0.03237c0.56805,0.06474 1.00008,0.1052 1.2641,0.1052c0.43203,0 1.16809,-0.06474 2.13617,-0.16994c0.73606,-0.06474 1.46412,-0.1052 2.20018,-0.1052c0.56805,0 0.83207,0.13757 0.83207,0.40463c0,0.23468 -0.20002,0.37226 -0.60005,0.37226c-0.93607,0.06474 -1.40011,0.71214 -1.40011,1.9584l0.032,12.13882z" vector-effect="non-scaling-stroke"/></defs><path style="stroke-width: 0; stroke-linecap: butt; stroke-linejoin: miter; fill: rgb(84, 84, 86);" d="M9.61624,0.04054c1.86415,0.06474 3.7363,0.5422 5.40043,1.35146c0.33603,0.16994 0.66405,0.26705 1.00008,0.33989c0.13601,0 0.26402,-0.03237 0.33603,-0.13757l0.16801,-0.13757c0.10401,-0.1052 0.20002,-0.13757 0.33603,-0.13757c0.26402,0 0.40003,0.16994 0.40003,0.50983v0.9792l-0.06401,1.92603l0.032,1.01157c0.032,0.23468 0.032,0.50983 0.06401,0.80925v0.23468c0,0.30752 -0.13601,0.437 -0.43203,0.437c-0.20002,0 -0.33603,-0.20231 -0.40003,-0.57457c-0.23202,-1.24625 -0.86407,-2.39539 -1.76814,-3.26939c-1.2641,-1.44857 -3.13625,-2.29019 -5.0324,-2.25782c-1.76814,-0.03237 -3.46428,0.77688 -4.50436,2.25782c-1.2001,1.75608 -1.80014,3.84396 -1.70414,5.9723c-0.06401,2.36302 0.53604,4.71795 1.73614,6.74109c1.16809,1.82082 2.60021,2.73528 4.30434,2.73528c0.66405,-0.03237 1.3041,-0.13757 1.93615,-0.33989c0.63205,-0.16994 1.2321,-0.40463 1.80014,-0.74451c0.36803,-0.23468 0.63205,-0.63931 0.76806,-1.04394c0.16801,-0.71214 0.23202,-1.44857 0.20002,-2.16071c0.10401,-0.80925 -0.13601,-1.65088 -0.60005,-2.33065c-0.63205,-0.50983 -1.43211,-0.77688 -2.23218,-0.74451c-0.30402,-0.03237 -0.43203,-0.16994 -0.43203,-0.40463c0,-0.26705 0.16801,-0.40463 0.50404,-0.40463c0.10401,0 0.26402,0 0.50404,0.03237c0.90407,0.06474 1.93615,0.13757 3.06425,0.13757c0.86407,0 1.73614,-0.03237 2.60021,-0.1052c0.33603,-0.06474 0.70406,-0.06474 1.03208,-0.1052c0.33603,0 0.50404,0.13757 0.50404,0.37226c0,0.23468 -0.16801,0.37226 -0.50404,0.437c-0.50404,0.06474 -0.90407,0.40463 -1.10409,0.87399c-0.23202,0.77688 -0.36803,1.55377 -0.30402,2.36302c0,0.30752 0,0.60694 0.032,0.91446c0.032,0.46937 0.06401,0.77688 0.06401,0.9792c0.032,0.23468 -0.032,0.437 -0.16801,0.63931c-0.20002,0.20231 -0.43203,0.33989 -0.70406,0.40463c-0.20002,0.06474 -0.93607,0.40463 -2.20018,0.94683c-1.80014,0.87399 -3.7683,1.35146 -5.76846,1.44857c-2.30418,0.06474 -4.53636,-0.84162 -6.10449,-2.56534c-1.63213,-1.82082 -2.4642,-4.18385 -2.36819,-6.61161c-0.06401,-2.80002 0.90407,-5.52721 2.73622,-7.62318c1.73614,-2.08788 4.23234,-3.23702 6.86455,-3.17228zM26.48959,15.14932c0,1.75608 0.20002,2.73528 0.63205,2.93759c0.43203,0.16994 0.90407,0.20231 1.36811,0.16994c3.13625,0 5.33643,-0.94683 6.63253,-2.80002c0.40003,-0.57457 0.66405,-0.84162 0.76806,-0.84162c0.16801,0 0.26402,0.20231 0.26402,0.57457c0,1.18151 -0.40003,2.29019 -1.13609,3.17228c-0.66405,0.80925 -1.70414,1.27862 -2.76822,1.24625c-0.23202,0 -0.66405,-0.03237 -1.3041,-0.06474l-1.66413,-0.1052l-1.50412,-0.06474c-0.50404,-0.03237 -1.10409,-0.03237 -1.73614,-0.03237c-1.16809,0 -2.30418,0.06474 -3.46428,0.20231c-0.36803,0.03237 -0.63205,0.06474 -0.76806,0.06474c-0.26402,0 -0.40003,-0.13757 -0.40003,-0.37226c0,-0.16994 0.13601,-0.30752 0.36803,-0.37226c0.53604,-0.13757 0.96808,-0.46937 1.2321,-0.9792c0.26402,-0.74451 0.40003,-1.55377 0.33603,-2.36302v-11.66945c0,-1.48094 -0.60005,-2.33065 -1.83215,-2.53297l-0.83207,-0.13757c-0.33603,-0.06474 -0.53604,-0.20231 -0.53604,-0.437c-0.032,-0.20231 0.10401,-0.40463 0.30402,-0.437h0.10401c0.13601,0 0.26402,0.03237 0.40003,0.03237c0.13601,0 0.30402,0.03237 0.53604,0.06474l0.60005,0.03237c0.56805,0.06474 1.00008,0.1052 1.2641,0.1052c0.70406,-0.03237 1.40011,-0.06474 2.13617,-0.16994c0.73606,-0.06474 1.46412,-0.1052 2.20018,-0.1052c0.56805,0 0.83207,0.13757 0.83207,0.40463c0,0.23468 -0.20002,0.37226 -0.60005,0.37226c-0.93607,0.06474 -1.40011,0.71214 -1.40011,1.9584l-0.032,12.13882zM47.45926,0.00817c2.56821,-0.1052 5.06441,0.80925 6.96856,2.53297c1.80014,1.75608 2.76822,4.18385 2.66421,6.67635c0.06401,2.80002 -0.90407,5.52721 -2.73622,7.62318c-1.76814,2.02314 -4.23234,3.06707 -7.36859,3.06707c-2.63221,0.13757 -5.23242,-0.84162 -7.16857,-2.66245c-1.83215,-1.88556 -2.80022,-4.4509 -2.70422,-7.08098c0,-1.27862 0.23202,-2.56534 0.66405,-3.77922c0.86407,-2.53297 2.76822,-4.5561 5.26442,-5.49484c1.40011,-0.60694 2.90423,-0.87399 4.40035,-0.87399zM46.45918,1.05211c-1.70414,-0.06474 -3.33627,0.71214 -4.33635,2.08788c-1.03208,1.38383 -1.56813,3.34222 -1.56813,5.80236c-0.10401,2.53297 0.56805,5.02547 1.96816,7.14572c1.13609,1.72371 3.06425,2.76765 5.10441,2.76765c1.80014,0.03237 3.50428,-0.80925 4.53636,-2.25782c1.2001,-1.78845 1.80014,-3.9087 1.70414,-6.06941c0,-1.48094 -0.26402,-2.93759 -0.80006,-4.28096c-0.43203,-1.24625 -1.16809,-2.39539 -2.10417,-3.34222c-1.2001,-1.21388 -2.83223,-1.88556 -4.50436,-1.85319zM61.49239,4.4267c0,-1.88556 -0.76806,-2.89713 -2.26418,-3.09944l-0.63205,-0.06474c-0.20002,-0.03237 -0.30402,-0.16994 -0.30402,-0.40463c0,-0.26705 0.13601,-0.40463 0.40003,-0.40463h0.33603l1.03208,0.06474c0.86407,0.03237 1.40011,0.06474 1.63213,0.06474c0.66405,0 1.86415,-0.06474 3.63229,-0.23468c1.10409,-0.1052 2.00016,-0.16994 2.76822,-0.16994c1.66413,-0.06474 3.33627,0.37226 4.73638,1.27862c1.13609,0.74451 1.80014,2.05551 1.76814,3.40696c0.10401,1.5214 -0.80006,2.89713 -2.20018,3.43933c-0.33603,0.13757 -0.50404,0.26705 -0.53604,0.37226c0,0.16994 0.16801,0.26705 0.53604,0.33989c1.06409,0.16994 2.03216,0.71214 2.73622,1.5214c0.66405,0.84162 1.03208,1.92603 1.00008,3.0347c0.06401,1.65088 -0.60005,3.26939 -1.83215,4.38616c-1.40011,1.14914 -3.16825,1.72371 -4.9684,1.61851l-2.80022,-0.06474l-2.16817,-0.03237c-1.2001,0 -2.40019,0.03237 -3.60029,0.16994c-0.30402,0.03237 -0.60005,0.06474 -0.86407,0.06474c-0.26402,0 -0.43203,-0.13757 -0.43203,-0.37226c0,-0.20231 0.13601,-0.33989 0.36803,-0.40463c1.10409,-0.20231 1.66413,-1.14914 1.66413,-2.89713v-11.60471zM64.66064,3.21282v4.0139c-0.032,0.437 0.10401,0.84162 0.40003,1.14914c0.40003,0.26705 0.86407,0.37226 1.36811,0.33989l1.90415,0.03237l0.86407,-0.03237c1.56813,-0.20231 2.36819,-1.14914 2.36819,-2.86476c0.06401,-1.24625 -0.43203,-2.4925 -1.3041,-3.37459c-0.93607,-0.87399 -2.20018,-1.35146 -3.46428,-1.27862c-0.60005,-0.06474 -1.2001,0.06474 -1.66413,0.40463c-0.36803,0.46937 -0.53604,1.04394 -0.46404,1.61851v0zM64.66064,12.51925v2.33065l0.032,0.5422l0.10401,1.18151c0.10401,1.35146 1.16809,2.02314 3.16825,2.02314c2.00016,0 3.30426,-0.46937 4.03232,-1.44857c0.60005,-0.84162 0.90407,-1.85319 0.90407,-2.86476c0,-2.19308 -0.96808,-3.54453 -2.90423,-4.04627c-1.2321,-0.30752 -2.5362,-0.437 -3.8003,-0.437c-0.66405,0 -1.10409,0.16994 -1.2641,0.46937c-0.23202,0.74451 -0.30402,1.5214 -0.26402,2.25782v0zM87.79849,1.96657l6.3045,14.63941c0.23202,0.63931 0.63205,1.18151 1.10409,1.65088c0.46404,0.37226 1.03208,0.63931 1.63213,0.74451c0.16801,0.03237 0.23202,0.16994 0.23202,0.40463c0,0.26705 -0.10401,0.37226 -0.33603,0.37226c-0.16801,0 -0.36803,-0.03237 -0.53604,-0.06474c-1.13609,-0.20231 -2.30418,-0.26705 -3.43227,-0.23468c-1.10409,-0.03237 -2.16817,0.03237 -3.23226,0.23468c-0.10401,0.03237 -0.23202,0.06474 -0.36803,0.06474c-0.20002,0.03237 -0.36803,-0.1052 -0.40003,-0.30752v-0.1052c0,-0.13757 0.10401,-0.23468 0.30402,-0.30752c0.43203,-0.13757 0.80006,-0.37226 1.10409,-0.71214c0.26402,-0.30752 0.43203,-0.67168 0.43203,-1.07631c-0.23202,-1.21388 -0.63205,-2.36302 -1.2001,-3.43933c-0.26402,-0.5422 -0.53604,-0.84162 -0.83207,-0.94683c-1.06409,-0.13757 -2.13617,-0.16994 -3.16825,-0.13757h-1.80014l-1.2321,0.23468c-0.33603,0.16994 -0.73606,0.77688 -1.16809,1.85319l-0.43203,1.07631c-0.13601,0.30752 -0.20002,0.60694 -0.20002,0.94683c0,1.18151 0.80006,1.85319 2.43219,2.05551c0.33603,0.03237 0.53604,0.16994 0.50404,0.40463c-0.032,0.23468 -0.20002,0.37226 -0.50404,0.37226c-0.23202,0 -0.46404,-0.03237 -0.70406,-0.06474c-0.53604,-0.1052 -1.10409,-0.16994 -1.63213,-0.20231c-0.43203,0 -1.13609,0.03237 -2.10417,0.13757c-0.73606,0.06474 -1.16809,0.1052 -1.33611,0.1052c-0.26402,0 -0.40003,-0.1052 -0.40003,-0.33989c0,-0.20231 0.13601,-0.33989 0.40003,-0.437c0.46404,-0.13757 0.90407,-0.46937 1.2001,-0.87399c0.53604,-0.84162 0.96808,-1.75608 1.33611,-2.66245l3.7683,-8.80469c0.30402,-0.71214 0.50404,-1.18151 0.63205,-1.44857l1.3041,-2.66245l0.66405,-1.31908v0.03237c0.30402,-0.71214 0.50404,-1.07631 0.60005,-1.07631c0.13601,0 0.40003,0.40463 0.76806,1.18151l0.30402,0.71214zM88.33453,10.69842l-1.80014,-4.28096c-0.43203,-1.01157 -0.73606,-1.5214 -0.93607,-1.5214c-0.10401,0 -0.30402,0.33989 -0.60005,0.9792l-0.26402,0.57457l-1.60013,3.74685l-0.16801,0.33989c-0.06401,0.1052 -0.10401,0.23468 -0.10401,0.37226c0,0.30752 0.33603,0.46937 1.00008,0.46937h4.06433c0.33603,0 0.53604,-0.1052 0.53604,-0.30752c0,-0.06474 -0.032,-0.16994 -0.06401,-0.23468zM103.30373,15.14932c0,1.75608 0.20002,2.73528 0.63205,2.93759c0.43203,0.16994 0.90407,0.20231 1.33611,0.16994c3.13625,0 5.33643,-0.94683 6.63253,-2.80002c0.40003,-0.57457 0.66405,-0.84162 0.76806,-0.84162c0.16801,0 0.26402,0.20231 0.26402,0.57457c0,1.18151 -0.40003,2.29019 -1.13609,3.17228c-0.66405,0.80925 -1.70414,1.27862 -2.76822,1.24625c-0.23202,0 -0.66405,-0.03237 -1.33611,-0.06474l-1.66413,-0.1052l-1.50412,-0.06474c-0.50404,-0.03237 -1.10409,-0.03237 -1.73614,-0.03237c-1.16809,0 -2.30418,0.06474 -3.46428,0.20231c-0.36803,0.03237 -0.63205,0.06474 -0.76806,0.06474c-0.26402,0 -0.40003,-0.13757 -0.40003,-0.37226c0,-0.16994 0.13601,-0.30752 0.36803,-0.37226c0.53604,-0.13757 0.96808,-0.46937 1.2321,-0.9792c0.26402,-0.74451 0.36803,-1.55377 0.33603,-2.36302v-11.66945c0,-1.48094 -0.60005,-2.33065 -1.83215,-2.53297l-0.83207,-0.13757c-0.36803,-0.06474 -0.53604,-0.20231 -0.53604,-0.437c-0.032,-0.20231 0.10401,-0.40463 0.30402,-0.437h0.10401c0.13601,0 0.26402,0.03237 0.40003,0.03237c0.13601,0 0.30402,0.03237 0.53604,0.06474l0.60005,0.03237c0.56805,0.06474 1.00008,0.1052 1.2641,0.1052c0.43203,0 1.16809,-0.06474 2.13617,-0.16994c0.73606,-0.06474 1.46412,-0.1052 2.20018,-0.1052c0.56805,0 0.83207,0.13757 0.83207,0.40463c0,0.23468 -0.20002,0.37226 -0.60005,0.37226c-0.93607,0.06474 -1.40011,0.71214 -1.40011,1.9584l0.032,12.13882z" transform="translate(127.06349781867505, 39.999999436430244) rotate(0)" vector-effect="non-scaling-stroke"/></g><g><defs><path id="path-1746429648226923" d="M10.76086,3.72517v10.55268c-0.10401,1.14914 0.13601,2.33065 0.66405,3.37459c0.60005,0.71214 1.46412,1.14914 2.40019,1.11677c0.33603,0.03237 0.50404,0.20231 0.50404,0.50983c0,0.20231 -0.13601,0.33989 -0.43203,0.33989h-0.33603l-1.03208,-0.03237l-1.73614,-0.1052h-0.56805c-0.53604,0 -1.03208,0 -1.43211,0.03237l-3.06425,0.16994c-0.33603,0.03237 -0.53604,0.06474 -0.66405,0.06474c-0.30402,0 -0.43203,-0.13757 -0.43203,-0.37226c0,-0.13757 0.032,-0.30752 0.13601,-0.40463c0.16801,-0.06474 0.36803,-0.13757 0.53604,-0.13757c0.63205,0 1.2321,-0.30752 1.66413,-0.77688c0.43203,-0.57457 0.63205,-1.24625 0.60005,-1.9584v-13.18276c0,-0.74451 -0.40003,-1.11677 -1.16809,-1.11677c-1.2641,-0.06474 -2.56821,0.06474 -3.7683,0.40463c-0.40003,0.13757 -0.73606,0.37226 -0.96808,0.71214c-0.30402,0.60694 -0.50404,1.24625 -0.66405,1.92603l-0.10401,0.40463c-0.10401,0.37226 -0.26402,0.57457 -0.46404,0.57457c-0.30402,0 -0.43203,-0.13757 -0.43203,-0.437c0.032,-0.37226 0.06401,-0.74451 0.13601,-1.07631l0.13601,-1.21388l0.16801,-1.24625l0.10401,-0.84162c0,-0.30752 0.23202,-0.5422 0.50404,-0.5422h0.06401c0.10401,0 0.26402,0 0.46404,0.03237c0.36803,0.03237 0.86407,0.03237 1.53612,0.03237l2.83223,0.03237l3.36827,0.03237c2.16817,0 4.46436,-0.06474 6.90455,-0.16994c0.46404,-0.03237 0.80006,-0.03237 0.93607,-0.03237c0.50404,0 0.76806,0.20231 0.80006,0.63931l0.06401,1.01157c0,0.16994 0.06401,0.5422 0.13601,1.14914c0.06401,0.40463 0.10401,0.80925 0.10401,1.18151c0,0.30752 -0.13601,0.46937 -0.36803,0.46937c-0.20002,0 -0.36803,-0.16994 -0.43203,-0.5422c-0.13601,-0.74451 -0.50404,-1.4162 -1.10409,-1.88556c-0.73606,-0.437 -1.56813,-0.63931 -2.40019,-0.57457c-0.90407,-0.06474 -1.76814,0.03237 -2.63221,0.33989c-0.36803,0.13757 -0.53604,0.67168 -0.53604,1.55377zM24.76198,15.15993l0.10401,1.4162c0.06401,0.63931 0.36803,1.21388 0.80006,1.65088c0.46404,0.40463 1.06409,0.60694 1.66413,0.57457c0.46404,0 0.66405,0.13757 0.66405,0.437c0,0.26705 -0.30402,0.40463 -0.90407,0.40463c-0.26402,0 -0.63205,-0.03237 -1.10409,-0.06474c-0.96808,-0.13757 -1.93615,-0.20231 -2.93623,-0.20231c-0.73606,0 -1.46412,0.03237 -2.20018,0.13757c-0.33603,0.06474 -0.66405,0.1052 -1.00008,0.13757c-0.20002,0 -0.36803,-0.1052 -0.40003,-0.30752l-0.032,-0.1052l0.40003,-0.33989c0.53604,-0.13757 1.00008,-0.437 1.33611,-0.87399c0.26402,-0.5422 0.36803,-1.14914 0.33603,-1.75608v-12.3735c0.06401,-0.63931 -0.10401,-1.27862 -0.43203,-1.82082c-0.43203,-0.437 -1.00008,-0.71214 -1.63213,-0.74451c-0.30402,-0.03237 -0.60005,-0.1052 -0.90407,-0.20231c-0.13601,-0.06474 -0.20002,-0.20231 -0.20002,-0.37226c0,-0.26705 0.10401,-0.40463 0.33603,-0.37226c0.26402,0.03237 0.50404,0.06474 0.73606,0.1052c0.56805,0.1052 1.10409,0.13757 1.66413,0.1052c0.50404,0 1.16809,-0.03237 1.93615,-0.1052l1.00008,-0.06474c0.93607,-0.06474 1.66413,-0.1052 2.20018,-0.1052c0.30402,0 0.46404,0.1052 0.46404,0.33989c0,0.13757 0,0.23468 -0.06401,0.33989c-0.10401,0.06474 -0.23202,0.13757 -0.33603,0.13757c-0.46404,0.03237 -0.93607,0.23468 -1.2641,0.57457c-0.23202,0.50983 -0.33603,1.04394 -0.26402,1.58614l0.032,11.87176zM38.6991,0.01878c1.86415,0.06474 3.7043,0.5422 5.40043,1.35146c0.33603,0.16994 0.66405,0.26705 1.00008,0.33989c0.13601,0 0.26402,-0.03237 0.33603,-0.13757l0.16801,-0.13757c0.10401,-0.1052 0.20002,-0.13757 0.33603,-0.13757c0.26402,0 0.40003,0.16994 0.40003,0.50983v0.9792l-0.06401,1.92603l0.032,1.01157c0.032,0.23468 0.032,0.50983 0.10401,0.80925v0.23468c0,0.30752 -0.13601,0.437 -0.43203,0.437c-0.20002,0 -0.33603,-0.20231 -0.40003,-0.57457c-0.26402,-1.24625 -0.86407,-2.39539 -1.76814,-3.26939c-1.2641,-1.44857 -3.13625,-2.29019 -5.0324,-2.25782c-1.76814,-0.06474 -3.46428,0.77688 -4.50436,2.25782c-1.2001,1.75608 -1.80014,3.84396 -1.70414,5.9723c-0.06401,2.36302 0.53604,4.71795 1.73614,6.74109c1.16809,1.82082 2.60021,2.73528 4.30434,2.73528c0.66405,-0.03237 1.3041,-0.13757 1.93615,-0.33989c0.63205,-0.16994 1.2321,-0.40463 1.76814,-0.74451c0.36803,-0.23468 0.63205,-0.63931 0.76806,-1.04394c0.16801,-0.71214 0.23202,-1.44857 0.20002,-2.16071c0.10401,-0.80925 -0.13601,-1.65088 -0.60005,-2.33065c-0.63205,-0.50983 -1.43211,-0.77688 -2.23218,-0.74451c-0.30402,-0.03237 -0.43203,-0.16994 -0.43203,-0.40463c0,-0.26705 0.16801,-0.40463 0.50404,-0.40463c0.10401,0 0.26402,0 0.50404,0.03237c0.90407,0.06474 1.93615,0.13757 3.06425,0.13757c0.86407,0 1.73614,-0.03237 2.60021,-0.1052c0.33603,-0.06474 0.70406,-0.06474 1.03208,-0.1052c0.33603,0 0.50404,0.13757 0.50404,0.37226c0,0.23468 -0.16801,0.37226 -0.50404,0.437c-0.50404,0.06474 -0.90407,0.40463 -1.10409,0.87399c-0.23202,0.77688 -0.33603,1.55377 -0.30402,2.36302c0,0.30752 0,0.60694 0.032,0.91446c0.032,0.46937 0.06401,0.77688 0.06401,0.9792c0.032,0.23468 -0.032,0.437 -0.16801,0.63931c-0.20002,0.20231 -0.43203,0.33989 -0.70406,0.40463c-0.20002,0.06474 -0.93607,0.40463 -2.20018,0.94683c-1.80014,0.87399 -3.7683,1.35146 -5.76846,1.44857c-2.30418,0.06474 -4.53636,-0.84162 -6.10449,-2.56534c-1.63213,-1.82082 -2.4642,-4.18385 -2.36819,-6.61161c-0.06401,-2.80002 0.90407,-5.52721 2.73622,-7.62318c1.76814,-2.08788 4.26434,-3.23702 6.86455,-3.17228zM55.57245,3.59569v3.0347c-0.032,0.57457 0.032,1.11677 0.20002,1.65088c0.13601,0.23468 0.43203,0.33989 0.90407,0.33989h2.20018c0.93607,-0.03237 1.80014,-0.63931 2.13617,-1.5214l0.33603,-0.67168c0.06401,-0.16994 0.23202,-0.26705 0.40003,-0.26705c0.20002,0 0.30402,0.13757 0.30402,0.37226c0,0.06474 0,0.26705 -0.032,0.60694c-0.032,0.23468 -0.032,0.437 -0.032,0.60694c0,0.30752 0.032,1.01157 0.13601,2.08788c0.06401,0.71214 0.06401,1.35146 0.06401,1.88556l0.032,0.71214c0,0.1052 0,0.16994 -0.032,0.26705c-0.06401,0.06474 -0.13601,0.1052 -0.23202,0.1052c-0.23202,0.03237 -0.36803,-0.16994 -0.43203,-0.5422c-0.06401,-0.67168 -0.36803,-1.31908 -0.83207,-1.82082c-0.23202,-0.23468 -0.56805,-0.37226 -0.86407,-0.437c-0.63205,-0.06474 -1.3041,-0.1052 -1.93615,-0.1052h-0.93607c-0.30402,-0.03237 -0.63205,0.03237 -0.90407,0.20231c-0.20002,0.23468 -0.30402,0.50983 -0.33603,0.80925c-0.06401,0.74451 -0.10401,1.48094 -0.10401,2.22545v1.24625c-0.032,0.94683 0.06401,1.92603 0.30402,2.83239c0.13601,0.71214 0.83207,1.18151 1.53612,1.07631c3.7363,0 6.2005,-1.14914 7.33659,-3.4717c0.06401,-0.1052 0.13601,-0.16994 0.16801,-0.16994c0.10401,-0.03237 0.20002,0.03237 0.26402,0.1052c0.06401,0.06474 0.13601,0.20231 0.13601,0.30752c0,0.94683 -0.26402,1.85319 -0.73606,2.66245c-0.33603,0.67168 -0.86407,1.21388 -1.53612,1.55377c-0.76806,0.33989 -1.60013,0.50983 -2.43219,0.46937c-0.66405,0 -1.3041,-0.03237 -1.96816,-0.1052l-1.60013,-0.13757c-0.60005,-0.06474 -1.40011,-0.1052 -2.40019,-0.1052c-0.66405,0 -1.70414,0.03237 -3.06425,0.13757c-0.36803,0.03237 -0.63205,0.03237 -0.80006,0.03237c-0.16801,0.03237 -0.33603,-0.1052 -0.36803,-0.26705v-0.03237c0,-0.16994 0.10401,-0.30752 0.30402,-0.40463c0.40003,-0.13757 0.76806,-0.33989 1.06409,-0.63931c0.23202,-0.37226 0.40003,-0.77688 0.43203,-1.21388c0.13601,-0.67168 0.16801,-1.35146 0.16801,-2.02314v-11.06251c0.06401,-0.74451 -0.10401,-1.48094 -0.50404,-2.12834c-0.60005,-0.46937 -1.33611,-0.74451 -2.10417,-0.77688c-0.20002,0 -0.36803,-0.16994 -0.36803,-0.40463v0c0,-0.20231 0.16801,-0.33989 0.46404,-0.33989c0.06401,0 0.20002,0 0.43203,0.03237h0.66405l1.40011,0.06474l5.23242,0.06474c3.03224,0 4.86439,-0.03237 5.56845,-0.13757h0.20002c0.26402,0 0.40003,0.16994 0.40003,0.46937c0,0.20231 0.032,0.60694 0.10401,1.14914c0.06401,0.80925 0.10401,1.4162 0.10401,1.75608c0,0.71214 -0.16801,1.07631 -0.53604,1.07631c-0.16801,0 -0.26402,-0.20231 -0.26402,-0.60694c0.06401,-0.80925 -0.33603,-1.58614 -1.00008,-2.02314c-1.00008,-0.46937 -2.13617,-0.71214 -3.23226,-0.60694h-1.70414l-0.93607,0.1052c-0.46404,0.13757 -0.70406,0.60694 -0.70406,1.4162l-0.06401,0.5422zM72.27778,14.05125c-0.10401,1.21388 0.06401,2.46013 0.50404,3.60928c0.40003,0.67168 1.13609,1.07631 1.90415,1.07631c0.40003,0.03237 0.56805,0.20231 0.56805,0.46937c0,0.26705 -0.16801,0.40463 -0.46404,0.40463c-0.10401,0 -0.30402,0 -0.56805,-0.03237c-0.80006,-0.06474 -1.56813,-0.1052 -2.30418,-0.1052c-0.60005,0 -1.16809,0.03237 -1.63213,0.06474l-1.16809,0.1052l-0.93607,0.06474c-0.26402,0.03237 -0.43203,0.03237 -0.53604,0.03237c-0.33603,0 -0.50404,-0.13757 -0.50404,-0.37226c-0.032,-0.16994 0.10401,-0.33989 0.26402,-0.40463c0.50404,-0.1052 0.96808,-0.40463 1.3041,-0.77688c0.26402,-0.437 0.40003,-0.9792 0.36803,-1.5214v-1.31908l0.032,-0.5422v-10.11568c0.06401,-0.77688 -0.06401,-1.55377 -0.43203,-2.25782c-0.53604,-0.67168 -1.36811,-1.07631 -2.20018,-1.11677c-0.36803,-0.06474 -0.56805,-0.23468 -0.56805,-0.46937c-0.032,-0.20231 0.10401,-0.37226 0.30402,-0.40463h0.10401c0.16801,0 0.33603,0 0.50404,0.03237c0.76806,0.06474 1.56813,0.13757 2.33619,0.1052c0.93607,0 2.06417,-0.06474 3.40027,-0.16994c1.56813,-0.13757 2.63221,-0.16994 3.23226,-0.16994c1.56813,-0.06474 3.13625,0.46937 4.36835,1.44857c1.10409,0.87399 1.76814,2.22545 1.73614,3.64165c0,0.91446 -0.26402,1.78845 -0.76806,2.53297c-0.53604,0.77688 -1.2641,1.38383 -2.10417,1.72371c-0.16801,0.06474 -0.26402,0.16994 -0.26402,0.26705c0.032,0.13757 0.06401,0.23468 0.13601,0.33989c0.06401,0.13757 0.20002,0.33989 0.36803,0.63931l1.2321,2.22545l1.43211,2.56534c0.33603,0.67168 0.76806,1.27862 1.3041,1.78845c0.36803,0.33989 0.86407,0.50983 1.36811,0.50983c0.20002,0 0.40003,0 0.60005,-0.06474c0.10401,-0.03237 0.20002,-0.03237 0.30402,-0.03237c0.16801,0 0.26402,0.1052 0.26402,0.33989c0,0.26705 -0.36803,0.57457 -1.13609,0.91446c-0.63205,0.30752 -1.3041,0.50983 -2.00016,0.50983c-1.03208,-0.03237 -2.00016,-0.57457 -2.63221,-1.4162c-1.2321,-1.65088 -2.26418,-3.43933 -3.13625,-5.36536c-0.30402,-0.71214 -0.70406,-1.38383 -1.2321,-1.9584c-0.46404,-0.30752 -1.03208,-0.46937 -1.56813,-0.40463h-0.86407l-0.63205,0.1052c-0.13601,0.06474 -0.20002,0.30752 -0.20002,0.67168l-0.06401,2.83239zM72.27778,3.12632v4.85553c-0.032,0.40463 0.032,0.77688 0.23202,1.14914c0.33603,0.20231 0.70406,0.30752 1.10409,0.23468c1.03208,0.03237 2.03216,0 3.06425,-0.1052c0.40003,-0.06474 0.80006,-0.26705 1.10409,-0.57457c0.70406,-0.63931 1.06409,-1.58614 1.00008,-2.56534c0.06401,-2.59771 -1.93615,-4.79079 -4.53636,-4.85553h-0.33603c-0.46404,-0.06474 -0.93607,0.1052 -1.3041,0.40463c-0.26402,0.40463 -0.40003,0.94683 -0.33603,1.44857v0z" vector-effect="non-scaling-stroke"/></defs><path style="stroke-width: 0; stroke-linecap: butt; stroke-linejoin: miter; fill: rgb(230, 123, 38);" d="M10.76086,3.72517v10.55268c-0.10401,1.14914 0.13601,2.33065 0.66405,3.37459c0.60005,0.71214 1.46412,1.14914 2.40019,1.11677c0.33603,0.03237 0.50404,0.20231 0.50404,0.50983c0,0.20231 -0.13601,0.33989 -0.43203,0.33989h-0.33603l-1.03208,-0.03237l-1.73614,-0.1052h-0.56805c-0.53604,0 -1.03208,0 -1.43211,0.03237l-3.06425,0.16994c-0.33603,0.03237 -0.53604,0.06474 -0.66405,0.06474c-0.30402,0 -0.43203,-0.13757 -0.43203,-0.37226c0,-0.13757 0.032,-0.30752 0.13601,-0.40463c0.16801,-0.06474 0.36803,-0.13757 0.53604,-0.13757c0.63205,0 1.2321,-0.30752 1.66413,-0.77688c0.43203,-0.57457 0.63205,-1.24625 0.60005,-1.9584v-13.18276c0,-0.74451 -0.40003,-1.11677 -1.16809,-1.11677c-1.2641,-0.06474 -2.56821,0.06474 -3.7683,0.40463c-0.40003,0.13757 -0.73606,0.37226 -0.96808,0.71214c-0.30402,0.60694 -0.50404,1.24625 -0.66405,1.92603l-0.10401,0.40463c-0.10401,0.37226 -0.26402,0.57457 -0.46404,0.57457c-0.30402,0 -0.43203,-0.13757 -0.43203,-0.437c0.032,-0.37226 0.06401,-0.74451 0.13601,-1.07631l0.13601,-1.21388l0.16801,-1.24625l0.10401,-0.84162c0,-0.30752 0.23202,-0.5422 0.50404,-0.5422h0.06401c0.10401,0 0.26402,0 0.46404,0.03237c0.36803,0.03237 0.86407,0.03237 1.53612,0.03237l2.83223,0.03237l3.36827,0.03237c2.16817,0 4.46436,-0.06474 6.90455,-0.16994c0.46404,-0.03237 0.80006,-0.03237 0.93607,-0.03237c0.50404,0 0.76806,0.20231 0.80006,0.63931l0.06401,1.01157c0,0.16994 0.06401,0.5422 0.13601,1.14914c0.06401,0.40463 0.10401,0.80925 0.10401,1.18151c0,0.30752 -0.13601,0.46937 -0.36803,0.46937c-0.20002,0 -0.36803,-0.16994 -0.43203,-0.5422c-0.13601,-0.74451 -0.50404,-1.4162 -1.10409,-1.88556c-0.73606,-0.437 -1.56813,-0.63931 -2.40019,-0.57457c-0.90407,-0.06474 -1.76814,0.03237 -2.63221,0.33989c-0.36803,0.13757 -0.53604,0.67168 -0.53604,1.55377zM24.76198,15.15993l0.10401,1.4162c0.06401,0.63931 0.36803,1.21388 0.80006,1.65088c0.46404,0.40463 1.06409,0.60694 1.66413,0.57457c0.46404,0 0.66405,0.13757 0.66405,0.437c0,0.26705 -0.30402,0.40463 -0.90407,0.40463c-0.26402,0 -0.63205,-0.03237 -1.10409,-0.06474c-0.96808,-0.13757 -1.93615,-0.20231 -2.93623,-0.20231c-0.73606,0 -1.46412,0.03237 -2.20018,0.13757c-0.33603,0.06474 -0.66405,0.1052 -1.00008,0.13757c-0.20002,0 -0.36803,-0.1052 -0.40003,-0.30752l-0.032,-0.1052l0.40003,-0.33989c0.53604,-0.13757 1.00008,-0.437 1.33611,-0.87399c0.26402,-0.5422 0.36803,-1.14914 0.33603,-1.75608v-12.3735c0.06401,-0.63931 -0.10401,-1.27862 -0.43203,-1.82082c-0.43203,-0.437 -1.00008,-0.71214 -1.63213,-0.74451c-0.30402,-0.03237 -0.60005,-0.1052 -0.90407,-0.20231c-0.13601,-0.06474 -0.20002,-0.20231 -0.20002,-0.37226c0,-0.26705 0.10401,-0.40463 0.33603,-0.37226c0.26402,0.03237 0.50404,0.06474 0.73606,0.1052c0.56805,0.1052 1.10409,0.13757 1.66413,0.1052c0.50404,0 1.16809,-0.03237 1.93615,-0.1052l1.00008,-0.06474c0.93607,-0.06474 1.66413,-0.1052 2.20018,-0.1052c0.30402,0 0.46404,0.1052 0.46404,0.33989c0,0.13757 0,0.23468 -0.06401,0.33989c-0.10401,0.06474 -0.23202,0.13757 -0.33603,0.13757c-0.46404,0.03237 -0.93607,0.23468 -1.2641,0.57457c-0.23202,0.50983 -0.33603,1.04394 -0.26402,1.58614l0.032,11.87176zM38.6991,0.01878c1.86415,0.06474 3.7043,0.5422 5.40043,1.35146c0.33603,0.16994 0.66405,0.26705 1.00008,0.33989c0.13601,0 0.26402,-0.03237 0.33603,-0.13757l0.16801,-0.13757c0.10401,-0.1052 0.20002,-0.13757 0.33603,-0.13757c0.26402,0 0.40003,0.16994 0.40003,0.50983v0.9792l-0.06401,1.92603l0.032,1.01157c0.032,0.23468 0.032,0.50983 0.10401,0.80925v0.23468c0,0.30752 -0.13601,0.437 -0.43203,0.437c-0.20002,0 -0.33603,-0.20231 -0.40003,-0.57457c-0.26402,-1.24625 -0.86407,-2.39539 -1.76814,-3.26939c-1.2641,-1.44857 -3.13625,-2.29019 -5.0324,-2.25782c-1.76814,-0.06474 -3.46428,0.77688 -4.50436,2.25782c-1.2001,1.75608 -1.80014,3.84396 -1.70414,5.9723c-0.06401,2.36302 0.53604,4.71795 1.73614,6.74109c1.16809,1.82082 2.60021,2.73528 4.30434,2.73528c0.66405,-0.03237 1.3041,-0.13757 1.93615,-0.33989c0.63205,-0.16994 1.2321,-0.40463 1.76814,-0.74451c0.36803,-0.23468 0.63205,-0.63931 0.76806,-1.04394c0.16801,-0.71214 0.23202,-1.44857 0.20002,-2.16071c0.10401,-0.80925 -0.13601,-1.65088 -0.60005,-2.33065c-0.63205,-0.50983 -1.43211,-0.77688 -2.23218,-0.74451c-0.30402,-0.03237 -0.43203,-0.16994 -0.43203,-0.40463c0,-0.26705 0.16801,-0.40463 0.50404,-0.40463c0.10401,0 0.26402,0 0.50404,0.03237c0.90407,0.06474 1.93615,0.13757 3.06425,0.13757c0.86407,0 1.73614,-0.03237 2.60021,-0.1052c0.33603,-0.06474 0.70406,-0.06474 1.03208,-0.1052c0.33603,0 0.50404,0.13757 0.50404,0.37226c0,0.23468 -0.16801,0.37226 -0.50404,0.437c-0.50404,0.06474 -0.90407,0.40463 -1.10409,0.87399c-0.23202,0.77688 -0.33603,1.55377 -0.30402,2.36302c0,0.30752 0,0.60694 0.032,0.91446c0.032,0.46937 0.06401,0.77688 0.06401,0.9792c0.032,0.23468 -0.032,0.437 -0.16801,0.63931c-0.20002,0.20231 -0.43203,0.33989 -0.70406,0.40463c-0.20002,0.06474 -0.93607,0.40463 -2.20018,0.94683c-1.80014,0.87399 -3.7683,1.35146 -5.76846,1.44857c-2.30418,0.06474 -4.53636,-0.84162 -6.10449,-2.56534c-1.63213,-1.82082 -2.4642,-4.18385 -2.36819,-6.61161c-0.06401,-2.80002 0.90407,-5.52721 2.73622,-7.62318c1.76814,-2.08788 4.26434,-3.23702 6.86455,-3.17228zM55.57245,3.59569v3.0347c-0.032,0.57457 0.032,1.11677 0.20002,1.65088c0.13601,0.23468 0.43203,0.33989 0.90407,0.33989h2.20018c0.93607,-0.03237 1.80014,-0.63931 2.13617,-1.5214l0.33603,-0.67168c0.06401,-0.16994 0.23202,-0.26705 0.40003,-0.26705c0.20002,0 0.30402,0.13757 0.30402,0.37226c0,0.06474 0,0.26705 -0.032,0.60694c-0.032,0.23468 -0.032,0.437 -0.032,0.60694c0,0.30752 0.032,1.01157 0.13601,2.08788c0.06401,0.71214 0.06401,1.35146 0.06401,1.88556l0.032,0.71214c0,0.1052 0,0.16994 -0.032,0.26705c-0.06401,0.06474 -0.13601,0.1052 -0.23202,0.1052c-0.23202,0.03237 -0.36803,-0.16994 -0.43203,-0.5422c-0.06401,-0.67168 -0.36803,-1.31908 -0.83207,-1.82082c-0.23202,-0.23468 -0.56805,-0.37226 -0.86407,-0.437c-0.63205,-0.06474 -1.3041,-0.1052 -1.93615,-0.1052h-0.93607c-0.30402,-0.03237 -0.63205,0.03237 -0.90407,0.20231c-0.20002,0.23468 -0.30402,0.50983 -0.33603,0.80925c-0.06401,0.74451 -0.10401,1.48094 -0.10401,2.22545v1.24625c-0.032,0.94683 0.06401,1.92603 0.30402,2.83239c0.13601,0.71214 0.83207,1.18151 1.53612,1.07631c3.7363,0 6.2005,-1.14914 7.33659,-3.4717c0.06401,-0.1052 0.13601,-0.16994 0.16801,-0.16994c0.10401,-0.03237 0.20002,0.03237 0.26402,0.1052c0.06401,0.06474 0.13601,0.20231 0.13601,0.30752c0,0.94683 -0.26402,1.85319 -0.73606,2.66245c-0.33603,0.67168 -0.86407,1.21388 -1.53612,1.55377c-0.76806,0.33989 -1.60013,0.50983 -2.43219,0.46937c-0.66405,0 -1.3041,-0.03237 -1.96816,-0.1052l-1.60013,-0.13757c-0.60005,-0.06474 -1.40011,-0.1052 -2.40019,-0.1052c-0.66405,0 -1.70414,0.03237 -3.06425,0.13757c-0.36803,0.03237 -0.63205,0.03237 -0.80006,0.03237c-0.16801,0.03237 -0.33603,-0.1052 -0.36803,-0.26705v-0.03237c0,-0.16994 0.10401,-0.30752 0.30402,-0.40463c0.40003,-0.13757 0.76806,-0.33989 1.06409,-0.63931c0.23202,-0.37226 0.40003,-0.77688 0.43203,-1.21388c0.13601,-0.67168 0.16801,-1.35146 0.16801,-2.02314v-11.06251c0.06401,-0.74451 -0.10401,-1.48094 -0.50404,-2.12834c-0.60005,-0.46937 -1.33611,-0.74451 -2.10417,-0.77688c-0.20002,0 -0.36803,-0.16994 -0.36803,-0.40463v0c0,-0.20231 0.16801,-0.33989 0.46404,-0.33989c0.06401,0 0.20002,0 0.43203,0.03237h0.66405l1.40011,0.06474l5.23242,0.06474c3.03224,0 4.86439,-0.03237 5.56845,-0.13757h0.20002c0.26402,0 0.40003,0.16994 0.40003,0.46937c0,0.20231 0.032,0.60694 0.10401,1.14914c0.06401,0.80925 0.10401,1.4162 0.10401,1.75608c0,0.71214 -0.16801,1.07631 -0.53604,1.07631c-0.16801,0 -0.26402,-0.20231 -0.26402,-0.60694c0.06401,-0.80925 -0.33603,-1.58614 -1.00008,-2.02314c-1.00008,-0.46937 -2.13617,-0.71214 -3.23226,-0.60694h-1.70414l-0.93607,0.1052c-0.46404,0.13757 -0.70406,0.60694 -0.70406,1.4162l-0.06401,0.5422zM72.27778,14.05125c-0.10401,1.21388 0.06401,2.46013 0.50404,3.60928c0.40003,0.67168 1.13609,1.07631 1.90415,1.07631c0.40003,0.03237 0.56805,0.20231 0.56805,0.46937c0,0.26705 -0.16801,0.40463 -0.46404,0.40463c-0.10401,0 -0.30402,0 -0.56805,-0.03237c-0.80006,-0.06474 -1.56813,-0.1052 -2.30418,-0.1052c-0.60005,0 -1.16809,0.03237 -1.63213,0.06474l-1.16809,0.1052l-0.93607,0.06474c-0.26402,0.03237 -0.43203,0.03237 -0.53604,0.03237c-0.33603,0 -0.50404,-0.13757 -0.50404,-0.37226c-0.032,-0.16994 0.10401,-0.33989 0.26402,-0.40463c0.50404,-0.1052 0.96808,-0.40463 1.3041,-0.77688c0.26402,-0.437 0.40003,-0.9792 0.36803,-1.5214v-1.31908l0.032,-0.5422v-10.11568c0.06401,-0.77688 -0.06401,-1.55377 -0.43203,-2.25782c-0.53604,-0.67168 -1.36811,-1.07631 -2.20018,-1.11677c-0.36803,-0.06474 -0.56805,-0.23468 -0.56805,-0.46937c-0.032,-0.20231 0.10401,-0.37226 0.30402,-0.40463h0.10401c0.16801,0 0.33603,0 0.50404,0.03237c0.76806,0.06474 1.56813,0.13757 2.33619,0.1052c0.93607,0 2.06417,-0.06474 3.40027,-0.16994c1.56813,-0.13757 2.63221,-0.16994 3.23226,-0.16994c1.56813,-0.06474 3.13625,0.46937 4.36835,1.44857c1.10409,0.87399 1.76814,2.22545 1.73614,3.64165c0,0.91446 -0.26402,1.78845 -0.76806,2.53297c-0.53604,0.77688 -1.2641,1.38383 -2.10417,1.72371c-0.16801,0.06474 -0.26402,0.16994 -0.26402,0.26705c0.032,0.13757 0.06401,0.23468 0.13601,0.33989c0.06401,0.13757 0.20002,0.33989 0.36803,0.63931l1.2321,2.22545l1.43211,2.56534c0.33603,0.67168 0.76806,1.27862 1.3041,1.78845c0.36803,0.33989 0.86407,0.50983 1.36811,0.50983c0.20002,0 0.40003,0 0.60005,-0.06474c0.10401,-0.03237 0.20002,-0.03237 0.30402,-0.03237c0.16801,0 0.26402,0.1052 0.26402,0.33989c0,0.26705 -0.36803,0.57457 -1.13609,0.91446c-0.63205,0.30752 -1.3041,0.50983 -2.00016,0.50983c-1.03208,-0.03237 -2.00016,-0.57457 -2.63221,-1.4162c-1.2321,-1.65088 -2.26418,-3.43933 -3.13625,-5.36536c-0.30402,-0.71214 -0.70406,-1.38383 -1.2321,-1.9584c-0.46404,-0.30752 -1.03208,-0.46937 -1.56813,-0.40463h-0.86407l-0.63205,0.1052c-0.13601,0.06474 -0.20002,0.30752 -0.20002,0.67168l-0.06401,2.83239zM72.27778,3.12632v4.85553c-0.032,0.40463 0.032,0.77688 0.23202,1.14914c0.33603,0.20231 0.70406,0.30752 1.10409,0.23468c1.03208,0.03237 2.03216,0 3.06425,-0.1052c0.40003,-0.06474 0.80006,-0.26705 1.10409,-0.57457c0.70406,-0.63931 1.06409,-1.58614 1.00008,-2.56534c0.06401,-2.59771 -1.93615,-4.79079 -4.53636,-4.85553h-0.33603c-0.46404,-0.06474 -0.93607,0.1052 -1.3041,0.40463c-0.26402,0.40463 -0.40003,0.94683 -0.33603,1.44857v0z" transform="translate(40, 40.02175872070029) rotate(0)" vector-effect="non-scaling-stroke"/></g></svg>