<svg height="104" overflow="visible" viewBox="-2 -2 104 104" width="104" xmlns="http://www.w3.org/2000/svg"><g><defs><path id="path-1746184425946947" d="M49.99999999999997 0 C77.59575122469997 0 99.99999999999994 22.4042487753 99.99999999999994 49.99999999999998 C99.99999999999994 77.59575122469997 77.59575122469997 99.99999999999996 49.99999999999997 99.99999999999996 C22.404248775300005 99.99999999999996 0 77.59575122469997 0 49.99999999999998 C0 22.4042487753 22.404248775300005 0 49.99999999999997 0 Z" vector-effect="non-scaling-stroke"/></defs> <path style="stroke: rgb(72, 92, 117); stroke-width: 2; stroke-linecap: butt; stroke-linejoin: miter; fill: rgb(255, 255, 255);" d="M50 0 C77.59575122470005 0 100 22.404248775299948 100 50 C100 77.59575122470005 77.59575122470005 100 50 100 C22.404248775299948 100 0 77.59575122470005 0 50 C0 22.404248775299948 22.404248775299948 0 50 0 Z" vector-effect="non-scaling-stroke"/></g><g><defs><path id="path-1746184425830491" d="M11.25,0c-6.21094,0 -11.25,5.05092 -11.25,11.25031c0,6.19939 5.02734,11.25031 11.25,11.25031c6.22266,0 11.25,-5.05092 11.25,-11.25031c0,-6.19939 -5.05078,-11.25031 -11.25,-11.25031zM11.25,20.62556c-5.14453,0 -9.375,-4.19543 -9.375,-9.37525c0,-5.19155 4.20703,-9.37525 9.375,-9.37525c5.15625,0 9.375,4.18371 9.375,9.37525c0,5.17983 -4.24219,9.37525 -9.375,9.37525z" vector-effect="non-scaling-stroke"/></defs><path style="stroke-width: 0; stroke-linecap: butt; stroke-linejoin: miter; fill: rgb(154, 206, 29);" d="M11.25,0c-6.21094,0 -11.25,5.05092 -11.25,11.25031c0,6.19939 5.02734,11.25031 11.25,11.25031c6.22266,0 11.25,-5.05092 11.25,-11.25031c0,-6.19939 -5.05078,-11.25031 -11.25,-11.25031zM11.25,20.62556c-5.14453,0 -9.375,-4.19543 -9.375,-9.37525c0,-5.19155 4.20703,-9.37525 9.375,-9.37525c5.15625,0 9.375,4.18371 9.375,9.37525c0,5.17983 -4.24219,9.37525 -9.375,9.37525z" transform="translate(20, 20) rotate(0)" vector-effect="non-scaling-stroke"/></g><g><defs><path id="path-174618442566036" d="M47.66666666663514 0 C47.66666666663514 0 47.66666666663514 0 47.66666666663514 0" vector-effect="non-scaling-stroke"/></defs> <path style="stroke-width: 0; stroke-linecap: butt; stroke-linejoin: miter; fill: rgb(154, 206, 29);" d="M69 20 C69 20 69 20 69 20" vector-effect="non-scaling-stroke"/></g><g><defs><path id="path-174618442565834" d="M11,0c-6.07292,0 -11,5.16302 -11,11.5c0,6.33698 4.91563,11.5 11,11.5c6.08438,0 11,-5.16302 11,-11.5c0,-6.33698 -4.93854,-11.5 -11,-11.5zM11,21.08333c-5.03021,0 -9.16667,-4.28854 -9.16667,-9.58333c0,-5.30677 4.11354,-9.58333 9.16667,-9.58333c5.04167,0 9.16667,4.27656 9.16667,9.58333c0,5.29479 -4.13646,9.58333 -9.16667,9.58333z" vector-effect="non-scaling-stroke"/></defs><path style="stroke-width: 0; stroke-linecap: butt; stroke-linejoin: miter; fill: rgb(154, 206, 29);" d="M11,0c-6.07292,0 -11,5.16302 -11,11.5c0,6.33698 4.91563,11.5 11,11.5c6.08438,0 11,-5.16302 11,-11.5c0,-6.33698 -4.93854,-11.5 -11,-11.5zM11,21.08333c-5.03021,0 -9.16667,-4.28854 -9.16667,-9.58333c0,-5.30677 4.11354,-9.58333 9.16667,-9.58333c5.04167,0 9.16667,4.27656 9.16667,9.58333c0,5.29479 -4.13646,9.58333 -9.16667,9.58333z" transform="translate(58, 20) rotate(0)" vector-effect="non-scaling-stroke"/></g><g><defs><path id="path-1746184425825488" d="M11.250000000000002 3.281339099484956 C10.79296875 3.281339099484956 10.3125 3.586034873008559 10.3125 4.218864556480657 C10.3125 4.218864556480657 10.3125 5.121232808839021 10.3125 5.121232808839021 C8.47265625 5.531400196274641 7.078125000000001 7.136912541379779 7.078125000000001 9.093996932858305 C7.078125000000001 10.476846981926965 7.781250000000001 11.262024552160865 8.613281250000002 11.672191939596486 C9.457031250000002 12.082359327032105 10.34765625 12.140954668094336 11.156250000000002 12.22298814558146 C11.964843750000002 12.305021623068585 12.691406250000002 12.4104932369806 13.06640625 12.59799832837974 C13.30078125 12.726908078716649 13.546875 12.855817829053558 13.546875 13.488647512525656 C13.546875 14.683992470195175 12.5625 15.680113268253107 11.285156250000002 15.691832336465557 C10.207031250000002 15.668394200040666 9.375 15.01212638014367 9.01171875 13.840219558899047 C8.601562500000002 12.656593669441973 6.878906250000001 13.207389875426948 7.218750000000001 14.402734833096467 C7.816406250000001 16.266066678875426 9.082031250000002 17.13327772659645 10.30078125 17.449692568332498 C10.30078125 17.449692568332498 10.30078125 18.270027343203736 10.30078125 18.270027343203736 C10.30078125 19.535686710147935 12.175781250000002 19.48881043729815 12.175781250000002 18.270027343203736 C12.175781250000002 18.270027343203736 12.175781250000002 17.449692568332498 12.175781250000002 17.449692568332498 C14.015625000000002 17.039525180896877 15.41015625 15.42229376757929 15.41015625 13.476928444313211 C15.41015625 12.117516531669445 14.70703125 11.308900825010651 13.875000000000002 10.898733437575032 C13.03125 10.488566050139411 12.140625000000002 10.42997070907718 11.332031250000002 10.347937231590057 C10.5234375 10.265903754102933 9.796875000000002 10.14871307197847 9.421875000000002 9.96120798057933 C9.140625 9.820579162029974 8.941406250000002 9.64479313884328 8.941406250000002 9.070558796433414 C8.941406250000002 7.851775702339001 9.925781250000004 6.890812108918408 11.203125000000002 6.879093040705961 C12.351562500000002 6.925969313555746 13.101562500000002 7.523641792390505 13.476562500000002 8.718986750060026 C13.875000000000002 9.879174503092207 15.5859375 9.386973638169463 15.269531250000002 8.156471475862606 C14.800781250000002 6.691587949306821 13.816406250000002 5.5314001962746415 12.175781250000002 5.109513740626575 C12.175781250000002 5.109513740626575 12.175781250000002 4.218864556480657 12.175781250000002 4.218864556480657 C12.1875 3.597753941221005 11.707031250000002 3.281339099484956 11.250000000000002 3.281339099484956 Z" vector-effect="non-scaling-stroke"/></defs> <path style="stroke-width: 0; stroke-linecap: butt; stroke-linejoin: miter; fill: rgb(154, 206, 29);" d="M31.25 23.281339099484285 C30.79296875 23.281339099484285 30.3125 23.586034873007975 30.3125 24.218864556479957 C30.3125 24.218864556479957 30.3125 25.121232808838386 30.3125 25.121232808838386 C28.47265625 25.531400196274035 27.078125 27.13691254137916 27.078125 29.093996932857635 C27.078125 30.4768469819262 27.78125 31.262024552160256 28.61328125 31.672191939595905 C29.45703125 32.08235932703133 30.34765625 32.14095466809363 31.15625 32.22298814558076 C31.96484375 32.30502162306789 32.69140625 32.410493236979846 33.06640625 32.59799832837916 C33.30078125 32.72690807871595 33.546875 32.85581782905297 33.546875 33.48864751252495 C33.546875 34.683992470194426 32.5625 35.6801132682524 31.28515625 35.69183233646481 C30.20703125 35.668394200039984 29.375 35.012126380142945 29.01171875 33.8402195588983 C28.6015625 32.656593669441236 26.87890625 33.207389875426315 27.21875 34.40273483309579 C27.81640625 36.26606667887472 29.08203125 37.13327772659568 30.30078125 37.449692568331784 C30.30078125 37.449692568331784 30.30078125 38.27002734320308 30.30078125 38.27002734320308 C30.30078125 39.535686710147274 32.17578125 39.48881043729739 32.17578125 38.27002734320308 C32.17578125 38.27002734320308 32.17578125 37.449692568331784 32.17578125 37.449692568331784 C34.015625 37.039525180896135 35.41015625 35.422293767578594 35.41015625 33.476928444312534 C35.41015625 32.1175165316688 34.70703125 31.308900825009914 33.875 30.898733437574265 C33.03125 30.488566050138616 32.140625 30.429970709076542 31.33203125 30.347937231589412 C30.5234375 30.265903754102283 29.796875 30.14871307197768 29.421875 29.961207980578592 C29.140625 29.82057916202939 28.94140625 29.644793138842488 28.94140625 29.070558796432806 C28.94140625 27.851775702338273 29.92578125 26.89081210891777 31.203125 26.879093040705357 C32.3515625 26.925969313555015 33.1015625 27.523641792389753 33.4765625 28.71898675005923 C33.875 29.879174503091463 35.5859375 29.386973638168683 35.26953125 28.156471475861963 C34.80078125 26.69158794930604 33.81640625 25.531400196274035 32.17578125 25.10951374062597 C32.17578125 25.10951374062597 32.17578125 24.218864556479957 32.17578125 24.218864556479957 C32.1875 23.59775394122039 31.70703125 23.281339099484285 31.25 23.281339099484285 Z" vector-effect="non-scaling-stroke"/></g><g><defs><path id="path-1746184425825486" d="M48.74999999999995 3.281339099484956 C48.29296874999995 3.281339099484956 47.81249999999995 3.586034873008559 47.81249999999995 4.218864556480657 C47.81249999999995 4.218864556480657 47.81249999999995 5.121232808839021 47.81249999999995 5.121232808839021 C45.97265624999996 5.531400196274641 44.57812499999995 7.136912541379779 44.57812499999995 9.093996932858305 C44.57812499999995 10.476846981926965 45.28124999999995 11.262024552160865 46.11328124999995 11.672191939596486 C46.95703124999995 12.082359327032105 47.84765624999995 12.140954668094336 48.65624999999994 12.22298814558146 C49.46484374999995 12.305021623068585 50.19140624999995 12.4104932369806 50.56640624999995 12.59799832837974 C50.80078124999995 12.726908078716649 51.04687499999995 12.855817829053558 51.04687499999995 13.488647512525656 C51.04687499999995 14.683992470195175 50.06249999999996 15.680113268253107 48.78515624999996 15.691832336465557 C47.70703124999995 15.668394200040666 46.87499999999995 15.01212638014367 46.51171874999996 13.840219558899047 C46.10156249999996 12.656593669441973 44.378906249999964 13.207389875426948 44.71874999999996 14.402734833096467 C45.31640624999996 16.266066678875426 46.58203124999995 17.13327772659645 47.80078124999995 17.449692568332498 C47.80078124999995 17.449692568332498 47.80078124999995 18.270027343203736 47.80078124999995 18.270027343203736 C47.80078124999995 19.535686710147935 49.67578124999996 19.48881043729815 49.67578124999996 18.270027343203736 C49.67578124999996 18.270027343203736 49.67578124999996 17.449692568332498 49.67578124999996 17.449692568332498 C51.51562499999995 17.039525180896877 52.91015624999995 15.42229376757929 52.91015624999995 13.476928444313211 C52.91015624999995 12.117516531669445 52.20703124999996 11.308900825010651 51.37499999999995 10.898733437575032 C50.53124999999996 10.488566050139411 49.64062499999996 10.42997070907718 48.83203124999996 10.347937231590057 C48.02343749999996 10.265903754102933 47.29687499999995 10.14871307197847 46.92187499999996 9.96120798057933 C46.64062499999996 9.820579162029974 46.44140624999995 9.64479313884328 46.44140624999995 9.070558796433414 C46.44140624999995 7.851775702339001 47.42578124999995 6.890812108918408 48.70312499999995 6.879093040705961 C49.85156249999996 6.925969313555746 50.60156249999995 7.523641792390505 50.97656249999995 8.718986750060026 C51.37499999999994 9.879174503092207 53.08593749999994 9.386973638169463 52.76953124999995 8.156471475862606 C52.30078124999995 6.691587949306821 51.31640624999995 5.5314001962746415 49.67578124999996 5.109513740626575 C49.67578124999996 5.109513740626575 49.67578124999996 4.218864556480657 49.67578124999996 4.218864556480657 C49.68749999999995 3.597753941221005 49.20703124999995 3.281339099484956 48.74999999999995 3.281339099484956 Z" vector-effect="non-scaling-stroke"/></defs> <path style="stroke-width: 0; stroke-linecap: butt; stroke-linejoin: miter; fill: rgb(154, 206, 29);" d="M68.75 23.281339099484285 C68.29296875 23.281339099484285 67.8125 23.586034873007975 67.8125 24.218864556479957 C67.8125 24.218864556479957 67.8125 25.121232808838386 67.8125 25.121232808838386 C65.97265625 25.531400196274035 64.578125 27.13691254137916 64.578125 29.093996932857635 C64.578125 30.4768469819262 65.28125 31.262024552160256 66.11328125 31.672191939595905 C66.95703125 32.08235932703133 67.84765625 32.14095466809363 68.65625 32.22298814558076 C69.46484375 32.30502162306789 70.19140625 32.410493236979846 70.56640625 32.59799832837916 C70.80078125 32.72690807871595 71.046875 32.85581782905297 71.046875 33.48864751252495 C71.046875 34.683992470194426 70.0625 35.6801132682524 68.78515625 35.69183233646481 C67.70703125 35.668394200039984 66.875 35.012126380142945 66.51171875 33.8402195588983 C66.1015625 32.656593669441236 64.37890625 33.207389875426315 64.71875 34.40273483309579 C65.31640625 36.26606667887472 66.58203125 37.13327772659568 67.80078125 37.449692568331784 C67.80078125 37.449692568331784 67.80078125 38.27002734320308 67.80078125 38.27002734320308 C67.80078125 39.535686710147274 69.67578125 39.48881043729739 69.67578125 38.27002734320308 C69.67578125 38.27002734320308 69.67578125 37.449692568331784 69.67578125 37.449692568331784 C71.515625 37.039525180896135 72.91015625 35.422293767578594 72.91015625 33.476928444312534 C72.91015625 32.1175165316688 72.20703125 31.308900825009914 71.375 30.898733437574265 C70.53125 30.488566050138616 69.640625 30.429970709076542 68.83203125 30.347937231589412 C68.0234375 30.265903754102283 67.296875 30.14871307197768 66.921875 29.961207980578592 C66.640625 29.82057916202939 66.44140625 29.644793138842488 66.44140625 29.070558796432806 C66.44140625 27.851775702338273 67.42578125 26.89081210891777 68.703125 26.879093040705357 C69.8515625 26.925969313555015 70.6015625 27.523641792389753 70.9765625 28.71898675005923 C71.375 29.879174503091463 73.0859375 29.386973638168683 72.76953125 28.156471475861963 C72.30078125 26.69158794930604 71.31640625 25.531400196274035 69.67578125 25.10951374062597 C69.67578125 25.10951374062597 69.67578125 24.218864556479957 69.67578125 24.218864556479957 C69.6875 23.59775394122039 69.20703125 23.281339099484285 68.75 23.281339099484285 Z" vector-effect="non-scaling-stroke"/></g><g><defs><path id="path-1746184425825484" d="M31.687500000000167 7.699427815577217 C31.687500000000167 7.699427815577217 32.41406250000017 8.437729112961334 32.41406250000017 8.437729112961334 C32.41406250000017 8.437729112961334 25.312500000000135 8.437729112961334 25.312500000000135 8.437729112961334 C24.05859375000013 8.437729112961334 24.05859375000013 10.31278002695274 25.312500000000135 10.31278002695274 C25.312500000000135 10.31278002695274 34.687500000000185 10.31278002695274 34.687500000000185 10.31278002695274 C35.5195312500002 10.31278002695274 35.9414062500002 9.30494016068236 35.35546875000019 8.718986750060045 C35.35546875000019 8.718986750060045 33.01171875000018 6.375173107570786 33.01171875000018 6.375173107570786 C32.12109375000018 5.484523923424867 30.808593750000163 6.820497699643744 31.687500000000167 7.699427815577217 Z" vector-effect="non-scaling-stroke"/></defs> <path style="stroke-width: 0; stroke-linecap: butt; stroke-linejoin: miter; fill: rgb(84, 117, 130);" d="M51.6875 27.699427815576428 C51.6875 27.699427815576428 52.4140625 28.437729112960596 52.4140625 28.437729112960596 C52.4140625 28.437729112960596 45.3125 28.437729112960596 45.3125 28.437729112960596 C44.05859375 28.437729112960596 44.05859375 30.31278002695217 45.3125 30.31278002695217 C45.3125 30.31278002695217 54.6875 30.31278002695217 54.6875 30.31278002695217 C55.51953125 30.31278002695217 55.94140625 29.30494016068178 55.35546875 28.718986750059457 C55.35546875 28.718986750059457 53.01171875 26.375173107570163 53.01171875 26.375173107570163 C52.12109375 25.48452392342415 50.80859375 26.820497699643056 51.6875 27.699427815576428 Z" vector-effect="non-scaling-stroke"/></g><g><defs><path id="path-1746184425824482" d="M25.31250000000005 12.187830940943918 C24.468750000000053 12.187830940943918 24.04687500000005 13.19567080721428 24.644531250000053 13.79334328604903 C24.644531250000053 13.79334328604903 26.964843750000057 16.101999723900907 26.964843750000057 16.101999723900907 C27.89062500000006 17.016087044471703 29.21484375000006 15.691832336465296 28.28906250000006 14.766025947682053 C28.28906250000006 14.766025947682053 27.57421875000006 14.06288185493529 27.57421875000006 14.06288185493529 C27.57421875000006 14.06288185493529 34.68750000000007 14.06288185493529 34.68750000000007 14.06288185493529 C35.94140625000007 14.06288185493529 35.94140625000007 12.187830940943918 34.68750000000007 12.187830940943918 C34.68750000000007 12.187830940943918 25.31250000000005 12.187830940943918 25.31250000000005 12.187830940943918 Z" vector-effect="non-scaling-stroke"/></defs> <path style="stroke-width: 0; stroke-linecap: butt; stroke-linejoin: miter; fill: rgb(84, 117, 130);" d="M45.3125 32.18783094094397 C44.46875 32.18783094094397 44.046875 33.195670807214356 44.64453125 33.793343286049094 C44.64453125 33.793343286049094 46.96484375 36.10199972390092 46.96484375 36.10199972390092 C47.890625 37.01608704447176 49.21484375 35.69183233646527 48.2890625 34.76602594768201 C48.2890625 34.76602594768201 47.57421875 34.06288185493531 47.57421875 34.06288185493531 C47.57421875 34.06288185493531 54.6875 34.06288185493531 54.6875 34.06288185493531 C55.94140625 34.06288185493531 55.94140625 32.18783094094397 54.6875 32.18783094094397 C54.6875 32.18783094094397 45.3125 32.18783094094397 45.3125 32.18783094094397 Z" vector-effect="non-scaling-stroke"/></g><g><defs><path id="path-1746184425823480" d="M59.68239,14.77992c-2.63672,-4.53528 -5.27344,-9.05884 -7.88672,-13.59412c-0.63281,-1.10159 -2.15625,-1.57036 -3.45703,-0.82033v0l-4.30078,2.461c-1.20703,0.69143 -1.71094,2.20318 -1.01953,3.39853l0.11719,0.18751c-1.95703,0.69143 -3.98437,0.52736 -5.46094,0.28126c-2.42578,-0.43361 -5.21484,-0.51564 -7.71094,-0.23438c-1.88672,0.19922 -4.88672,0.80862 -6.22266,2.48444l-6.01172,-1.19534l0.08203,-0.15235c0.71484,-1.21878 0.31641,-2.80086 -0.94922,-3.51572l-4.28906,-2.461c-1.24219,-0.71486 -2.83594,-0.28126 -3.53906,0.93753l-8.68359,14.94181c-0.72656,1.25394 -0.28125,2.81258 0.94922,3.51572l4.28906,2.461c1.24219,0.71486 2.74219,0.2461 3.38672,-0.71486l2.41406,1.80474c-0.77344,1.42973 -0.24609,3.19931 1.14844,4.00792c0.41016,0.23438 0.84375,0.36329 1.28906,0.38673c-0.19922,1.19534 0.35156,2.44929 1.46484,3.08211c0.89063,0.51564 1.93359,0.51564 2.80078,0.10547c0.29297,0.57423 0.65625,0.93753 1.18359,1.24222c0.89063,0.51564 1.94531,0.51564 2.8125,0.10547c0.25781,0.50392 0.65625,0.94924 1.18359,1.24222c1.42969,0.82033 3.28125,0.32813 4.10156,-1.10159l0.45703,-0.77346c1.03125,0.59767 2.0625,1.18363 3.09375,1.7813c1.44141,0.83205 3.26953,0.32813 4.10156,-1.08987c0.19922,-0.35157 0.32813,-0.71486 0.375,-1.10159c1.40625,0.63283 3.05859,0.10547 3.83203,-1.2305c0.23438,-0.41017 0.375,-0.84377 0.39844,-1.2891c1.20703,0.21094 2.44922,-0.32813 3.09375,-1.44145c0.19922,-0.35157 0.33984,-0.72658 0.38672,-1.11331c1.40625,0.63283 3.05859,0.10547 3.83203,-1.2305c0.65625,-1.07815 0.36328,-2.2735 0.19922,-2.61335l3.77344,-3.7501c0.70313,1.21878 2.28516,1.51176 3.48047,0.83205l4.30078,-2.461c1.17188,-0.67971 1.67578,-2.17975 0.98438,-3.37509zM7.4988,21.61214c-0.1875,0.32813 -0.60937,0.45704 -0.97266,0.25782c0,0 -2.85937,-1.64067 -4.28906,-2.461c-0.32812,-0.18751 -0.46875,-0.60939 -0.25781,-0.96096c0.16406,-0.29298 5.78906,-9.94949 8.67188,-14.94181c0.19922,-0.35157 0.63281,-0.45704 0.97266,-0.25782c1.42969,0.82033 3.99609,2.29694 4.28906,2.461c0.35156,0.19922 0.46875,0.62111 0.25781,0.97268c-2.88281,4.96888 -8.50781,14.63712 -8.67187,14.93009zM15.43239,25.84272l-0.41016,0.71486c-0.31641,0.5508 -1.00781,0.71486 -1.53516,0.41017c-0.52734,-0.3047 -0.72656,-0.9844 -0.41016,-1.5352l0.41016,-0.71486c0.29297,-0.51564 0.96094,-0.7383 1.53516,-0.39845c0.52734,0.3047 0.72656,0.97268 0.41016,1.52348zM17.76442,30.02643c-0.31641,0.5508 -0.99609,0.71486 -1.53516,0.41017c-0.52734,-0.3047 -0.73828,-0.97268 -0.42187,-1.52348c0.85547,-1.48832 1.59375,-2.74226 2.47266,-4.26574c0.29297,-0.51564 0.96094,-0.7383 1.54688,-0.41017c0.52734,0.3047 0.72656,0.97268 0.41016,1.52348c-0.84375,1.45316 -1.73437,3.00008 -2.47266,4.26574zM23.40114,28.52639c-0.55078,0.94924 -1.10156,1.89849 -1.65234,2.83601c-0.31641,0.5508 -1.00781,0.71486 -1.53516,0.41017c-0.52734,-0.3047 -0.73828,-0.9844 -0.41016,-1.52348l1.65234,-2.83601c0.29297,-0.51564 0.98438,-0.72658 1.54688,-0.41017c0.51563,0.3047 0.72656,0.97268 0.39844,1.52348zM26.57692,31.28037l-0.83203,1.42973c-0.31641,0.5508 -1.01953,0.71486 -1.53516,0.41017c-0.51562,-0.3047 -0.72656,-0.9844 -0.41016,-1.5352l0.82031,-1.41801c0.29297,-0.50392 0.96094,-0.7383 1.53516,-0.39845c0.53906,0.3047 0.73828,0.97268 0.42188,1.51176zM45.3152,25.22161c-0.30469,0.52736 -0.98437,0.72658 -1.54687,0.41017c-3.65625,-2.09771 -9.31641,-5.33218 -10.91016,-6.25798c-1.07812,-0.62111 -2.01562,1.00784 -0.9375,1.62895l8.76563,5.02748c0.55078,0.31641 0.71484,0.99612 0.41016,1.52348c-0.30469,0.52736 -0.98437,0.72658 -1.54687,0.41017c-2.49609,-1.44145 -5.00391,-2.87117 -7.51172,-4.31262c-1.08984,-0.62111 -2.01562,1.00784 -0.9375,1.62895c2.02734,1.16019 4.05469,2.32038 6.08203,3.49228c0.55078,0.31641 0.70313,0.99612 0.41016,1.52348c-0.30469,0.52736 -0.98437,0.72658 -1.54687,0.41017c-1.66406,-0.96096 -3.33984,-1.91021 -5.00391,-2.87117c-1.07812,-0.62111 -2.01562,1.00784 -0.9375,1.62895c0.94922,0.5508 1.91016,1.08987 2.85938,1.64067c0.55078,0.31641 0.71484,1.00784 0.41016,1.52348c-0.30469,0.51564 -0.99609,0.72658 -1.54687,0.41017c-1.08984,-0.63283 -2.17969,-1.25394 -3.26953,-1.87505c0.15234,-1.16019 -0.375,-2.35553 -1.47656,-3.00008c-0.52734,-0.3047 -1.10156,-0.43361 -1.67578,-0.39845c-0.07031,-0.96096 -0.59766,-1.85161 -1.48828,-2.36725c-0.52734,-0.3047 -1.10156,-0.43361 -1.67578,-0.39845c-0.07031,-0.96096 -0.60937,-1.85161 -1.5,-2.36725c-1.33594,-0.77346 -3.03516,-0.41017 -3.9375,0.84377c-0.23437,-0.3047 -0.51562,-0.5508 -0.87891,-0.76174c-1.16016,-0.66799 -2.56641,-0.48048 -3.49219,0.33985l-2.53125,-1.88677l6.78516,-11.68391l5.76563,1.14847c-0.48047,0.7383 -0.94922,1.54692 -1.35937,2.37897c-0.42187,0.84377 -0.77344,1.69926 -0.99609,2.49616c-0.1875,0.71486 -0.36328,1.57036 -0.07031,2.34381c0.35156,0.91409 1.16016,1.42973 2.14453,1.39457c0.86719,-0.02344 1.74609,-0.39845 2.55469,-0.86721c1.47656,-0.86721 3.04688,-2.2735 4.25391,-3.77354l15.86719,9.10572c0.60938,0.31641 0.77344,0.9844 0.46875,1.51176zM45.90114,22.11606l-16.66406,-9.56276c-0.42187,-0.2461 -0.94922,-0.12891 -1.23047,0.26954c-1.07812,1.5352 -2.77734,3.09383 -4.18359,3.91417c-0.70312,0.41017 -1.32422,0.60939 -1.64062,0.62111c-0.21094,0 -0.32812,0 -0.38672,-0.26954c-0.02344,-0.08203 -0.02344,-0.52736 0.15234,-1.10159c0.17578,-0.62111 0.48047,-1.38285 0.86719,-2.15631c0.76172,-1.54692 1.93359,-3.29306 2.48438,-3.84385c0.83203,-0.83205 2.57812,-1.40629 4.86328,-1.66411c2.28516,-0.25782 4.95703,-0.17579 7.17188,0.22266c2.44922,0.43361 4.33594,0.22266 5.625,-0.11719c0.375,-0.10547 0.73828,-0.21094 1.11328,-0.37501v0c1.96875,3.37509 3.87891,6.69159 5.82422,10.09012c-1.25391,1.25394 -3,2.98836 -3.99609,3.97276zM57.72536,16.5495c-1.42969,0.82033 -4.03125,2.32038 -4.30078,2.461c-0.36328,0.21094 -0.76172,0.10547 -0.90234,-0.12891c-0.15234,-0.25782 -5.22656,-9.08228 -7.89844,-13.59412c-0.14062,-0.23438 -0.03516,-0.62111 0.33984,-0.84377c1.42969,-0.82033 4.30078,-2.461 4.30078,-2.461c0.41016,-0.23438 0.77344,-0.09375 0.90234,0.12891v0c0.16406,0.28126 5.26172,9.05884 7.88672,13.59412c0.14063,0.23438 0.02344,0.63283 -0.32812,0.84377z" vector-effect="non-scaling-stroke"/></defs><path style="stroke-width: 0; stroke-linecap: butt; stroke-linejoin: miter; fill: rgb(84, 117, 130);" d="M59.68239,14.77992c-2.63672,-4.53528 -5.27344,-9.05884 -7.88672,-13.59412c-0.63281,-1.10159 -2.15625,-1.57036 -3.45703,-0.82033v0l-4.30078,2.461c-1.20703,0.69143 -1.71094,2.20318 -1.01953,3.39853l0.11719,0.18751c-1.95703,0.69143 -3.98437,0.52736 -5.46094,0.28126c-2.42578,-0.43361 -5.21484,-0.51564 -7.71094,-0.23438c-1.88672,0.19922 -4.88672,0.80862 -6.22266,2.48444l-6.01172,-1.19534l0.08203,-0.15235c0.71484,-1.21878 0.31641,-2.80086 -0.94922,-3.51572l-4.28906,-2.461c-1.24219,-0.71486 -2.83594,-0.28126 -3.53906,0.93753l-8.68359,14.94181c-0.72656,1.25394 -0.28125,2.81258 0.94922,3.51572l4.28906,2.461c1.24219,0.71486 2.74219,0.2461 3.38672,-0.71486l2.41406,1.80474c-0.77344,1.42973 -0.24609,3.19931 1.14844,4.00792c0.41016,0.23438 0.84375,0.36329 1.28906,0.38673c-0.19922,1.19534 0.35156,2.44929 1.46484,3.08211c0.89063,0.51564 1.93359,0.51564 2.80078,0.10547c0.29297,0.57423 0.65625,0.93753 1.18359,1.24222c0.89063,0.51564 1.94531,0.51564 2.8125,0.10547c0.25781,0.50392 0.65625,0.94924 1.18359,1.24222c1.42969,0.82033 3.28125,0.32813 4.10156,-1.10159l0.45703,-0.77346c1.03125,0.59767 2.0625,1.18363 3.09375,1.7813c1.44141,0.83205 3.26953,0.32813 4.10156,-1.08987c0.19922,-0.35157 0.32813,-0.71486 0.375,-1.10159c1.40625,0.63283 3.05859,0.10547 3.83203,-1.2305c0.23438,-0.41017 0.375,-0.84377 0.39844,-1.2891c1.20703,0.21094 2.44922,-0.32813 3.09375,-1.44145c0.19922,-0.35157 0.33984,-0.72658 0.38672,-1.11331c1.40625,0.63283 3.05859,0.10547 3.83203,-1.2305c0.65625,-1.07815 0.36328,-2.2735 0.19922,-2.61335l3.77344,-3.7501c0.70313,1.21878 2.28516,1.51176 3.48047,0.83205l4.30078,-2.461c1.17188,-0.67971 1.67578,-2.17975 0.98438,-3.37509zM7.4988,21.61214c-0.1875,0.32813 -0.60937,0.45704 -0.97266,0.25782c0,0 -2.85937,-1.64067 -4.28906,-2.461c-0.32812,-0.18751 -0.46875,-0.60939 -0.25781,-0.96096c0.16406,-0.29298 5.78906,-9.94949 8.67188,-14.94181c0.19922,-0.35157 0.63281,-0.45704 0.97266,-0.25782c1.42969,0.82033 3.99609,2.29694 4.28906,2.461c0.35156,0.19922 0.46875,0.62111 0.25781,0.97268c-2.88281,4.96888 -8.50781,14.63712 -8.67187,14.93009zM15.43239,25.84272l-0.41016,0.71486c-0.31641,0.5508 -1.00781,0.71486 -1.53516,0.41017c-0.52734,-0.3047 -0.72656,-0.9844 -0.41016,-1.5352l0.41016,-0.71486c0.29297,-0.51564 0.96094,-0.7383 1.53516,-0.39845c0.52734,0.3047 0.72656,0.97268 0.41016,1.52348zM17.76442,30.02643c-0.31641,0.5508 -0.99609,0.71486 -1.53516,0.41017c-0.52734,-0.3047 -0.73828,-0.97268 -0.42187,-1.52348c0.85547,-1.48832 1.59375,-2.74226 2.47266,-4.26574c0.29297,-0.51564 0.96094,-0.7383 1.54688,-0.41017c0.52734,0.3047 0.72656,0.97268 0.41016,1.52348c-0.84375,1.45316 -1.73437,3.00008 -2.47266,4.26574zM23.40114,28.52639c-0.55078,0.94924 -1.10156,1.89849 -1.65234,2.83601c-0.31641,0.5508 -1.00781,0.71486 -1.53516,0.41017c-0.52734,-0.3047 -0.73828,-0.9844 -0.41016,-1.52348l1.65234,-2.83601c0.29297,-0.51564 0.98438,-0.72658 1.54688,-0.41017c0.51563,0.3047 0.72656,0.97268 0.39844,1.52348zM26.57692,31.28037l-0.83203,1.42973c-0.31641,0.5508 -1.01953,0.71486 -1.53516,0.41017c-0.51562,-0.3047 -0.72656,-0.9844 -0.41016,-1.5352l0.82031,-1.41801c0.29297,-0.50392 0.96094,-0.7383 1.53516,-0.39845c0.53906,0.3047 0.73828,0.97268 0.42188,1.51176zM45.3152,25.22161c-0.30469,0.52736 -0.98437,0.72658 -1.54687,0.41017c-3.65625,-2.09771 -9.31641,-5.33218 -10.91016,-6.25798c-1.07812,-0.62111 -2.01562,1.00784 -0.9375,1.62895l8.76563,5.02748c0.55078,0.31641 0.71484,0.99612 0.41016,1.52348c-0.30469,0.52736 -0.98437,0.72658 -1.54687,0.41017c-2.49609,-1.44145 -5.00391,-2.87117 -7.51172,-4.31262c-1.08984,-0.62111 -2.01562,1.00784 -0.9375,1.62895c2.02734,1.16019 4.05469,2.32038 6.08203,3.49228c0.55078,0.31641 0.70313,0.99612 0.41016,1.52348c-0.30469,0.52736 -0.98437,0.72658 -1.54687,0.41017c-1.66406,-0.96096 -3.33984,-1.91021 -5.00391,-2.87117c-1.07812,-0.62111 -2.01562,1.00784 -0.9375,1.62895c0.94922,0.5508 1.91016,1.08987 2.85938,1.64067c0.55078,0.31641 0.71484,1.00784 0.41016,1.52348c-0.30469,0.51564 -0.99609,0.72658 -1.54687,0.41017c-1.08984,-0.63283 -2.17969,-1.25394 -3.26953,-1.87505c0.15234,-1.16019 -0.375,-2.35553 -1.47656,-3.00008c-0.52734,-0.3047 -1.10156,-0.43361 -1.67578,-0.39845c-0.07031,-0.96096 -0.59766,-1.85161 -1.48828,-2.36725c-0.52734,-0.3047 -1.10156,-0.43361 -1.67578,-0.39845c-0.07031,-0.96096 -0.60937,-1.85161 -1.5,-2.36725c-1.33594,-0.77346 -3.03516,-0.41017 -3.9375,0.84377c-0.23437,-0.3047 -0.51562,-0.5508 -0.87891,-0.76174c-1.16016,-0.66799 -2.56641,-0.48048 -3.49219,0.33985l-2.53125,-1.88677l6.78516,-11.68391l5.76563,1.14847c-0.48047,0.7383 -0.94922,1.54692 -1.35937,2.37897c-0.42187,0.84377 -0.77344,1.69926 -0.99609,2.49616c-0.1875,0.71486 -0.36328,1.57036 -0.07031,2.34381c0.35156,0.91409 1.16016,1.42973 2.14453,1.39457c0.86719,-0.02344 1.74609,-0.39845 2.55469,-0.86721c1.47656,-0.86721 3.04688,-2.2735 4.25391,-3.77354l15.86719,9.10572c0.60938,0.31641 0.77344,0.9844 0.46875,1.51176zM45.90114,22.11606l-16.66406,-9.56276c-0.42187,-0.2461 -0.94922,-0.12891 -1.23047,0.26954c-1.07812,1.5352 -2.77734,3.09383 -4.18359,3.91417c-0.70312,0.41017 -1.32422,0.60939 -1.64062,0.62111c-0.21094,0 -0.32812,0 -0.38672,-0.26954c-0.02344,-0.08203 -0.02344,-0.52736 0.15234,-1.10159c0.17578,-0.62111 0.48047,-1.38285 0.86719,-2.15631c0.76172,-1.54692 1.93359,-3.29306 2.48438,-3.84385c0.83203,-0.83205 2.57812,-1.40629 4.86328,-1.66411c2.28516,-0.25782 4.95703,-0.17579 7.17188,0.22266c2.44922,0.43361 4.33594,0.22266 5.625,-0.11719c0.375,-0.10547 0.73828,-0.21094 1.11328,-0.37501v0c1.96875,3.37509 3.87891,6.69159 5.82422,10.09012c-1.25391,1.25394 -3,2.98836 -3.99609,3.97276zM57.72536,16.5495c-1.42969,0.82033 -4.03125,2.32038 -4.30078,2.461c-0.36328,0.21094 -0.76172,0.10547 -0.90234,-0.12891c-0.15234,-0.25782 -5.22656,-9.08228 -7.89844,-13.59412c-0.14062,-0.23438 -0.03516,-0.62111 0.33984,-0.84377c1.42969,-0.82033 4.30078,-2.461 4.30078,-2.461c0.41016,-0.23438 0.77344,-0.09375 0.90234,0.12891v0c0.16406,0.28126 5.26172,9.05884 7.88672,13.59412c0.14063,0.23438 0.02344,0.63283 -0.32812,0.84377z" transform="translate(20.001203280945447, 44.86568746798457) rotate(0)" vector-effect="non-scaling-stroke"/></g></svg>