<svg height="104" overflow="visible" viewBox="-2 -2 104 104" width="104" xmlns="http://www.w3.org/2000/svg"><g><defs><path id="path-1746184425943944" d="M49.99999999999997 0 C77.59575122469997 0 99.99999999999994 22.4042487753 99.99999999999994 49.99999999999998 C99.99999999999994 77.59575122469997 77.59575122469997 99.99999999999996 49.99999999999997 99.99999999999996 C22.404248775300005 99.99999999999996 0 77.59575122469997 0 49.99999999999998 C0 22.4042487753 22.404248775300005 0 49.99999999999997 0 Z" vector-effect="non-scaling-stroke"/></defs> <path style="stroke: rgb(72, 92, 117); stroke-width: 2; stroke-linecap: butt; stroke-linejoin: miter; fill: rgb(255, 255, 255);" d="M50 0 C77.59575122469994 0 100 22.404248775299948 100 50 C100 77.59575122470005 77.59575122469994 100 50 100 C22.404248775299948 100 0 77.59575122470005 0 50 C0 22.404248775299948 22.404248775299948 0 50 0 Z" vector-effect="non-scaling-stroke"/></g><g><defs><path id="path-1746184425823478" d="M16,32.03905c8.81871,0 15.9883,-7.18359 15.9883,-16.01953c0,-8.83594 -7.18129,-16.01953 -15.9883,-16.01953c-8.80702,0 -16,7.18359 -16,16.01953c0,8.83594 7.18129,16.01953 16,16.01953zM16,1.75781c7.84795,0 14.23392,6.39844 14.23392,14.26172c0,7.86328 -6.38596,14.26172 -14.23392,14.26172c-7.84795,0 -14.23392,-6.39844 -14.23392,-14.26172c0,-7.86328 6.38596,-14.26172 14.23392,-14.26172z" vector-effect="non-scaling-stroke"/></defs><path style="stroke-width: 0; stroke-linecap: butt; stroke-linejoin: miter; fill: rgb(154, 206, 29);" d="M16,32.03905c8.81871,0 15.9883,-7.18359 15.9883,-16.01953c0,-8.83594 -7.18129,-16.01953 -15.9883,-16.01953c-8.80702,0 -16,7.18359 -16,16.01953c0,8.83594 7.18129,16.01953 16,16.01953zM16,1.75781c7.84795,0 14.23392,6.39844 14.23392,14.26172c0,7.86328 -6.38596,14.26172 -14.23392,14.26172c-7.84795,0 -14.23392,-6.39844 -14.23392,-14.26172c0,-7.86328 6.38596,-14.26172 14.23392,-14.26172z" transform="translate(34.21052631578959, 20.000009999999975) rotate(0)" vector-effect="non-scaling-stroke"/></g><g><defs><path id="path-1746184425823476" d="M30.15204678362538 27.60936844277483 C36.52631578947326 27.60936844277483 41.71929824561356 22.406244678516757 41.71929824561356 16.019527445362133 C41.71929824561356 9.632810212207515 36.526315789473266 4.42968644794944 30.152046783625384 4.42968644794944 C27.274853801169282 4.42968644794944 24.51461988304066 5.496092444678011 22.38596491228045 7.429685735449593 C22.02339181286525 7.757810657519921 21.99999999999975 8.3085917767094 22.327485380116705 8.671872940430124 C22.654970760233667 9.035154104150845 23.204678362572835 9.05859159858444 23.567251461988036 8.73046667651411 C25.36842105263129 7.089842066162466 27.70760233918097 6.187498530469061 30.152046783625384 6.187498530469061 C35.55555555555515 6.187498530469061 39.95321637426856 10.593747483984908 39.95321637426856 16.007808698145336 C39.95321637426856 21.421869912305763 35.55555555555515 25.828118865821615 30.152046783625384 25.828118865821615 C24.74853801169563 25.828118865821615 20.350877192982225 21.42186991230577 20.350877192982225 16.007808698145336 C20.350877192982225 14.36718408779369 20.76023391812842 12.74999697187564 21.532163742689814 11.320309811426348 C21.766081871344785 10.898434911621642 21.602339181286307 10.359372539648957 21.181286549707362 10.124997595313006 C20.76023391812842 9.890622650977058 20.222222222221998 10.054685112012221 19.988304093567027 10.47656001181693 C19.07602339181265 12.164059611035766 18.596491228069965 14.074215407373755 18.596491228069965 15.996089950928537 C18.584795321637213 22.406244678516757 23.766081871344753 27.60936844277483 30.15204678362538 27.60936844277483 Z" vector-effect="non-scaling-stroke"/></defs> <path style="stroke-width: 0; stroke-linecap: butt; stroke-linejoin: miter; fill: rgb(84, 117, 130);" d="M50.210526315789366 47.60937844277464 C56.58479532163733 47.60937844277464 61.7777777777776 42.40625467851646 61.7777777777776 36.01953744536195 C61.7777777777776 29.632820212207207 56.58479532163733 24.429696447949254 50.210526315789366 24.429696447949254 C47.33333333333326 24.429696447949254 44.57309941520464 25.496102444677717 42.44444444444446 27.429695735449286 C42.0818713450293 27.757820657519687 42.0584795321638 28.30860177670911 42.38596491228077 28.671882940429896 C42.71345029239774 29.03516410415068 43.26315789473688 29.05860159858412 43.625730994152036 28.730476676513945 C45.42690058479536 27.089852066162166 47.76608187134502 26.187508530468904 50.210526315789366 26.187508530468904 C55.61403508771923 26.187508530468904 60.01169590643258 30.593757483984746 60.01169590643258 36.007818698145 C60.01169590643258 41.421879912305485 55.61403508771923 45.82812886582133 50.210526315789366 45.82812886582133 C44.807017543859615 45.82812886582133 40.40935672514627 41.421879912305485 40.40935672514627 36.007818698145 C40.40935672514627 34.36719408779345 40.81871345029242 32.75000697187534 41.590643274853846 31.32031981142609 C41.824561403508824 30.898444911621482 41.66081871345034 30.359382539648777 41.23976608187138 30.12500759531281 C40.81871345029242 29.89063265097684 40.28070175438597 30.05469511201204 40.04678362573111 30.476570011816648 C39.1345029239767 32.16406961103553 38.65497076023394 34.07422540737343 38.65497076023394 35.99609995092828 C38.643274853801245 42.40625467851646 43.824561403508824 47.60937844277464 50.210526315789366 47.60937844277464 Z" vector-effect="non-scaling-stroke"/></g><g><defs><path id="path-1746184425822474" d="M29.812865497076196 20.16796396010815 C28.432748538011854 20.085932729590567 28.0584795321639 19.253901677197955 27.98830409356741 19.0546829745124 C27.883040935672675 18.67968306357489 27.54385964912296 18.398433130371753 27.13450292397676 18.398433130371753 C26.643274853801323 18.398433130371753 26.257309941520617 18.796870535742862 26.257309941520617 19.27733917163155 C26.257309941520617 19.34765165493233 26.269005847953366 19.417964138233117 26.28070175438611 19.488276621533906 C26.28070175438611 19.488276621533906 26.28070175438611 19.488276621533906 26.28070175438611 19.488276621533906 C26.28070175438611 19.488276621533906 26.28070175438611 19.499995368750703 26.28070175438611 19.499995368750703 C26.29239766081886 19.54687035761789 26.304093567251606 19.58202659926828 26.315789473684358 19.617182840918677 C26.479532163742842 20.062495235156973 27.13450292397676 21.457026153955848 29.052631578947533 21.832026064893363 C29.052631578947533 21.832026064893363 29.052631578947533 23.00390078657309 29.052631578947533 23.00390078657309 C29.052631578947533 23.48436942246178 29.450292397660988 23.88280682783289 29.929824561403677 23.88280682783289 C30.421052631579126 23.88280682783289 30.80701754385982 23.48436942246178 30.80701754385982 23.00390078657309 C30.80701754385982 23.00390078657309 30.80701754385982 21.855463559326953 30.80701754385982 21.855463559326953 C31.649122807017715 21.70311984550859 32.21052631578966 21.339838681787874 32.56140350877211 21.011713759717555 C33.21637426900603 20.390620157227293 33.614035087719486 19.453120379883508 33.614035087719486 18.50390185532293 C33.614035087719486 17.613277066846337 33.26315789473703 15.492183820606027 30.03508771929841 15.140621404102108 C29.391812865497236 15.070308920801324 28.93567251462004 14.87109021811577 28.678362573099573 14.531246548828648 C28.444444444444603 14.238277868408716 28.421052631579105 13.91015294633839 28.421052631579105 13.792965474170419 C28.421052631579105 13.640621760352055 28.4678362573101 12.281247083203567 29.929824561403677 12.281247083203567 C30.88888888888906 12.281247083203567 31.286549707602518 12.890621938477027 31.356725146199004 13.031246905078595 C31.48538011695924 13.359371827148918 31.801169590643454 13.582028024268068 32.17543859649141 13.582028024268068 C32.66666666666685 13.582028024268068 33.05263157894755 13.18359061889696 33.05263157894755 12.70312198300827 C33.05263157894755 12.562497016406702 33.0175438596493 12.421872049805135 32.95906432748556 12.304684577637161 C32.95906432748556 12.304684577637161 32.95906432748556 12.304684577637161 32.95906432748556 12.304684577637161 C32.71345029239784 11.765622205664487 32.01169590643292 10.921872406055082 30.80701754385982 10.628903725635148 C30.80701754385982 10.628903725635148 30.80701754385982 9.445310256738619 30.80701754385982 9.445310256738619 C30.80701754385982 8.953122873633133 30.409356725146374 8.566404215478823 29.929824561403677 8.566404215478823 C29.450292397660984 8.566404215478823 29.05263157894753 8.964841620849931 29.05263157894753 9.445310256738619 C29.05263157894753 9.445310256738619 29.05263157894753 10.628903725635146 29.05263157894753 10.628903725635146 C27.321637426900736 11.039059878223053 26.666666666666817 12.656246994141078 26.666666666666817 13.804684221387214 C26.666666666666817 15.070308920801322 27.49707602339197 16.64062104785216 29.84795321637444 16.9101522338385 C31.871345029239944 17.13280843095765 31.871345029239944 18.17577693325261 31.871345029239944 18.527339349756527 C31.871345029239944 18.89062051347724 31.74269005847971 19.406245391016324 31.38011695906451 19.746089060303447 C31.017543859649294 20.06249523515697 30.50292397660836 20.214838948975338 29.812865497076196 20.16796396010815 C29.812865497076196 20.16796396010815 29.812865497076196 20.16796396010815 29.812865497076196 20.16796396010815 Z" vector-effect="non-scaling-stroke"/></defs> <path style="stroke-width: 0; stroke-linecap: butt; stroke-linejoin: miter; fill: rgb(154, 206, 29);" d="M49.87134502923982 40.167973960108384 C48.49122807017545 40.08594272959067 48.11695906432749 39.253911677198175 48.046783625730995 39.05469297451259 C47.9415204678362 38.67969306357509 47.60233918128654 38.398443130372016 47.192982456140385 38.398443130372016 C46.70175438596493 38.398443130372016 46.31578947368416 38.79688053574296 46.31578947368416 39.27734917163184 C46.31578947368416 39.34766165493261 46.32748538011697 39.417974138233376 46.33918128654966 39.488286621534144 C46.33918128654966 39.488286621534144 46.33918128654966 39.488286621534144 46.33918128654966 39.488286621534144 C46.33918128654966 39.488286621534144 46.33918128654966 39.50000536875086 46.33918128654966 39.50000536875086 C46.350877192982466 39.54688035761819 46.36257309941516 39.58203659926858 46.374269005847964 39.61719284091896 C46.53801169590645 40.06250523515723 47.192982456140385 41.457036153956096 49.111111111111086 41.8320360648936 C49.111111111111086 41.8320360648936 49.111111111111086 43.003910786573215 49.111111111111086 43.003910786573215 C49.111111111111086 43.48437942246187 49.50877192982455 43.88281682783304 49.988304093567194 43.88281682783304 C50.47953216374265 43.88281682783304 50.865497076023416 43.48437942246187 50.865497076023416 43.003910786573215 C50.865497076023416 43.003910786573215 50.865497076023416 41.855473559327265 50.865497076023416 41.855473559327265 C51.707602339181335 41.70312984550878 52.26900584795328 41.339848681788 52.61988304093563 41.011723759717825 C53.27485380116957 40.390630157227406 53.67251461988303 39.45313037988376 53.67251461988303 38.50391185532317 C53.67251461988303 37.613287066846624 53.321637426900566 35.49219382060619 50.09356725146199 35.14063140410235 C49.45029239766086 35.07031892080158 48.9941520467836 34.871100218116 48.73684210526312 34.53125654882888 C48.502923976608145 34.23828786840886 48.47953216374265 33.91016294633869 48.47953216374265 33.79297547417059 C48.47953216374265 33.640631760352335 48.52631578947364 32.281257083203855 49.988304093567194 32.281257083203855 C50.9473684210526 32.281257083203855 51.34502923976606 32.89063193847733 51.41520467836256 33.03125690507886 C51.54385964912285 33.359381827149036 51.859649122807014 33.582038024268286 52.23391812865498 33.582038024268286 C52.72514619883043 33.582038024268286 53.111111111111086 33.18360061889712 53.111111111111086 32.70313198300846 C53.111111111111086 32.562507016406926 53.076023391812896 32.42188204980539 53.017543859649095 32.30469457763729 C53.017543859649095 32.30469457763729 53.017543859649095 32.30469457763729 53.017543859649095 32.30469457763729 C52.771929824561425 31.765632205664588 52.07017543859649 30.921882406055374 50.865497076023416 30.628913725635357 C50.865497076023416 30.628913725635357 50.865497076023416 29.445320256738796 50.865497076023416 29.445320256738796 C50.865497076023416 28.95313287363342 50.467836257309955 28.56641421547897 49.988304093567194 28.56641421547897 C49.50877192982455 28.56641421547897 49.111111111111086 28.96485162085014 49.111111111111086 29.445320256738796 C49.111111111111086 29.445320256738796 49.111111111111086 30.628913725635357 49.111111111111086 30.628913725635357 C47.38011695906425 31.039069878223245 46.72514619883043 32.65625699414136 46.72514619883043 33.80469422138731 C46.72514619883043 35.07031892080158 47.55555555555554 36.64063104785237 49.90643274853801 36.91016223383872 C51.92982456140351 37.13281843095774 51.92982456140351 38.175786933252766 51.92982456140351 38.52734934975683 C51.92982456140351 38.89063051347739 51.801169590643326 39.40625539101643 51.438596491228054 39.74609906030355 C51.076023391812896 40.06250523515723 50.561403508771946 40.21484894897549 49.87134502923982 40.167973960108384 C49.87134502923982 40.167973960108384 49.87134502923982 40.167973960108384 49.87134502923982 40.167973960108384 Z" vector-effect="non-scaling-stroke"/></g><g><defs><path id="path-1746184425822472" d="M15.22807017543844 40.78124031445545 C15.064327485379957 40.60545910620349 14.830409356724992 40.499990381252324 14.584795321637275 40.499990381252324 C14.33918128654956 40.499990381252324 14.105263157894592 40.60545910620349 13.941520467836112 40.78124031445545 C13.941520467836112 40.78124031445545 7.97660818713442 47.14452005317653 7.97660818713442 47.14452005317653 C7.730994152046704 47.402332491946076 7.672514619882962 47.777332402883594 7.812865497075942 48.09373857773713 C7.953216374268922 48.42186349980746 8.26900584795313 48.62108220249302 8.619883040935582 48.62108220249302 C8.619883040935582 48.62108220249302 10.350877192982349 48.62108220249302 10.350877192982349 48.62108220249302 C10.350877192982349 48.62108220249302 10.350877192982349 51.82030019267875 10.350877192982349 51.82030019267875 C10.350877192982349 52.30076882856745 10.748538011695796 52.69920623393856 11.22807017543848 52.69920623393856 C11.707602339181163 52.69920623393856 12.10526315789461 52.30076882856745 12.10526315789461 51.82030019267875 C12.10526315789461 51.82030019267875 12.10526315789461 47.7421761612332 12.10526315789461 47.7421761612332 C12.10526315789461 47.261707525344505 11.707602339181163 46.863270119973386 11.22807017543848 46.863270119973386 C11.22807017543848 46.863270119973386 10.654970760233805 46.863270119973386 10.654970760233805 46.863270119973386 C10.654970760233805 46.863270119973386 14.596491228070024 42.66795861635987 14.596491228070024 42.66795861635987 C14.596491228070024 42.66795861635987 18.538011695906242 46.863270119973386 18.538011695906242 46.863270119973386 C18.538011695906242 46.863270119973386 17.96491228070157 46.863270119973386 17.96491228070157 46.863270119973386 C17.485380116958883 46.863270119973386 17.087719298245435 47.261707525344505 17.087719298245435 47.7421761612332 C17.087719298245435 47.7421761612332 17.087719298245435 58.242173667483804 17.087719298245435 58.242173667483804 C17.087719298245435 58.242173667483804 12.11695906432736 58.242173667483804 12.11695906432736 58.242173667483804 C12.11695906432736 58.242173667483804 12.11695906432736 55.34764310493481 12.11695906432736 55.34764310493481 C12.11695906432736 54.8671744690461 11.719298245613913 54.468737063674986 11.239766081871227 54.468737063674986 C10.760233918128543 54.468737063674986 10.362573099415096 54.8671744690461 10.362573099415096 55.34764310493481 C10.362573099415096 55.34764310493481 10.362573099415096 59.12107970874362 10.362573099415096 59.12107970874362 C10.362573099415096 59.60154834463232 10.760233918128543 59.99998575000343 11.239766081871227 59.99998575000343 C11.239766081871227 59.99998575000343 17.976608187134314 59.99998575000343 17.976608187134314 59.99998575000343 C18.456140350877 59.99998575000343 18.853801169590447 59.60154834463232 18.853801169590447 59.12107970874362 C18.853801169590447 59.12107970874362 18.853801169590447 48.621082202493014 18.853801169590447 48.621082202493014 C18.853801169590447 48.621082202493014 20.584795321637213 48.621082202493014 20.584795321637213 48.621082202493014 C20.935672514619664 48.621082202493014 21.251461988303873 48.410144752590654 21.391812865496856 48.09373857773712 C21.532163742689836 47.76561365566679 21.461988304093346 47.402332491946076 21.22807017543838 47.14452005317652 C21.22807017543838 47.14452005317652 15.22807017543844 40.78124031445545 15.22807017543844 40.78124031445545 Z" vector-effect="non-scaling-stroke"/></defs> <path style="stroke-width: 0; stroke-linecap: butt; stroke-linejoin: miter; fill: rgb(84, 117, 130);" d="M35.28654970760226 60.781250314455065 C35.12280701754378 60.60546910620292 34.8888888888888 60.500000381251766 34.64327485380113 60.500000381251766 C34.39766081871335 60.500000381251766 34.16374269005837 60.60546910620292 33.999999999999886 60.781250314455065 C33.999999999999886 60.781250314455065 28.03508771929819 67.14453005317614 28.03508771929819 67.14453005317614 C27.78947368421052 67.40234249194555 27.73099415204672 67.77734240288305 27.871345029239706 68.09374857773673 C28.011695906432692 68.4218734998069 28.32748538011697 68.62109220249249 28.678362573099434 68.62109220249249 C28.678362573099434 68.62109220249249 30.409356725146154 68.62109220249249 30.409356725146154 68.62109220249249 C30.409356725146154 68.62109220249249 30.409356725146154 71.82031019267833 30.409356725146154 71.82031019267833 C30.409356725146154 72.30077882856699 30.807017543859615 72.69921623393816 31.286549707602262 72.69921623393816 C31.76608187134491 72.69921623393816 32.16374269005837 72.30077882856699 32.16374269005837 71.82031019267833 C32.16374269005837 71.82031019267833 32.16374269005837 67.74218616123267 32.16374269005837 67.74218616123267 C32.16374269005837 67.26171752534401 31.76608187134491 66.86328011997284 31.286549707602262 66.86328011997284 C31.286549707602262 66.86328011997284 30.713450292397624 66.86328011997284 30.713450292397624 66.86328011997284 C30.713450292397624 66.86328011997284 34.65497076023382 62.6679686163593 34.65497076023382 62.6679686163593 C34.65497076023382 62.6679686163593 38.59649122807002 66.86328011997284 38.59649122807002 66.86328011997284 C38.59649122807002 66.86328011997284 38.023391812865384 66.86328011997284 38.023391812865384 66.86328011997284 C37.54385964912274 66.86328011997284 37.146198830409276 67.26171752534401 37.146198830409276 67.74218616123267 C37.146198830409276 67.74218616123267 37.146198830409276 78.24218366748323 37.146198830409276 78.24218366748323 C37.146198830409276 78.24218366748323 32.175438596491176 78.24218366748323 32.175438596491176 78.24218366748323 C32.175438596491176 78.24218366748323 32.175438596491176 75.34765310493435 32.175438596491176 75.34765310493435 C32.175438596491176 74.8671844690457 31.777777777777715 74.46874706367453 31.298245614035068 74.46874706367453 C30.818713450292307 74.46874706367453 30.421052631578846 74.8671844690457 30.421052631578846 75.34765310493435 C30.421052631578846 75.34765310493435 30.421052631578846 79.12108970874306 30.421052631578846 79.12108970874306 C30.421052631578846 79.60155834463194 30.818713450292307 79.99999575000288 31.298245614035068 79.99999575000288 C31.298245614035068 79.99999575000288 38.035087719298076 79.99999575000288 38.035087719298076 79.99999575000288 C38.51461988304084 79.99999575000288 38.9122807017543 79.60155834463194 38.9122807017543 79.12108970874306 C38.9122807017543 79.12108970874306 38.9122807017543 68.62109220249249 38.9122807017543 68.62109220249249 C38.9122807017543 68.62109220249249 40.64327485380102 68.62109220249249 40.64327485380102 68.62109220249249 C40.99415204678348 68.62109220249249 41.309941520467646 68.41015475259019 41.45029239766063 68.09374857773673 C41.59064327485362 67.76562365566633 41.520467836257126 67.40234249194555 41.28654970760215 67.14453005317614 C41.28654970760215 67.14453005317614 35.28654970760226 60.781250314455065 35.28654970760226 60.781250314455065 Z" vector-effect="non-scaling-stroke"/></g><g><defs><path id="path-1746184425821470" d="M7.49003,0.28125c-0.16374,-0.17578 -0.39766,-0.28125 -0.64327,-0.28125c-0.24561,0 -0.47953,0.10547 -0.64327,0.28125l-5.96491,6.36328c-0.24561,0.25781 -0.30409,0.63281 -0.16374,0.94922c0.14035,0.32812 0.45614,0.52734 0.80702,0.52734h1.73099v16.55859c0,0.48047 0.39766,0.87891 0.87719,0.87891h6.73684c0.49123,0 0.87719,-0.39844 0.87719,-0.87891v-16.55859h1.73099c0.35088,0 0.66667,-0.21094 0.80702,-0.52734c0.14035,-0.32812 0.07018,-0.69141 -0.16374,-0.94922zM10.21518,6.36328c-0.49123,0 -0.87719,0.39844 -0.87719,0.87891v16.55859h-4.97076v-16.55859c0,-0.48047 -0.39766,-0.87891 -0.87719,-0.87891h-0.5731l3.94152,-4.19531l3.94152,4.19531z" vector-effect="non-scaling-stroke"/></defs><path style="stroke-width: 0; stroke-linecap: butt; stroke-linejoin: miter; fill: rgb(84, 117, 130);" d="M7.49003,0.28125c-0.16374,-0.17578 -0.39766,-0.28125 -0.64327,-0.28125c-0.24561,0 -0.47953,0.10547 -0.64327,0.28125l-5.96491,6.36328c-0.24561,0.25781 -0.30409,0.63281 -0.16374,0.94922c0.14035,0.32812 0.45614,0.52734 0.80702,0.52734h1.73099v16.55859c0,0.48047 0.39766,0.87891 0.87719,0.87891h6.73684c0.49123,0 0.87719,-0.39844 0.87719,-0.87891v-16.55859h1.73099c0.35088,0 0.66667,-0.21094 0.80702,-0.52734c0.14035,-0.32812 0.07018,-0.69141 -0.16374,-0.94922zM10.21518,6.36328c-0.49123,0 -0.87719,0.39844 -0.87719,0.87891v16.55859h-4.97076v-16.55859c0,-0.48047 -0.39766,-0.87891 -0.87719,-0.87891h-0.5731l3.94152,-4.19531l3.94152,4.19531z" transform="translate(43.35208047613378, 54.44142007016512) rotate(0)" vector-effect="non-scaling-stroke"/></g><g><defs><path id="path-1746184425820468" d="M46.33918128655 29.1210868337416 C46.175438596491524 28.945305625489638 45.94152046783655 28.83983690053846 45.69590643274882 28.83983690053846 C45.4502923976611 28.83983690053846 45.216374269006124 28.945305625489638 45.052631578947654 29.1210868337416 C45.052631578947654 29.1210868337416 39.087719298245865 35.4843665724626 39.087719298245865 35.4843665724626 C38.84210526315814 35.742179011232146 38.78362573099439 36.11717892216966 38.92397660818738 36.4335850970232 C39.06432748538036 36.76171001909352 39.38011695906457 36.96092872177908 39.73099415204703 36.96092872177908 C39.73099415204703 36.96092872177908 41.46198830409382 36.96092872177908 41.46198830409382 36.96092872177908 C41.46198830409382 36.96092872177908 41.46198830409382 42.3398336942891 41.46198830409382 42.3398336942891 C41.46198830409382 42.82030233017779 41.85964912280728 43.2187397355489 42.33918128654997 43.2187397355489 C42.81871345029268 43.2187397355489 43.216374269006124 42.82030233017779 43.216374269006124 42.3398336942891 C43.216374269006124 42.3398336942891 43.216374269006124 36.08202268051927 43.216374269006124 36.08202268051927 C43.216374269006124 35.601554044630575 42.81871345029268 35.20311663925947 42.33918128654997 35.20311663925947 C42.33918128654997 35.20311663925947 41.76608187134529 35.20311663925947 41.76608187134529 35.20311663925947 C41.76608187134529 35.20311663925947 45.70760233918158 31.007805135645988 45.70760233918158 31.007805135645988 C45.70760233918158 31.007805135645988 49.649122807017854 35.20311663925947 49.649122807017854 35.20311663925947 C49.649122807017854 35.20311663925947 49.07602339181318 35.20311663925947 49.07602339181318 35.20311663925947 C48.584795321637735 35.20311663925947 48.19883040935702 35.601554044630575 48.19883040935702 36.08202268051927 C48.19883040935702 36.08202268051927 48.19883040935702 58.2421736674832 48.19883040935702 58.2421736674832 C48.19883040935702 58.2421736674832 43.22807017543887 58.2421736674832 43.22807017543887 58.2421736674832 C43.22807017543887 58.2421736674832 43.22807017543887 45.855457859328325 43.22807017543887 45.855457859328325 C43.22807017543887 45.37498922343963 42.830409356725426 44.976551818068515 42.35087719298272 44.976551818068515 C41.871345029240025 44.976551818068515 41.47368421052658 45.37498922343963 41.47368421052658 45.855457859328325 C41.47368421052658 45.855457859328325 41.47368421052658 59.121079708743004 41.47368421052658 59.121079708743004 C41.47368421052658 59.6015483446317 41.871345029240025 59.999985750002814 42.35087719298272 59.999985750002814 C42.35087719298272 59.999985750002814 49.08771929824593 59.999985750002814 49.08771929824593 59.999985750002814 C49.57894736842137 59.999985750002814 49.96491228070207 59.6015483446317 49.96491228070207 59.121079708743004 C49.96491228070207 59.121079708743004 49.96491228070207 36.96092872177907 49.96491228070207 36.96092872177907 C49.96491228070207 36.96092872177907 51.69590643274886 36.96092872177907 51.69590643274886 36.96092872177907 C52.04678362573133 36.96092872177907 52.36257309941554 36.749991271876716 52.50292397660852 36.43358509702319 C52.64327485380151 36.10546017495286 52.57309941520502 35.742179011232146 52.339181286550044 35.4843665724626 C52.339181286550044 35.4843665724626 46.33918128655 29.1210868337416 46.33918128655 29.1210868337416 Z" vector-effect="non-scaling-stroke"/></defs> <path style="stroke-width: 0; stroke-linecap: butt; stroke-linejoin: miter; fill: rgb(84, 117, 130);" d="M66.39766081871369 49.1210968337416 C66.2339181286552 48.945315625489684 66.00000000000023 48.83984690053853 65.75438596491256 48.83984690053853 C65.50877192982477 48.83984690053853 65.2748538011698 48.945315625489684 65.11111111111131 49.1210968337416 C65.11111111111131 49.1210968337416 59.1461988304095 55.48437657246268 59.1461988304095 55.48437657246268 C58.900584795321834 55.742189011232085 58.84210526315803 56.11718892216959 58.98245614035102 56.43359509702327 C59.122807017544005 56.761720019093445 59.43859649122828 56.96093872177903 59.78947368421075 56.96093872177903 C59.78947368421075 56.96093872177903 61.52046783625747 56.96093872177903 61.52046783625747 56.96093872177903 C61.52046783625747 56.96093872177903 61.52046783625747 62.33984369428913 61.52046783625747 62.33984369428913 C61.52046783625747 62.820312330177785 61.91812865497093 63.218749735548954 62.39766081871369 63.218749735548954 C62.877192982456336 63.218749735548954 63.2748538011698 62.820312330177785 63.2748538011698 62.33984369428913 C63.2748538011698 62.33984369428913 63.2748538011698 56.082032680519205 63.2748538011698 56.082032680519205 C63.2748538011698 55.60156404463055 62.877192982456336 55.20312663925938 62.39766081871369 55.20312663925938 C62.39766081871369 55.20312663925938 61.82456140350894 55.20312663925938 61.82456140350894 55.20312663925938 C61.82456140350894 55.20312663925938 65.76608187134525 51.00781513564607 65.76608187134525 51.00781513564607 C65.76608187134525 51.00781513564607 69.70760233918156 55.20312663925938 69.70760233918156 55.20312663925938 C69.70760233918156 55.20312663925938 69.13450292397692 55.20312663925938 69.13450292397692 55.20312663925938 C68.64327485380147 55.20312663925938 68.2573099415207 55.60156404463055 68.2573099415207 56.082032680519205 C68.2573099415207 56.082032680519205 68.2573099415207 78.24218366748323 68.2573099415207 78.24218366748323 C68.2573099415207 78.24218366748323 63.2865497076026 78.24218366748323 63.2865497076026 78.24218366748323 C63.2865497076026 78.24218366748323 63.2865497076026 65.8554678593282 63.2865497076026 65.8554678593282 C63.2865497076026 65.37499922343954 62.88888888888914 64.9765618180686 62.40935672514638 64.9765618180686 C61.929824561403734 64.9765618180686 61.53216374269027 65.37499922343954 61.53216374269027 65.8554678593282 C61.53216374269027 65.8554678593282 61.53216374269027 79.12108970874306 61.53216374269027 79.12108970874306 C61.53216374269027 79.60155834463171 61.929824561403734 79.99999575000288 62.40935672514638 79.99999575000288 C62.40935672514638 79.99999575000288 69.14619883040962 79.99999575000288 69.14619883040962 79.99999575000288 C69.63742690058507 79.99999575000288 70.02339181286573 79.60155834463171 70.02339181286573 79.12108970874306 C70.02339181286573 79.12108970874306 70.02339181286573 56.96093872177903 70.02339181286573 56.96093872177903 C70.02339181286573 56.96093872177903 71.75438596491256 56.96093872177903 71.75438596491256 56.96093872177903 C72.10526315789502 56.96093872177903 72.42105263157919 56.75000127187673 72.56140350877217 56.43359509702327 C72.70175438596516 56.10547017495287 72.63157894736867 55.742189011232085 72.39766081871369 55.48437657246268 C72.39766081871369 55.48437657246268 66.39766081871369 49.1210968337416 66.39766081871369 49.1210968337416 Z" vector-effect="non-scaling-stroke"/></g><g><defs><path id="path-1746184425820466" d="M10.853801169590685 16.335933620211716 C10.853801169590685 15.855464984323136 10.456140350877233 15.457027578952117 9.976608187134541 15.457027578952117 C9.976608187134541 15.457027578952117 4.8187134502924165 15.457027578952117 4.8187134502924165 15.457027578952117 C4.327485380116976 15.457027578952117 3.9415204678362725 15.855464984323136 3.9415204678362725 16.335933620211716 C3.9415204678362725 16.816402256100293 4.339181286549724 17.214839661471313 4.8187134502924165 17.214839661471313 C4.8187134502924165 17.214839661471313 9.976608187134545 17.214839661471313 9.976608187134545 17.214839661471313 C10.456140350877234 17.214839661471313 10.853801169590685 16.816402256100293 10.853801169590685 16.335933620211716 Z" vector-effect="non-scaling-stroke"/></defs> <path style="stroke-width: 0; stroke-linecap: butt; stroke-linejoin: miter; fill: rgb(154, 206, 29);" d="M30.912280701754412 36.33594362021563 C30.912280701754412 35.855474984326975 30.51461988304095 35.45703757895603 30.03508771929819 35.45703757895603 C30.03508771929819 35.45703757895603 24.87719298245611 35.45703757895603 24.87719298245611 35.45703757895603 C24.385964912280656 35.45703757895603 24 35.855474984326975 24 36.33594362021563 C24 36.81641225610406 24.39766081871346 37.21484966147523 24.87719298245611 37.21484966147523 C24.87719298245611 37.21484966147523 30.03508771929819 37.21484966147523 30.03508771929819 37.21484966147523 C30.51461988304095 37.21484966147523 30.912280701754412 36.81641225610406 30.912280701754412 36.33594362021563 Z" vector-effect="non-scaling-stroke"/></g><g><defs><path id="path-1746184425819464" d="M11.111111111110958 23.249994478127952 C11.111111111110958 23.249994478127952 9.274853801169463 23.964838058352655 9.274853801169463 23.964838058352655 C8.818713450292275 24.140619266604627 8.596491228070057 24.656244144143756 8.771929824561283 25.101556538382095 C8.912280701754264 25.453118954886044 9.239766081871219 25.664056404788415 9.59064327485367 25.664056404788415 C9.695906432748403 25.664056404788415 9.80116959064314 25.640618910354817 9.906432748537876 25.605462668704423 C9.906432748537876 25.605462668704423 11.74269005847937 24.890619088479724 11.74269005847937 24.890619088479724 C12.19883040935656 24.714837880227748 12.421052631578776 24.19921300268862 12.24561403508755 23.75390060845028 C12.070175438596324 23.296869466995147 11.567251461988146 23.074213269875976 11.111111111110958 23.249994478127952 C11.111111111110958 23.249994478127952 11.111111111110958 23.249994478127952 11.111111111110958 23.249994478127952 Z" vector-effect="non-scaling-stroke"/></defs> <path style="stroke-width: 0; stroke-linecap: butt; stroke-linejoin: miter; fill: rgb(154, 206, 29);" d="M31.169590643274887 43.25000447812613 C31.169590643274887 43.25000447812613 29.33333333333337 43.96484805835075 29.33333333333337 43.96484805835075 C28.877192982456222 44.14062926660267 28.654970760233937 44.65625414414194 28.830409356725227 45.10156653838021 C28.970760233918213 45.45312895488428 29.29824561403518 45.66406640478658 29.649122807017534 45.66406640478658 C29.75438596491233 45.66406640478658 29.859649122807014 45.640628910352916 29.96491228070181 45.60547266870253 C29.96491228070181 45.60547266870253 31.801169590643326 44.89062908847791 31.801169590643326 44.89062908847791 C32.257309941520475 44.71484788022599 32.47953216374265 44.19922300268672 32.30409356725147 43.75391060844845 C32.128654970760294 43.29687946699323 31.625730994152036 43.07422326987421 31.169590643274887 43.25000447812613 C31.169590643274887 43.25000447812613 31.169590643274887 43.25000447812613 31.169590643274887 43.25000447812613 Z" vector-effect="non-scaling-stroke"/></g><g><defs><path id="path-1746184425819462" d="M9.274853801169483 8.707029182081186 C9.274853801169483 8.707029182081186 11.111111111110983 9.421872762305888 11.111111111110983 9.421872762305888 C11.216374269005717 9.468747751173082 11.321637426900454 9.48046649838988 11.426900584795188 9.48046649838988 C11.777777777777644 9.48046649838988 12.105263157894596 9.26952904848751 12.245614035087577 8.917966631983557 C12.421052631578805 8.46093549052842 12.198830409356585 7.957029360206092 11.742690058479397 7.781248151954116 C11.742690058479397 7.781248151954116 9.906432748537897 7.066404571729415 9.906432748537897 7.066404571729415 C9.450292397660709 6.89062336347744 8.947368421052529 7.113279560596609 8.771929824561303 7.570310702051747 C8.608187134502824 8.015623096290083 8.830409356725044 8.531247973829212 9.274853801169483 8.707029182081186 Z" vector-effect="non-scaling-stroke"/></defs> <path style="stroke-width: 0; stroke-linecap: butt; stroke-linejoin: miter; fill: rgb(154, 206, 29);" d="M29.333333333333258 28.70703918208028 C29.333333333333258 28.70703918208028 31.169590643274773 29.421882762304904 31.169590643274773 29.421882762304904 C31.27485380116957 29.468757751172234 31.380116959064253 29.480476498388953 31.485380116958936 29.480476498388953 C31.836257309941402 29.480476498388953 32.16374269005837 29.26953904848665 32.30409356725136 28.917976631982583 C32.47953216374265 28.460945490527592 32.25730994152036 27.957039360205044 31.801169590643212 27.781258151953125 C31.801169590643212 27.781258151953125 29.964912280701697 27.0664145717285 29.964912280701697 27.0664145717285 C29.508771929824547 26.89063336347658 29.00584795321629 27.113289560595604 28.830409356725113 27.57032070205082 C28.66666666666663 28.015633096289093 28.8888888888888 28.53125797382836 29.333333333333258 28.70703918208028 Z" vector-effect="non-scaling-stroke"/></g><g><defs><path id="path-1746184425818460" d="M55.064327485381206 15.457027578952117 C55.064327485381206 15.457027578952117 49.906432748539 15.457027578952117 49.906432748539 15.457027578952117 C49.41520467836355 15.457027578952117 49.02923976608283 15.855464984323136 49.02923976608283 16.335933620211716 C49.02923976608283 16.816402256100293 49.42690058479629 17.214839661471313 49.906432748539 17.214839661471313 C49.906432748539 17.214839661471313 55.064327485381206 17.214839661471313 55.064327485381206 17.214839661471313 C55.55555555555666 17.214839661471313 55.94152046783736 16.816402256100293 55.94152046783736 16.335933620211716 C55.94152046783736 15.843746237106338 55.54385964912391 15.457027578952117 55.064327485381206 15.457027578952117 Z" vector-effect="non-scaling-stroke"/></defs> <path style="stroke-width: 0; stroke-linecap: butt; stroke-linejoin: miter; fill: rgb(154, 206, 29);" d="M75.12280701754412 35.45703757895603 C75.12280701754412 35.45703757895603 69.96491228070192 35.45703757895603 69.96491228070192 35.45703757895603 C69.47368421052647 35.45703757895603 69.0877192982457 35.855474984326975 69.0877192982457 36.33594362021563 C69.0877192982457 36.81641225610406 69.48538011695916 37.21484966147523 69.96491228070192 37.21484966147523 C69.96491228070192 37.21484966147523 75.12280701754412 37.21484966147523 75.12280701754412 37.21484966147523 C75.61403508771957 37.21484966147523 76.00000000000023 36.81641225610406 76.00000000000023 36.33594362021563 C76.00000000000023 35.843756237110256 75.60233918128677 35.45703757895603 75.12280701754412 35.45703757895603 Z" vector-effect="non-scaling-stroke"/></g><g><defs><path id="path-1746184425818458" d="M48.12865497076125 24.890619088479724 C48.12865497076125 24.890619088479724 49.964912280702805 25.605462668704423 49.964912280702805 25.605462668704423 C50.07017543859754 25.652337657571614 50.175438596492285 25.664056404788415 50.28070175438702 25.664056404788415 C50.63157894736948 25.664056404788415 50.95906432748645 25.453118954886044 51.09941520467944 25.101556538382095 C51.274853801170664 24.644525396926955 51.05263157894844 24.140619266604627 50.59649122807124 23.964838058352655 C50.59649122807124 23.964838058352655 48.76023391812968 23.249994478127952 48.76023391812968 23.249994478127952 C48.30409356725248 23.074213269875976 47.801169590644285 23.296869466995147 47.625730994153045 23.75390060845028 C47.45029239766181 24.19921300268862 47.67251461988405 24.714837880227748 48.12865497076125 24.890619088479724 C48.12865497076125 24.890619088479724 48.12865497076125 24.890619088479724 48.12865497076125 24.890619088479724 Z" vector-effect="non-scaling-stroke"/></defs> <path style="stroke-width: 0; stroke-linecap: butt; stroke-linejoin: miter; fill: rgb(154, 206, 29);" d="M68.18713450292387 44.89062908847791 C68.18713450292387 44.89062908847791 70.0233918128655 45.60547266870253 70.0233918128655 45.60547266870253 C70.12865497076018 45.65234765756986 70.23391812865498 45.66406640478658 70.33918128654966 45.66406640478658 C70.69005847953213 45.66406640478658 71.0175438596491 45.45312895488428 71.15789473684208 45.10156653838021 C71.33333333333337 44.64453539692522 71.11111111111109 44.14062926660267 70.65497076023394 43.96484805835075 C70.65497076023394 43.96484805835075 68.81871345029231 43.25000447812613 68.81871345029231 43.25000447812613 C68.36257309941516 43.07422326987421 67.8596491228069 43.29687946699323 67.68421052631572 43.75391060844845 C67.50877192982443 44.19922300268672 67.73099415204672 44.71484788022599 68.18713450292387 44.89062908847791 C68.18713450292387 44.89062908847791 68.18713450292387 44.89062908847791 68.18713450292387 44.89062908847791 Z" vector-effect="non-scaling-stroke"/></g><g><defs><path id="path-1746184425817456" d="M48.444444444445374 9.48046649838988 C48.5497076023401 9.48046649838988 48.65497076023485 9.457029003956286 48.760233918129586 9.421872762305892 C48.760233918129586 9.421872762305892 50.596491228071145 8.707029182081191 50.596491228071145 8.707029182081191 C51.05263157894834 8.531247973829215 51.27485380117057 8.015623096290087 51.09941520467934 7.570310702051748 C50.923976608188106 7.113279560596612 50.40935672514716 6.8906233634774425 49.96491228070271 7.066404571729419 C49.96491228070271 7.066404571729419 48.128654970761154 7.781248151954119 48.128654970761154 7.781248151954119 C47.67251461988396 7.957029360206095 47.45029239766173 8.472654237745223 47.62573099415296 8.91796663198356 C47.76608187134594 9.269529048487511 48.09356725146291 9.48046649838988 48.444444444445374 9.48046649838988 C48.444444444445374 9.48046649838988 48.444444444445374 9.48046649838988 48.444444444445374 9.48046649838988 Z" vector-effect="non-scaling-stroke"/></defs> <path style="stroke-width: 0; stroke-linecap: butt; stroke-linejoin: miter; fill: rgb(154, 206, 29);" d="M68.50292397660803 29.480476498388953 C68.60818713450271 29.480476498388953 68.71345029239751 29.457039003955288 68.81871345029231 29.421882762304904 C68.81871345029231 29.421882762304904 70.65497076023382 28.70703918208028 70.65497076023382 28.70703918208028 C71.11111111111097 28.53125797382836 71.33333333333326 28.015633096289093 71.15789473684197 27.57032070205082 C70.98245614035079 27.113289560595604 70.46783625730984 26.89063336347658 70.02339181286538 27.0664145717285 C70.02339181286538 27.0664145717285 68.18713450292387 27.781258151953125 68.18713450292387 27.781258151953125 C67.7309941520466 27.957039360205272 67.50877192982443 28.47266423774431 67.68421052631561 28.917976631982583 C67.8245614035086 29.26953904848665 68.15204678362556 29.480476498388953 68.50292397660803 29.480476498388953 C68.50292397660803 29.480476498388953 68.50292397660803 29.480476498388953 68.50292397660803 29.480476498388953 Z" vector-effect="non-scaling-stroke"/></g></svg>