<svg version="1.2" xmlns="http://www.w3.org/2000/svg" xmlns:xlink="http://www.w3.org/1999/xlink" overflow="visible" preserveAspectRatio="none" viewBox="0 0 1440 247" width="1440" height="247"><g transform="translate(0, 0)"><defs><path id="path-17464192552761941" d="M0 0 C0 0 1440.0000000000002 0 1440.0000000000002 0 C1440.0000000000002 0 1440.0000000000002 247.00000000000014 1440.0000000000002 247.00000000000014 C1440.0000000000002 247.00000000000014 0 247.00000000000014 0 247.00000000000014 C0 247.00000000000014 0 0 0 0 Z" vector-effect="non-scaling-stroke"/><linearGradient id="gradient-17464192552901943" x1="50%" y1="100%" x2="50%" y2="0%" vector-effect="non-scaling-stroke"><stop offset="0%" stop-color="rgb(218,218,218)" stop-opacity="1" vector-effect="non-scaling-stroke"/><stop offset="100%" stop-color="rgba(218,218,218,0)" stop-opacity="0" vector-effect="non-scaling-stroke"/></linearGradient></defs><g transform="translate(0, 0)"><path d="M0 0 C0 0 1440.0000000000002 0 1440.0000000000002 0 C1440.0000000000002 0 1440.0000000000002 247.00000000000014 1440.0000000000002 247.00000000000014 C1440.0000000000002 247.00000000000014 0 247.00000000000014 0 247.00000000000014 C0 247.00000000000014 0 0 0 0 Z" style="stroke: rgb(140, 140, 140); stroke-width: 0; stroke-linecap: butt; stroke-linejoin: miter; fill: url(&quot;#gradient-17464192552901943&quot;);" vector-effect="non-scaling-stroke"/></g></g></svg>