<svg height="104" overflow="visible" viewBox="-2 -2 104 104" width="104" xmlns="http://www.w3.org/2000/svg"><g><defs><path id="path-1746184425947950" d="M49.99999999999997 0 C77.59575122469997 0 99.99999999999994 22.4042487753 99.99999999999994 49.99999999999998 C99.99999999999994 77.59575122469997 77.59575122469997 99.99999999999996 49.99999999999997 99.99999999999996 C22.404248775300005 99.99999999999996 0 77.59575122469997 0 49.99999999999998 C0 22.4042487753 22.404248775300005 0 49.99999999999997 0 Z" vector-effect="non-scaling-stroke"/></defs> <path style="stroke: rgb(72, 92, 117); stroke-width: 2; stroke-linecap: butt; stroke-linejoin: miter; fill: rgb(255, 255, 255);" d="M50 0 C77.59575122469994 0 99.99999999999994 22.404248775299948 99.99999999999994 50 C99.99999999999994 77.59575122470005 77.59575122469994 100 50 100 C22.404248775300005 100 0 77.59575122470005 0 50 C0 22.404248775299948 22.404248775300005 0 50 0 Z" vector-effect="non-scaling-stroke"/></g><g><defs><path id="path-1746184425833499" d="M52.40602,30.91667v0c-0.549,-0.63095 -1.51573,-1.02381 -2.64954,-0.83333c0.10741,-1.52381 -0.09548,-3.27381 -0.62061,-5.29762c-1.15768,-4.4881 -3.60433,-9.0119 -6.48064,-12.07143c0.34611,-0.40476 0.549,-0.91667 0.549,-1.4881c0,-0.83333 -0.45353,-1.57143 -1.12188,-1.97619c2.42278,-3.84524 3.12694,-6.61905 2.04086,-8.07143c-0.60868,-0.80952 -1.67088,-1.05952 -2.91211,-0.66667c-0.93092,0.28571 -1.52766,0.77381 -1.95732,1.13095l-0.0358,0.03571c-0.36998,0.29762 -0.52513,0.36905 -0.58481,0.38095c-0.02387,-0.02381 -0.09548,-0.07143 -0.20289,-0.22619c-0.87125,-1.2381 -1.75443,-1.83333 -2.70922,-1.83333c-0.95479,0 -1.83797,0.59524 -2.70922,1.83333c-0.10741,0.14286 -0.16709,0.20238 -0.20289,0.22619c-0.05967,-0.0119 -0.21483,-0.08333 -0.58481,-0.38095l-0.0358,-0.03571c-0.42966,-0.35714 -1.0264,-0.84524 -1.95732,-1.13095c-1.24123,-0.38095 -2.30343,-0.14286 -2.91211,0.66667c-1.08607,1.45238 -0.38192,4.2381 2.04086,8.07143c-0.66835,0.40476 -1.12188,1.13095 -1.12188,1.97619c0,0.57143 0.20289,1.08333 0.549,1.4881c-2.8763,3.05952 -5.32295,7.58333 -6.48064,12.07143c-0.42966,1.65476 -0.64448,3.10714 -0.64448,4.40476c-2.01699,-0.78571 -3.89077,-1.30952 -6.05098,-0.79762c-2.63761,0.63095 -5.43037,2.80952 -9.04663,7.0119c-0.94285,-0.42857 -2.11247,-0.2619 -2.88824,0.5119l-3.43724,3.44048c-0.15515,0.15476 -0.2387,0.36905 -0.2387,0.59524c0,0.22619 0.08354,0.42857 0.2387,0.59524l10.62204,10.59524c0.15515,0.15476 0.36998,0.2381 0.59674,0.2381c0.22676,0 0.42966,-0.08333 0.59674,-0.2381l3.43724,-3.42857c0.72803,-0.72619 0.91899,-1.7619 0.59674,-2.66667c2.17215,-0.89286 4.59493,-0.96429 7.68606,-0.78571c0.70416,0.04762 1.44412,0.09524 2.21989,0.16667c1.84991,0.15476 3.77142,0.29762 5.62132,0.2619c3.9027,-0.08333 6.25387,-1.17857 9.38081,-2.83333c3.18661,-1.69048 10.00142,-5.71429 11.27845,-7.39286c0.91899,-1.21429 0.96672,-2.60714 0.13128,-3.54762zM28.65563,2.17857v0c0.22676,-0.29762 0.82351,-0.15476 1.07414,-0.07143c0.62061,0.19048 1.01446,0.5119 1.39638,0.83333l0.0358,0.03571c0.549,0.45238 1.14575,0.84524 1.87377,0.75c0.50126,-0.07143 0.95479,-0.38095 1.33671,-0.91667c0.5132,-0.72619 0.99059,-1.13095 1.33671,-1.13095c0.34611,0 0.82351,0.40476 1.33671,1.13095c0.38192,0.53571 0.83544,0.84524 1.33671,0.91667c0.71609,0.09524 1.32477,-0.30952 1.87377,-0.75l0.0358,-0.03571c0.38192,-0.30952 0.77577,-0.64286 1.39638,-0.83333c0.25063,-0.07143 0.84738,-0.22619 1.07414,0.07143c0.39385,0.52381 0.28644,2.53571 -2.48245,6.75h-9.15405c-2.75696,-4.22619 -2.86437,-6.22619 -2.47052,-6.75zM41.52142,11.22619c0,0.35714 -0.28644,0.64286 -0.64448,0.64286h-10.3356c-0.35805,0 -0.64448,-0.28571 -0.64448,-0.64286c0,-0.35714 0.28644,-0.64286 0.64448,-0.64286h10.3356c0.35805,0 0.64448,0.29762 0.64448,0.64286zM23.91748,25.20238c1.12188,-4.33333 3.61627,-8.85714 6.40903,-11.67857c0.07161,0.0119 0.14322,0.0119 0.21483,0.0119h10.3356c0.07161,0 0.14322,0 0.21483,-0.0119c2.79276,2.82143 5.28715,7.35714 6.40903,11.67857c0.57287,2.2381 0.73996,4.11905 0.46546,5.60714c-2.2915,1.27381 -7.17286,3.63095 -10.90847,5.05952c0.11935,-0.71429 -0.01193,-1.46429 -0.40579,-2.11905c-0.59674,-1 -1.64701,-1.57143 -2.80469,-1.53571c-4.6904,0 -7.80541,-1.21429 -10.51462,-2.33333c-0.07161,-1.30952 0.11935,-2.88095 0.58481,-4.67857zM14.29798,46.52381l-2.8405,2.84524l-9.45242,-9.41667l2.85243,-2.84524c0.16709,-0.16667 0.39385,-0.2619 0.63255,-0.2619c0.2387,0 0.46546,0.09524 0.63255,0.2619l8.17539,8.15476c0.35805,0.34524 0.35805,0.91667 0,1.2619zM50.93803,33.45238v0c-0.89512,1.16667 -6.59998,4.7381 -10.72945,6.92857c-2.92404,1.54762 -5.10812,2.55952 -8.64085,2.64286c-1.76636,0.03571 -3.64014,-0.10714 -5.45424,-0.2619c-0.7877,-0.05952 -1.5396,-0.11905 -2.25569,-0.16667c-2.76889,-0.16667 -5.93163,-0.22619 -8.80793,1.07143l-7.20866,-7.19048c3.30596,-3.85714 5.90776,-5.90476 8.13958,-6.45238c2.0886,-0.5 3.97431,0.27381 6.36129,1.2619c2.79276,1.15476 6.27774,2.59524 11.51715,2.59524c0.01193,0 0.02387,0 0.0358,0c0.549,-0.02381 1.03833,0.25 1.32477,0.72619c0.28644,0.47619 0.28644,1.03571 0,1.5c-0.5132,0.86905 -2.42278,1.32143 -5.08426,1.20238c-2.51826,-0.10714 -5.03652,-0.70238 -6.02711,-1.22619c-0.40579,-0.21429 -0.91899,-0.05952 -1.12188,0.35714c-0.21483,0.40476 -0.05967,0.91667 0.35805,1.11905c1.31284,0.67857 4.57106,1.44048 7.57864,1.44048c1.46799,0 2.8763,-0.17857 3.97431,-0.64286c4.01012,-1.11905 11.51715,-4.71429 14.27411,-6.30952c0.91899,-0.52381 1.65895,-0.39286 1.96925,-0.04762c0.31031,0.35714 0.22676,0.89286 -0.20289,1.45238z" vector-effect="non-scaling-stroke"/></defs><path style="stroke-width: 0; stroke-linecap: butt; stroke-linejoin: miter; fill: rgb(84, 117, 130);" d="M52.40602,30.91667v0c-0.549,-0.63095 -1.51573,-1.02381 -2.64954,-0.83333c0.10741,-1.52381 -0.09548,-3.27381 -0.62061,-5.29762c-1.15768,-4.4881 -3.60433,-9.0119 -6.48064,-12.07143c0.34611,-0.40476 0.549,-0.91667 0.549,-1.4881c0,-0.83333 -0.45353,-1.57143 -1.12188,-1.97619c2.42278,-3.84524 3.12694,-6.61905 2.04086,-8.07143c-0.60868,-0.80952 -1.67088,-1.05952 -2.91211,-0.66667c-0.93092,0.28571 -1.52766,0.77381 -1.95732,1.13095l-0.0358,0.03571c-0.36998,0.29762 -0.52513,0.36905 -0.58481,0.38095c-0.02387,-0.02381 -0.09548,-0.07143 -0.20289,-0.22619c-0.87125,-1.2381 -1.75443,-1.83333 -2.70922,-1.83333c-0.95479,0 -1.83797,0.59524 -2.70922,1.83333c-0.10741,0.14286 -0.16709,0.20238 -0.20289,0.22619c-0.05967,-0.0119 -0.21483,-0.08333 -0.58481,-0.38095l-0.0358,-0.03571c-0.42966,-0.35714 -1.0264,-0.84524 -1.95732,-1.13095c-1.24123,-0.38095 -2.30343,-0.14286 -2.91211,0.66667c-1.08607,1.45238 -0.38192,4.2381 2.04086,8.07143c-0.66835,0.40476 -1.12188,1.13095 -1.12188,1.97619c0,0.57143 0.20289,1.08333 0.549,1.4881c-2.8763,3.05952 -5.32295,7.58333 -6.48064,12.07143c-0.42966,1.65476 -0.64448,3.10714 -0.64448,4.40476c-2.01699,-0.78571 -3.89077,-1.30952 -6.05098,-0.79762c-2.63761,0.63095 -5.43037,2.80952 -9.04663,7.0119c-0.94285,-0.42857 -2.11247,-0.2619 -2.88824,0.5119l-3.43724,3.44048c-0.15515,0.15476 -0.2387,0.36905 -0.2387,0.59524c0,0.22619 0.08354,0.42857 0.2387,0.59524l10.62204,10.59524c0.15515,0.15476 0.36998,0.2381 0.59674,0.2381c0.22676,0 0.42966,-0.08333 0.59674,-0.2381l3.43724,-3.42857c0.72803,-0.72619 0.91899,-1.7619 0.59674,-2.66667c2.17215,-0.89286 4.59493,-0.96429 7.68606,-0.78571c0.70416,0.04762 1.44412,0.09524 2.21989,0.16667c1.84991,0.15476 3.77142,0.29762 5.62132,0.2619c3.9027,-0.08333 6.25387,-1.17857 9.38081,-2.83333c3.18661,-1.69048 10.00142,-5.71429 11.27845,-7.39286c0.91899,-1.21429 0.96672,-2.60714 0.13128,-3.54762zM28.65563,2.17857v0c0.22676,-0.29762 0.82351,-0.15476 1.07414,-0.07143c0.62061,0.19048 1.01446,0.5119 1.39638,0.83333l0.0358,0.03571c0.549,0.45238 1.14575,0.84524 1.87377,0.75c0.50126,-0.07143 0.95479,-0.38095 1.33671,-0.91667c0.5132,-0.72619 0.99059,-1.13095 1.33671,-1.13095c0.34611,0 0.82351,0.40476 1.33671,1.13095c0.38192,0.53571 0.83544,0.84524 1.33671,0.91667c0.71609,0.09524 1.32477,-0.30952 1.87377,-0.75l0.0358,-0.03571c0.38192,-0.30952 0.77577,-0.64286 1.39638,-0.83333c0.25063,-0.07143 0.84738,-0.22619 1.07414,0.07143c0.39385,0.52381 0.28644,2.53571 -2.48245,6.75h-9.15405c-2.75696,-4.22619 -2.86437,-6.22619 -2.47052,-6.75zM41.52142,11.22619c0,0.35714 -0.28644,0.64286 -0.64448,0.64286h-10.3356c-0.35805,0 -0.64448,-0.28571 -0.64448,-0.64286c0,-0.35714 0.28644,-0.64286 0.64448,-0.64286h10.3356c0.35805,0 0.64448,0.29762 0.64448,0.64286zM23.91748,25.20238c1.12188,-4.33333 3.61627,-8.85714 6.40903,-11.67857c0.07161,0.0119 0.14322,0.0119 0.21483,0.0119h10.3356c0.07161,0 0.14322,0 0.21483,-0.0119c2.79276,2.82143 5.28715,7.35714 6.40903,11.67857c0.57287,2.2381 0.73996,4.11905 0.46546,5.60714c-2.2915,1.27381 -7.17286,3.63095 -10.90847,5.05952c0.11935,-0.71429 -0.01193,-1.46429 -0.40579,-2.11905c-0.59674,-1 -1.64701,-1.57143 -2.80469,-1.53571c-4.6904,0 -7.80541,-1.21429 -10.51462,-2.33333c-0.07161,-1.30952 0.11935,-2.88095 0.58481,-4.67857zM14.29798,46.52381l-2.8405,2.84524l-9.45242,-9.41667l2.85243,-2.84524c0.16709,-0.16667 0.39385,-0.2619 0.63255,-0.2619c0.2387,0 0.46546,0.09524 0.63255,0.2619l8.17539,8.15476c0.35805,0.34524 0.35805,0.91667 0,1.2619zM50.93803,33.45238v0c-0.89512,1.16667 -6.59998,4.7381 -10.72945,6.92857c-2.92404,1.54762 -5.10812,2.55952 -8.64085,2.64286c-1.76636,0.03571 -3.64014,-0.10714 -5.45424,-0.2619c-0.7877,-0.05952 -1.5396,-0.11905 -2.25569,-0.16667c-2.76889,-0.16667 -5.93163,-0.22619 -8.80793,1.07143l-7.20866,-7.19048c3.30596,-3.85714 5.90776,-5.90476 8.13958,-6.45238c2.0886,-0.5 3.97431,0.27381 6.36129,1.2619c2.79276,1.15476 6.27774,2.59524 11.51715,2.59524c0.01193,0 0.02387,0 0.0358,0c0.549,-0.02381 1.03833,0.25 1.32477,0.72619c0.28644,0.47619 0.28644,1.03571 0,1.5c-0.5132,0.86905 -2.42278,1.32143 -5.08426,1.20238c-2.51826,-0.10714 -5.03652,-0.70238 -6.02711,-1.22619c-0.40579,-0.21429 -0.91899,-0.05952 -1.12188,0.35714c-0.21483,0.40476 -0.05967,0.91667 0.35805,1.11905c1.31284,0.67857 4.57106,1.44048 7.57864,1.44048c1.46799,0 2.8763,-0.17857 3.97431,-0.64286c4.01012,-1.11905 11.51715,-4.71429 14.27411,-6.30952c0.91899,-0.52381 1.65895,-0.39286 1.96925,-0.04762c0.31031,0.35714 0.22676,0.89286 -0.20289,1.45238z" transform="translate(24.000020000000006, 29.619047673772002) rotate(0)" vector-effect="non-scaling-stroke"/></g><g><defs><path id="path-1746184425832497" d="M21.10085,17.40476c-2.88824,-0.61905 -5.43037,-0.11905 -7.36382,1.42857c-0.79964,0.64286 -1.47992,1.45238 -2.02893,2.41667v-3.75c4.46364,-0.41667 7.96056,-4.17857 7.96056,-8.72619c0,-4.83333 -3.93851,-8.77381 -8.796,-8.77381c-4.85749,0 -8.78407,3.92857 -8.78407,8.77381c0,4.55952 3.49692,8.30952 7.96056,8.72619v3.75c-0.549,-0.95238 -1.22929,-1.77381 -2.02893,-2.41667c-1.92151,-1.54762 -4.47558,-2.04762 -7.36382,-1.42857c-0.38192,0.08333 -0.65642,0.41667 -0.65642,0.80952c0,3.10714 1.15768,5.90476 3.24628,7.90476c1.8141,1.72619 4.20107,2.7381 6.80288,2.92857v2.47619c0,0.46429 0.36998,0.83333 0.83544,0.83333c0.46546,0 0.83544,-0.36905 0.83544,-0.83333v-2.47619c2.6018,-0.17857 4.98878,-1.20238 6.80288,-2.92857c2.0886,-1.9881 3.24628,-4.79762 3.24628,-7.90476c-0.01193,-0.39286 -0.28644,-0.72619 -0.66835,-0.80952zM1.69475,18.90476c2.11247,-0.30952 3.87883,0.09524 5.27521,1.22619v0c1.79023,1.45238 2.88824,4.05952 3.05533,7.2381c-4.66653,-0.36905 -8.03217,-3.77381 -8.33054,-8.46429zM10.87267,15.86905c-3.92657,0 -7.12512,-3.19048 -7.12512,-7.10714c0,-3.91667 3.19855,-7.09524 7.12512,-7.09524c3.92657,0 7.12512,3.19048 7.12512,7.10714c0,3.91667 -3.19855,7.09524 -7.12512,7.09524zM11.73198,27.36905c0.16709,-3.17857 1.2651,-5.79762 3.05533,-7.2381v0c1.08607,-0.88095 2.41084,-1.32143 3.95044,-1.32143c0.42966,0 0.87125,0.03571 1.32477,0.10714c-0.29837,4.67857 -3.66401,8.08333 -8.33054,8.45238z" vector-effect="non-scaling-stroke"/></defs><path style="stroke-width: 0; stroke-linecap: butt; stroke-linejoin: miter; fill: rgb(154, 206, 29);" d="M21.10085,17.40476c-2.88824,-0.61905 -5.43037,-0.11905 -7.36382,1.42857c-0.79964,0.64286 -1.47992,1.45238 -2.02893,2.41667v-3.75c4.46364,-0.41667 7.96056,-4.17857 7.96056,-8.72619c0,-4.83333 -3.93851,-8.77381 -8.796,-8.77381c-4.85749,0 -8.78407,3.92857 -8.78407,8.77381c0,4.55952 3.49692,8.30952 7.96056,8.72619v3.75c-0.549,-0.95238 -1.22929,-1.77381 -2.02893,-2.41667c-1.92151,-1.54762 -4.47558,-2.04762 -7.36382,-1.42857c-0.38192,0.08333 -0.65642,0.41667 -0.65642,0.80952c0,3.10714 1.15768,5.90476 3.24628,7.90476c1.8141,1.72619 4.20107,2.7381 6.80288,2.92857v2.47619c0,0.46429 0.36998,0.83333 0.83544,0.83333c0.46546,0 0.83544,-0.36905 0.83544,-0.83333v-2.47619c2.6018,-0.17857 4.98878,-1.20238 6.80288,-2.92857c2.0886,-1.9881 3.24628,-4.79762 3.24628,-7.90476c-0.01193,-0.39286 -0.28644,-0.72619 -0.66835,-0.80952zM1.69475,18.90476c2.11247,-0.30952 3.87883,0.09524 5.27521,1.22619v0c1.79023,1.45238 2.88824,4.05952 3.05533,7.2381c-4.66653,-0.36905 -8.03217,-3.77381 -8.33054,-8.46429zM10.87267,15.86905c-3.92657,0 -7.12512,-3.19048 -7.12512,-7.10714c0,-3.91667 3.19855,-7.09524 7.12512,-7.09524c3.92657,0 7.12512,3.19048 7.12512,7.10714c0,3.91667 -3.19855,7.09524 -7.12512,7.09524zM11.73198,27.36905c0.16709,-3.17857 1.2651,-5.79762 3.05533,-7.2381v0c1.08607,-0.88095 2.41084,-1.32143 3.95044,-1.32143c0.42966,0 0.87125,0.03571 1.32477,0.10714c-0.29837,4.67857 -3.66401,8.08333 -8.33054,8.45238z" transform="translate(27.664001380104366, 21) rotate(0)" vector-effect="non-scaling-stroke"/></g><g><defs><path id="path-1746184425832495" d="M18.594529393612877 14.857142951473927 C18.129069415210502 14.857142951473927 17.75908840673682 14.488095330083151 17.75908840673682 14.023809612849588 C17.75908840673682 14.023809612849588 17.75908840673682 13.369047703930464 17.75908840673682 13.369047703930464 C16.792363836208807 13.178571512244902 15.921118235609484 12.702381033030994 15.49146287093037 11.916666742328045 C15.264700317349723 11.511904834996223 15.41985364348385 11.011904831821619 15.825639265680794 10.785714354195013 C16.23142488787774 10.559523876568406 16.732689480003373 10.714285782312928 16.95945203358402 11.119047689644749 C17.30556329957553 11.73809531262283 18.880966303398957 12.011904838170826 19.740277032757188 11.58333340687831 C19.955104715096752 11.47619054905518 20.09832316998979 11.297619119349964 20.12219291247196 11.071428641723358 C20.134127783713044 10.964285783900229 20.134127783713044 10.773809592214667 19.967039586337833 10.619047686470147 C19.823821131444795 10.488095304686322 19.53738422165872 10.297619113000758 18.94064065960439 10.130952445275893 C18.773552462229176 10.083333397354503 18.582594522371792 10.03571434943311 18.37970171127332 9.98809530151172 C17.699414050531388 9.8333333957672 16.93558229110185 9.642857204081634 16.36270847152969 9.202381010808772 C15.813704394439707 8.785714341496604 15.49146287093037 8.202381004459564 15.443723385966024 7.583333381481485 C15.39598390100168 6.976190520483752 15.622746454582327 6.380952421466367 16.076271561743617 5.916666704232807 C16.48205718394056 5.500000034920637 17.078800745994887 5.214285747392293 17.759088406736822 5.0833333656084685 C17.759088406736822 5.0833333656084685 17.759088406736822 4.452380980650041 17.759088406736822 4.452380980650041 C17.759088406736822 3.98809526341648 18.129069415210505 3.619047642025702 18.59452939361288 3.619047642025702 C19.059989372015256 3.619047642025702 19.429970380488943 3.98809526341648 19.429970380488943 4.452380980650041 C19.429970380488943 4.452380980650041 19.429970380488943 5.1190476515495105 19.429970380488943 5.1190476515495105 C20.40862982225804 5.309523843235073 21.172461581687582 5.797619084429329 21.55437746140235 6.5000000412698435 C21.769205143741907 6.9047619486016645 21.625986688848872 7.404761951776269 21.220201066651928 7.630952429402874 C20.81441544445498 7.845238145049132 20.31315085232935 7.70238100128496 20.0863882987487 7.297619093953139 C19.943169843855667 7.035714330385488 19.50157960793546 6.809523852758883 18.976445273327652 6.738095280876797 C18.296157612585716 6.642857185034016 17.580065338120527 6.797619090778535 17.28169355709336 7.107142902267575 C17.162344844682494 7.226190522071051 17.10267048847706 7.369047665835225 17.114605359718148 7.500000047619049 C17.126540230959233 7.678571477324265 17.269758685852274 7.833333383068784 17.38910739826314 7.9166667169312195 C17.675544308049215 8.142857194557825 18.26035299886246 8.27380957634165 18.761617590988095 8.392857196145128 C18.976445273327656 8.44047624406652 19.191272955667213 8.488095291987909 19.394165766765685 8.547619101889648 C20.122192912471967 8.750000055555558 20.695066732044122 9.04761910506425 21.100852354241063 9.416666726455029 C21.63792156008996 9.904761967649282 21.888553856152775 10.6071429244898 21.781140014983 11.333333405291006 C21.67372617381322 12.083333410052912 21.18439645292867 12.750000080952383 20.48023904970456 13.095238178382468 C20.16993239743631 13.250000084126986 19.811886260203714 13.357142941950118 19.429970380488943 13.416666751851855 C19.429970380488943 13.416666751851855 19.429970380488943 14.035714374829935 19.429970380488943 14.035714374829935 C19.429970380488943 14.4761905681028 19.05998937201525 14.857142951473927 18.594529393612877 14.857142951473927 C18.594529393612877 14.857142951473927 18.594529393612877 14.857142951473927 18.594529393612877 14.857142951473927 Z" vector-effect="non-scaling-stroke"/></defs> <path style="stroke-width: 0; stroke-linecap: butt; stroke-linejoin: miter; fill: rgb(154, 206, 29);" d="M38.53665703528043 35.38095247226033 C38.07119705687802 35.38095247226033 37.70121604840432 35.01190485086954 37.70121604840432 34.54761913363609 C37.70121604840432 34.54761913363609 37.70121604840432 33.89285722471686 37.70121604840432 33.89285722471686 C36.734491477876304 33.702381033031315 35.863245877276995 33.22619055381756 35.4335905125979 32.44047626311453 C35.20682795901723 32.0357143557826 35.36198128515139 31.53571435260801 35.767766907348346 31.30952387498155 C36.17355252954525 31.083333397354863 36.67481712167091 31.2380953030995 36.901579675251526 31.642857210431202 C37.247690941243036 32.26190483340929 38.82309394506649 32.53571435895719 39.68240467442473 32.10714292766488 C39.89723235676428 32.00000006984169 40.04045081165731 31.821428640136446 40.0643205541395 31.59523816250976 C40.076255425380566 31.488095304686794 40.076255425380566 31.297619113001247 39.909167228005344 31.14285720725661 C39.765948773112314 31.01190482547281 39.47951186332625 30.821428633787264 38.88276830127194 30.654761966062324 C38.715680103896716 30.60714291814088 38.524722164039304 30.559523870219664 38.321829352940824 30.51190482229822 C37.64154169219893 30.357142916553585 36.87770993276939 30.166666724868037 36.30483611319721 29.726190531595194 C35.75583203610722 29.309523862283186 35.4335905125979 28.72619052524601 35.38585102763352 28.107142902267924 C35.338111542669196 27.50000004127014 35.564874096249866 26.90476194225289 36.01839920341115 26.44047622501921 C36.42418482560811 26.023809555707203 37.02092838766242 25.738095268178768 37.701216048404376 25.607142886394968 C37.701216048404376 25.607142886394968 37.701216048404376 24.976190501436577 37.701216048404376 24.976190501436577 C37.701216048404376 24.511904784202898 38.07119705687802 24.142857162812106 38.53665703528043 24.142857162812106 C39.00211701368278 24.142857162812106 39.37209802215648 24.511904784202898 39.37209802215648 24.976190501436577 C39.37209802215648 24.976190501436577 39.37209802215648 25.64285717233588 39.37209802215648 25.64285717233588 C40.35075746392556 25.833333364021655 41.1145892233551 26.321428605215715 41.496505103069865 27.023809562056385 C41.71133278540941 27.42857146938809 41.56811433051638 27.92857147256268 41.16232870831948 28.154761950189368 C40.75654308612252 28.369047665835524 40.255278493996855 28.22619052207142 40.02851594041624 27.821428614739716 C39.88529748552321 27.55952385117189 39.443707249602994 27.33333337354543 38.918572914995195 27.261904801663377 C38.23828525425324 27.16666670582049 37.52219297978803 27.321428611564897 37.2238211987609 27.63095242305394 C37.104472486350005 27.750000042857437 37.04479813014461 27.892857186621768 37.05673300138568 28.023809568405568 C37.06866787262675 28.20238099811081 37.21188632751978 28.35714290385522 37.331235039930675 28.440476237717803 C37.61767194971674 28.666666715344263 38.202480640529984 28.797619097128063 38.70374523265559 28.91666671693156 C38.918572914995195 28.964285764853003 39.13340059733474 29.011904812774446 39.33629340843322 29.071428622676194 C40.0643205541395 29.273809576342046 40.63719437371162 29.571428625850785 41.04297999590858 29.940476247241577 C41.580049201757504 30.428571488435864 41.83068149782031 31.130952445276307 41.723267656650535 31.857142926077586 C41.61585381548076 32.60714293083947 41.12652409459622 33.273809601738776 40.422366691372076 33.61904769916896 C40.112060039103824 33.77380960491337 39.75401390187125 33.88095246273656 39.37209802215648 33.94047627263831 C39.37209802215648 33.94047627263831 39.37209802215648 34.559523895616394 39.37209802215648 34.559523895616394 C39.37209802215648 35.00000008888924 39.00211701368278 35.38095247226033 38.53665703528043 35.38095247226033 C38.53665703528043 35.38095247226033 38.53665703528043 35.38095247226033 38.53665703528043 35.38095247226033 Z" vector-effect="non-scaling-stroke"/></g><g><defs><path id="path-1746184425831493" d="M42.285248807170994 35.130952604005614 C42.32105342089426 34.91666688835936 42.30911854965317 34.51190498102754 41.95107241242056 34.19047640755816 C41.62883088891122 33.89285735804947 41.07982681182122 33.630952594481826 40.35179966611492 33.42857164081592 C40.10116737005209 33.35714306893383 39.82666533150709 33.297619259032096 39.540228421721004 33.22619068715001 C38.621243336157306 33.01190497150376 37.57097466694166 32.761904969916465 36.81907777875318 32.17857163287943 C36.126855246770134 31.64285734376379 35.72106962457318 30.91666686296259 35.66139526836775 30.14285733424 C35.601720912162314 29.380952567497754 35.8881578219484 28.64285732471621 36.44909677027949 28.04761922569883 C37.02197058985166 27.452381126681455 37.91708593293318 27.059523981329985 38.93154998842557 26.916666837565813 C38.93154998842557 26.916666837565813 38.93154998842557 25.72619063953106 38.93154998842557 25.72619063953106 C38.93154998842557 25.261904922297507 39.301530996899274 24.89285730090673 39.76699097530165 24.89285730090673 C40.232450953704046 24.89285730090673 40.60243196217775 25.261904922297507 40.60243196217775 25.72619063953106 C40.60243196217775 25.72619063953106 40.60243196217775 26.92857159954616 40.60243196217775 26.92857159954616 C42.02268163986709 27.13095255321207 43.132624665288176 27.797619224111536 43.64582412865491 28.750000182539342 C43.860651810994476 29.15476208987116 43.71743335610143 29.65476209304575 43.31164773390447 29.880952570672353 C42.90586211170752 30.095238286318608 42.40459751958187 29.952381142554437 42.17783496600121 29.547619235222623 C41.9152677986973 29.059523994028375 41.234980137955354 28.702381134617948 40.339864794873826 28.58333351481447 C39.25379151193492 28.440476371050302 38.14384848651384 28.6904763726376 37.65451876562928 29.21428589977289 C37.41582134080753 29.452381139379842 37.30840749963775 29.750000188888528 37.32034237087884 30.023809714436528 C37.344212113361 30.33333352592556 37.52323518197731 30.619047813453903 37.83354183424558 30.869047815041206 C38.299001812647965 31.226190674451633 39.122507928282964 31.428571628117542 39.9102094301947 31.607143057822753 C40.20858121122187 31.67857162970484 40.50695299224905 31.750000201586925 40.79338990203513 31.833333535449356 C41.77204934380426 32.10714306099735 42.53588110323383 32.50000020634882 43.06101543784164 32.97619068556272 C43.72936822734252 33.59523830854079 44.03967487961077 34.46428593310616 43.90839129595882 35.380952605592924 C43.777107712306865 36.33333356402073 43.15649440777034 37.17857166462541 42.26137906468882 37.619047857898266 C41.77204934380426 37.85714309750522 41.19917552423209 38.01190500324974 40.57856221969556 38.08333357513182 C40.57856221969556 38.08333357513182 40.57856221969556 39.261905011186215 40.57856221969556 39.261905011186215 C40.57856221969556 39.72619072841977 40.20858121122186 40.09523834981055 39.743121232819476 40.09523834981055 C39.2776612544171 40.09523834981055 38.907680245943396 39.72619072841977 38.907680245943396 39.261905011186215 C38.907680245943396 39.261905011186215 38.907680245943396 38.03571452721042 38.907680245943396 38.03571452721042 C37.535170053218394 37.833333573544515 36.24620395918101 37.19047642660575 35.66139526836775 36.119047848374464 C35.43463271478711 35.71428594104265 35.589786040921226 35.21428593786805 35.995571663118184 34.988095460241446 C36.401357285315136 34.761904982614844 36.902621877440794 34.91666688835936 37.12938443102144 35.321428795691176 C37.74999773555796 36.452381183824194 40.232450953704046 36.76190499531324 41.52141704774144 36.13095261035482 C41.95107241242056 35.90476213272821 42.22557445096556 35.54761927331778 42.285248807170994 35.130952604005614 C42.285248807170994 35.130952604005614 42.285248807170994 35.130952604005614 42.285248807170994 35.130952604005614 Z" vector-effect="non-scaling-stroke"/></defs> <path style="stroke-width: 0; stroke-linecap: butt; stroke-linejoin: miter; fill: rgb(154, 206, 29);" d="M62.22737644883739 55.65476212479189 C62.26318106256065 55.440476409145504 62.25124619131958 55.0357145018138 61.89320005408695 54.71428592834445 C61.57095853057763 54.41666687883571 61.02195445348764 54.15476211526811 60.2939273077813 53.95238116160226 C60.0432950117185 53.88095258971998 59.768792973173504 53.821428779818234 59.482356063387385 53.75000020793618 C58.563370977823695 53.535714492290026 57.51310230860804 53.28571449070273 56.76120542041957 52.70238115366578 C56.068982888436494 52.16666686455005 55.66319726623959 51.44047638374877 55.603522910034144 50.66666685502628 C55.543848553828695 49.90476208828409 55.830285463614814 49.166666845502505 56.39122441194587 48.571428746485026 C56.96409823151805 47.976190647467774 57.85921357459955 47.58333350211615 58.87367763009195 47.44047635835204 C58.87367763009195 47.44047635835204 58.87367763009195 46.25000016031731 58.87367763009195 46.25000016031731 C58.87367763009195 45.78571444308386 59.24365863856565 45.41666682169307 59.709118616968055 45.41666682169307 C60.17457859537046 45.41666682169307 60.544559603844164 45.78571444308386 60.544559603844164 46.25000016031731 C60.544559603844164 46.25000016031731 60.544559603844164 47.45238112033235 60.544559603844164 47.45238112033235 C61.96480928153346 47.65476207399843 63.074752306954565 48.32142874489773 63.5879517703213 49.273809703325696 C63.80277945266084 49.6785716106574 63.65956099776781 50.17857161383199 63.253775375570854 50.40476209145868 C62.847989753373895 50.619047807104835 62.34672516124829 50.47619066334073 62.11996260766762 50.0714287560088 C61.85739544036369 49.58333351481451 61.177107779621736 49.22619065540425 60.281992436540236 49.10714303560076 C59.195919153601324 48.96428589183665 58.08597612818022 49.21428589342395 57.59664640729568 49.73809542055915 C57.35794898247394 49.97619066016614 57.25053514130411 50.27380970967488 57.262470012545236 50.54761923522278 C57.28633975502737 50.857143046711826 57.465362823643716 51.142857334240034 57.77566947591197 51.39285733582756 C58.241129454314375 51.75000019523782 59.06463556994936 51.952381148903896 59.852337071861086 52.13095257860891 C60.15070885288827 52.20238115049119 60.44908063391546 52.273809722373244 60.73551754370152 52.3571430562356 C61.71417698547066 52.630952581783504 62.478008744900194 53.02380972713513 63.00314307950805 53.500000206348886 C63.671495869008936 54.11904782932697 63.98180252127713 54.988095453892356 63.850518937625225 55.90476212637918 C63.71923535397326 56.85714308480692 63.0986220494367 57.702381185411696 62.2035067063552 58.14285737868454 C61.71417698547066 58.38095261829153 61.14130316589848 58.53571452403594 60.52068986136197 58.60714309591799 C60.52068986136197 58.60714309591799 60.52068986136197 59.78571453197242 60.52068986136197 59.78571453197242 C60.52068986136197 60.250000249206096 60.15070885288827 60.61904787059689 59.685248874485865 60.61904787059689 C59.219788896083514 60.61904787059689 58.84980788760981 60.250000249206096 58.84980788760981 59.78571453197242 C58.84980788760981 59.78571453197242 58.84980788760981 58.559524047996774 58.84980788760981 58.559524047996774 C57.47729769488478 58.357143094330695 56.18833160084739 57.714285947392 55.603522910034144 56.642857369160765 C55.376760356453474 56.238095461828834 55.53191368258763 55.73809545865424 55.93769930478459 55.51190498102778 C56.343484926981546 55.285714503401095 56.844749519107154 55.440476409145504 57.071512072687824 55.845238316477435 C57.69212537722433 56.97619070461042 60.17457859537046 57.28571451609946 61.463544689407854 56.65476213114107 C61.89320005408695 56.42857165351438 62.16770209263194 56.07142879410412 62.22737644883739 55.65476212479189 C62.22737644883739 55.65476212479189 62.22737644883739 55.65476212479189 62.22737644883739 55.65476212479189 Z" vector-effect="non-scaling-stroke"/></g></svg>