<svg height="100" overflow="visible" viewBox="0 0 279.9999999999991 100" width="279.9999999999991" xmlns="http://www.w3.org/2000/svg"><g><defs><path id="path-17464296482821090" d="M0 10.000000000000002 C0 4.477152502000001 4.477152502000001 0 10.000000000000002 0 C10.000000000000002 0 270 0 270 0 C275.522847498 0 280 4.477152502000001 280 10.000000000000002 C280 10.000000000000002 280 90 280 90 C280 95.522847498 275.522847498 100 270 100 C270 100 10.000000000000002 100 10.000000000000002 100 C4.477152502000001 100 0 95.522847498 0 90 C0 90 0 10.000000000000002 0 10.000000000000002 Z" vector-effect="non-scaling-stroke"/></defs> <path style="stroke: rgb(140, 140, 140); stroke-width: 0; stroke-linecap: butt; stroke-linejoin: miter; fill: rgb(247, 247, 247);" d="M0 10.000000000000002 C0 4.477152502000001 4.477152502000001 0 10.000000000000002 0 C10.000000000000002 0 270 0 270 0 C275.522847498 0 280 4.477152502000001 280 10.000000000000002 C280 10.000000000000002 280 90 280 90 C280 95.522847498 275.522847498 100 270 100 C270 100 10.000000000000002 100 10.000000000000002 100 C4.477152502000001 100 0 95.522847498 0 90 C0 90 0 10.000000000000002 0 10.000000000000002 Z" vector-effect="non-scaling-stroke"/></g><g><defs><path id="path-1746429648225913" d="M50.04885,0c0,16.41029 0,32.81257 0.016,49.22286c0,0.61669 -0.13598,0.78487 -0.77589,0.77687c-16.17369,-0.02403 -32.33938,-0.02403 -48.51307,0c-0.63991,0 -0.77589,-0.16018 -0.77589,-0.77687c0.016,-16.41029 0.016,-32.81257 0.016,-49.22286zM10.15055,31.35495c0,2.37064 0.008,4.74929 -0.008,7.11994c0,0.40045 0.09599,0.54461 0.51193,0.52859c0.66391,-0.03204 1.33581,-0.04805 1.99971,0c0.58392,0.04805 0.77589,-0.09611 0.75989,-0.72881c-0.04799,-2.08232 -0.016,-4.16464 -0.024,-6.24696c0,-0.36841 0.032,-0.60868 0.46393,-0.28832c1.02385,0.74483 2.17569,1.12125 3.43151,1.17731c2.21568,0.10412 4.1994,-0.45651 5.83117,-2.04228c0.26396,-0.25629 0.36795,-0.44049 0.032,-0.75284c-0.48793,-0.4485 -0.95186,-0.93704 -1.35981,-1.45762c-0.35195,-0.4485 -0.57592,-0.37642 -0.97586,-0.04805c-1.87173,1.54572 -4.39137,1.56174 -6.04714,0c-1.3918,-1.31346 -1.71975,-3.00335 -1.3678,-4.82137c0.33595,-1.74595 1.31981,-3.01937 3.07156,-3.52393c1.72775,-0.49655 3.29553,-0.15217 4.59134,1.16129c0.99986,1.00912 1.61577,2.25852 2.22368,3.51592c0.7039,1.45762 1.34381,2.95529 2.23168,4.31681c1.35981,2.07431 3.16755,3.39578 5.73518,3.63605c4.75132,0.4485 8.64676,-3.01937 8.65476,-7.78468c0,-1.95418 0,-3.91637 0,-5.87054c0,-2.56286 -0.016,-5.12571 0.016,-7.68056c0,-0.48054 -0.13598,-0.60067 -0.59192,-0.57664c-0.7279,0.04004 -1.46379,0.04004 -2.18369,0c-0.49593,-0.03204 -0.62391,0.12013 -0.61591,0.61669c0.032,2.10635 0.016,4.20469 0.008,6.31103c0,0.13615 0.024,0.34438 -0.05599,0.40846c-0.16798,0.13615 -0.29596,-0.08009 -0.41594,-0.16018c-0.95186,-0.65673 -1.99971,-1.02514 -3.14355,-1.09722c-2.23968,-0.15217 -4.24739,0.40045 -5.92715,1.95418c-0.33595,0.30434 -0.44794,0.52859 -0.03999,0.88899c0.47993,0.42447 0.92787,0.90501 1.32781,1.40957c0.31995,0.40846 0.52792,0.38443 0.91987,0.06407c1.57577,-1.28944 3.33552,-1.60179 5.17526,-0.65673c1.87173,0.96107 2.45565,2.68299 2.39166,4.6612c-0.06399,1.98621 -1.24782,3.64406 -2.95158,4.25274c-1.84774,0.65673 -3.71147,0.16018 -5.08727,-1.37754c-0.91187,-1.02514 -1.47979,-2.25852 -2.0717,-3.47587c-0.73589,-1.51369 -1.3918,-3.06742 -2.37566,-4.45296c-1.31981,-1.85807 -3.04756,-2.98733 -5.36723,-3.26764c-4.68733,-0.55262 -8.73475,2.94729 -8.75875,7.67255c-0.016,2.21046 0,4.41292 0,6.62338z" vector-effect="non-scaling-stroke"/></defs><path style="stroke-width: 0; stroke-linecap: butt; stroke-linejoin: miter; fill: rgb(71, 184, 114);" d="M50.04885,0c0,16.41029 0,32.81257 0.016,49.22286c0,0.61669 -0.13598,0.78487 -0.77589,0.77687c-16.17369,-0.02403 -32.33938,-0.02403 -48.51307,0c-0.63991,0 -0.77589,-0.16018 -0.77589,-0.77687c0.016,-16.41029 0.016,-32.81257 0.016,-49.22286zM10.15055,31.35495c0,2.37064 0.008,4.74929 -0.008,7.11994c0,0.40045 0.09599,0.54461 0.51193,0.52859c0.66391,-0.03204 1.33581,-0.04805 1.99971,0c0.58392,0.04805 0.77589,-0.09611 0.75989,-0.72881c-0.04799,-2.08232 -0.016,-4.16464 -0.024,-6.24696c0,-0.36841 0.032,-0.60868 0.46393,-0.28832c1.02385,0.74483 2.17569,1.12125 3.43151,1.17731c2.21568,0.10412 4.1994,-0.45651 5.83117,-2.04228c0.26396,-0.25629 0.36795,-0.44049 0.032,-0.75284c-0.48793,-0.4485 -0.95186,-0.93704 -1.35981,-1.45762c-0.35195,-0.4485 -0.57592,-0.37642 -0.97586,-0.04805c-1.87173,1.54572 -4.39137,1.56174 -6.04714,0c-1.3918,-1.31346 -1.71975,-3.00335 -1.3678,-4.82137c0.33595,-1.74595 1.31981,-3.01937 3.07156,-3.52393c1.72775,-0.49655 3.29553,-0.15217 4.59134,1.16129c0.99986,1.00912 1.61577,2.25852 2.22368,3.51592c0.7039,1.45762 1.34381,2.95529 2.23168,4.31681c1.35981,2.07431 3.16755,3.39578 5.73518,3.63605c4.75132,0.4485 8.64676,-3.01937 8.65476,-7.78468c0,-1.95418 0,-3.91637 0,-5.87054c0,-2.56286 -0.016,-5.12571 0.016,-7.68056c0,-0.48054 -0.13598,-0.60067 -0.59192,-0.57664c-0.7279,0.04004 -1.46379,0.04004 -2.18369,0c-0.49593,-0.03204 -0.62391,0.12013 -0.61591,0.61669c0.032,2.10635 0.016,4.20469 0.008,6.31103c0,0.13615 0.024,0.34438 -0.05599,0.40846c-0.16798,0.13615 -0.29596,-0.08009 -0.41594,-0.16018c-0.95186,-0.65673 -1.99971,-1.02514 -3.14355,-1.09722c-2.23968,-0.15217 -4.24739,0.40045 -5.92715,1.95418c-0.33595,0.30434 -0.44794,0.52859 -0.03999,0.88899c0.47993,0.42447 0.92787,0.90501 1.32781,1.40957c0.31995,0.40846 0.52792,0.38443 0.91987,0.06407c1.57577,-1.28944 3.33552,-1.60179 5.17526,-0.65673c1.87173,0.96107 2.45565,2.68299 2.39166,4.6612c-0.06399,1.98621 -1.24782,3.64406 -2.95158,4.25274c-1.84774,0.65673 -3.71147,0.16018 -5.08727,-1.37754c-0.91187,-1.02514 -1.47979,-2.25852 -2.0717,-3.47587c-0.73589,-1.51369 -1.3918,-3.06742 -2.37566,-4.45296c-1.31981,-1.85807 -3.04756,-2.98733 -5.36723,-3.26764c-4.68733,-0.55262 -8.73475,2.94729 -8.75875,7.67255c-0.016,2.21046 0,4.41292 0,6.62338z" transform="translate(40.00000000000006, 25.000000000000227) rotate(0)" vector-effect="non-scaling-stroke"/></g><g><defs><path id="path-1746429648224911" d="M0.008,10.33249c0,-3.25162 0.008,-6.49524 -0.008,-9.74686c0,-0.46452 0.10399,-0.58465 0.57592,-0.57664c2.7756,0.02403 5.54321,-0.04805 8.31881,0.02403c6.15912,0.16018 10.14255,4.26075 10.20654,10.1393c0.032,3.09145 -0.82388,5.83851 -3.15955,7.96888c-1.95172,1.77798 -4.32738,2.54684 -6.91901,2.6029c-2.8316,0.06407 -5.67119,0 -8.50278,0.02403c-0.40794,0 -0.51193,-0.11212 -0.51193,-0.51257c0.016,-3.30769 0.008,-6.62338 0.008,-9.93107zM3.38352,10.33249c0,2.22648 0,4.45296 0,6.67944c0,0.20823 -0.14398,0.52058 0.31196,0.50456c2.06371,-0.05606 4.12741,0.14416 6.17512,-0.14416c2.03971,-0.28031 3.69547,-1.23337 4.74332,-3.06742c0.85588,-1.50568 0.99986,-3.14751 0.90387,-4.82938c-0.19997,-3.45986 -2.40766,-5.8305 -5.83117,-6.22294c-1.92772,-0.22425 -3.87145,-0.05606 -5.80717,-0.12013c-0.41594,-0.01602 -0.51193,0.11212 -0.51193,0.51257c0.016,2.22648 0.008,4.45296 0.008,6.67944z" vector-effect="non-scaling-stroke"/></defs><path style="stroke-width: 0; stroke-linecap: butt; stroke-linejoin: miter; fill: rgb(2, 2, 2);" d="M0.008,10.33249c0,-3.25162 0.008,-6.49524 -0.008,-9.74686c0,-0.46452 0.10399,-0.58465 0.57592,-0.57664c2.7756,0.02403 5.54321,-0.04805 8.31881,0.02403c6.15912,0.16018 10.14255,4.26075 10.20654,10.1393c0.032,3.09145 -0.82388,5.83851 -3.15955,7.96888c-1.95172,1.77798 -4.32738,2.54684 -6.91901,2.6029c-2.8316,0.06407 -5.67119,0 -8.50278,0.02403c-0.40794,0 -0.51193,-0.11212 -0.51193,-0.51257c0.016,-3.30769 0.008,-6.62338 0.008,-9.93107zM3.38352,10.33249c0,2.22648 0,4.45296 0,6.67944c0,0.20823 -0.14398,0.52058 0.31196,0.50456c2.06371,-0.05606 4.12741,0.14416 6.17512,-0.14416c2.03971,-0.28031 3.69547,-1.23337 4.74332,-3.06742c0.85588,-1.50568 0.99986,-3.14751 0.90387,-4.82938c-0.19997,-3.45986 -2.40766,-5.8305 -5.83117,-6.22294c-1.92772,-0.22425 -3.87145,-0.05606 -5.80717,-0.12013c-0.41594,-0.01602 -0.51193,0.11212 -0.51193,0.51257c0.016,2.22648 0.008,4.45296 0.008,6.67944z" transform="translate(189.4746338381825, 38.10163011677105) rotate(0)" vector-effect="non-scaling-stroke"/></g><g><defs><path id="path-1746429648224909" d="M0.008,10.25177c0,-3.2276 0.008,-6.4552 -0.008,-9.67478c0,-0.45651 0.09599,-0.58465 0.56792,-0.57664c2.68762,0.02403 5.37523,-0.02403 8.06285,0.02403c2.1197,0.04004 4.10341,0.55262 5.52721,2.26653c2.98357,3.59601 1.01585,9.12217 -3.55949,10.09125c-1.21583,0.25629 -2.43965,0.25629 -3.66348,0.24828c-0.97586,-0.00801 -1.95172,-0.02403 -2.92758,-0.06407c-0.45593,-0.02403 -0.63191,0.06407 -0.62391,0.58465c0.032,2.29055 0,4.58111 0.032,6.86365c0.008,0.54461 -0.15998,0.65673 -0.65591,0.6247c-0.74389,-0.04805 -1.50379,-0.04004 -2.24768,0c-0.43194,0.02403 -0.49593,-0.13615 -0.49593,-0.52058c0.016,-3.29167 0.008,-6.57533 0.008,-9.867zM3.38352,6.25532c0,0.91302 0,1.83404 0,2.74706c0,0.1762 -0.05599,0.38443 0.25596,0.37642c1.95172,-0.05606 3.91944,0.15217 5.86316,-0.15217c0.88787,-0.13615 1.66376,-0.54461 2.1037,-1.39355c1.07185,-2.0663 -0.05599,-4.27677 -2.35166,-4.58111c-1.84774,-0.24828 -3.70347,-0.06407 -5.55121,-0.12013c-0.31995,-0.00801 -0.31995,0.15217 -0.31196,0.38443c0,0.91302 0,1.83404 0,2.74706z" vector-effect="non-scaling-stroke"/></defs><path style="stroke-width: 0; stroke-linecap: butt; stroke-linejoin: miter; fill: rgb(2, 2, 2);" d="M0.008,10.25177c0,-3.2276 0.008,-6.4552 -0.008,-9.67478c0,-0.45651 0.09599,-0.58465 0.56792,-0.57664c2.68762,0.02403 5.37523,-0.02403 8.06285,0.02403c2.1197,0.04004 4.10341,0.55262 5.52721,2.26653c2.98357,3.59601 1.01585,9.12217 -3.55949,10.09125c-1.21583,0.25629 -2.43965,0.25629 -3.66348,0.24828c-0.97586,-0.00801 -1.95172,-0.02403 -2.92758,-0.06407c-0.45593,-0.02403 -0.63191,0.06407 -0.62391,0.58465c0.032,2.29055 0,4.58111 0.032,6.86365c0.008,0.54461 -0.15998,0.65673 -0.65591,0.6247c-0.74389,-0.04805 -1.50379,-0.04004 -2.24768,0c-0.43194,0.02403 -0.49593,-0.13615 -0.49593,-0.52058c0.016,-3.29167 0.008,-6.57533 0.008,-9.867zM3.38352,6.25532c0,0.91302 0,1.83404 0,2.74706c0,0.1762 -0.05599,0.38443 0.25596,0.37642c1.95172,-0.05606 3.91944,0.15217 5.86316,-0.15217c0.88787,-0.13615 1.66376,-0.54461 2.1037,-1.39355c1.07185,-2.0663 -0.05599,-4.27677 -2.35166,-4.58111c-1.84774,-0.24828 -3.70347,-0.06407 -5.55121,-0.12013c-0.31995,-0.00801 -0.31995,0.15217 -0.31196,0.38443c0,0.91302 0,1.83404 0,2.74706z" transform="translate(105.05470096890537, 38.118277328240765) rotate(0)" vector-effect="non-scaling-stroke"/></g><g><defs><path id="path-1746429648224907" d="M11.47911,19.71514c-1.98372,2.13838 -4.31138,2.44272 -6.80703,1.56174c-2.67962,-0.94505 -4.15141,-2.98733 -4.55935,-5.7424c-0.43194,-2.93928 0.35195,-5.51815 2.7916,-7.3602c1.95172,-1.47364 4.1674,-1.78599 6.49507,-0.92904c0.79989,0.28832 1.44779,0.80089 1.98372,1.46563c0.17597,-0.16018 0.08799,-0.3604 0.08799,-0.52859c0,-2.5148 0.016,-5.03761 0,-7.55242c0,-0.45651 0.06399,-0.66474 0.59192,-0.6247c0.66391,0.05606 1.33581,0.05606 1.99971,0c0.50393,-0.04004 0.55992,0.15217 0.55992,0.59266c-0.016,5.39001 -0.008,10.78002 -0.008,16.17002c0,1.35351 -0.008,2.70702 0.008,4.06053c0,0.34438 -0.07999,0.46452 -0.43994,0.4485c-0.75189,-0.02403 -1.50379,-0.02403 -2.24768,0c-0.34395,0.00801 -0.48793,-0.08009 -0.44794,-0.44049c0.032,-0.32837 0,-0.66474 0,-1.12125zM11.60709,14.26907c0,-0.20823 0.024,-0.41646 0,-0.6247c-0.19997,-1.64183 -0.95186,-2.94729 -2.51164,-3.588c-1.59977,-0.65673 -3.19154,-0.48854 -4.47936,0.72881c-1.50379,1.41758 -1.72775,3.21158 -1.15184,5.1177c0.42394,1.40957 1.3678,2.37064 2.8076,2.74706c2.91958,0.76085 5.35923,-1.23337 5.34324,-4.37287z" vector-effect="non-scaling-stroke"/></defs><path style="stroke-width: 0; stroke-linecap: butt; stroke-linejoin: miter; fill: rgb(2, 2, 2);" d="M11.47911,19.71514c-1.98372,2.13838 -4.31138,2.44272 -6.80703,1.56174c-2.67962,-0.94505 -4.15141,-2.98733 -4.55935,-5.7424c-0.43194,-2.93928 0.35195,-5.51815 2.7916,-7.3602c1.95172,-1.47364 4.1674,-1.78599 6.49507,-0.92904c0.79989,0.28832 1.44779,0.80089 1.98372,1.46563c0.17597,-0.16018 0.08799,-0.3604 0.08799,-0.52859c0,-2.5148 0.016,-5.03761 0,-7.55242c0,-0.45651 0.06399,-0.66474 0.59192,-0.6247c0.66391,0.05606 1.33581,0.05606 1.99971,0c0.50393,-0.04004 0.55992,0.15217 0.55992,0.59266c-0.016,5.39001 -0.008,10.78002 -0.008,16.17002c0,1.35351 -0.008,2.70702 0.008,4.06053c0,0.34438 -0.07999,0.46452 -0.43994,0.4485c-0.75189,-0.02403 -1.50379,-0.02403 -2.24768,0c-0.34395,0.00801 -0.48793,-0.08009 -0.44794,-0.44049c0.032,-0.32837 0,-0.66474 0,-1.12125zM11.60709,14.26907c0,-0.20823 0.024,-0.41646 0,-0.6247c-0.19997,-1.64183 -0.95186,-2.94729 -2.51164,-3.588c-1.59977,-0.65673 -3.19154,-0.48854 -4.47936,0.72881c-1.50379,1.41758 -1.72775,3.21158 -1.15184,5.1177c0.42394,1.40957 1.3678,2.37064 2.8076,2.74706c2.91958,0.76085 5.35923,-1.23337 5.34324,-4.37287z" transform="translate(154.36690236063254, 37.472737792053294) rotate(0)" vector-effect="non-scaling-stroke"/></g><g><defs><path id="path-1746429648224905" d="M11.43346,1.9899c0.08799,-0.59266 -0.19197,-1.28944 0.12798,-1.52971c0.33595,-0.24828 0.99186,-0.09611 1.51178,-0.0881c0.49593,0.00801 1.16783,-0.21624 1.4318,0.09611c0.24796,0.29633 0.09599,0.94505 0.09599,1.44161c0,4.01247 0,8.03295 0.016,12.04543c0,0.42447 -0.08799,0.57664 -0.53592,0.55262c-0.7279,-0.04004 -1.45579,-0.02403 -2.18369,0c-0.31196,0.00801 -0.45593,-0.05606 -0.42394,-0.40846c0.032,-0.34438 0,-0.69678 0,-1.17731c-0.82388,0.92103 -1.70376,1.52971 -2.7916,1.81803c-3.95943,1.03315 -8.06285,-1.80201 -8.59077,-5.94262c-0.36795,-2.93928 0.34395,-5.52616 2.7756,-7.37622c1.96772,-1.49767 4.1914,-1.81002 6.54306,-0.94505c0.79189,0.28832 1.4318,0.8089 2.02371,1.5217zM11.59344,7.47602c0,-0.20823 0.024,-0.41646 0,-0.6247c-0.20797,-1.64183 -0.95986,-2.94729 -2.52764,-3.57999c-1.58377,-0.64071 -3.12755,-0.47253 -4.43137,0.70479c-1.3838,1.24939 -1.67176,2.8752 -1.32781,4.62916c0.29596,1.49767 1.13584,2.61892 2.61563,3.15552c2.96758,1.0732 5.69519,-0.9851 5.67919,-4.28478z" vector-effect="non-scaling-stroke"/></defs><path style="stroke-width: 0; stroke-linecap: butt; stroke-linejoin: miter; fill: rgb(2, 2, 2);" d="M11.43346,1.9899c0.08799,-0.59266 -0.19197,-1.28944 0.12798,-1.52971c0.33595,-0.24828 0.99186,-0.09611 1.51178,-0.0881c0.49593,0.00801 1.16783,-0.21624 1.4318,0.09611c0.24796,0.29633 0.09599,0.94505 0.09599,1.44161c0,4.01247 0,8.03295 0.016,12.04543c0,0.42447 -0.08799,0.57664 -0.53592,0.55262c-0.7279,-0.04004 -1.45579,-0.02403 -2.18369,0c-0.31196,0.00801 -0.45593,-0.05606 -0.42394,-0.40846c0.032,-0.34438 0,-0.69678 0,-1.17731c-0.82388,0.92103 -1.70376,1.52971 -2.7916,1.81803c-3.95943,1.03315 -8.06285,-1.80201 -8.59077,-5.94262c-0.36795,-2.93928 0.34395,-5.52616 2.7756,-7.37622c1.96772,-1.49767 4.1914,-1.81002 6.54306,-0.94505c0.79189,0.28832 1.4318,0.8089 2.02371,1.5217zM11.59344,7.47602c0,-0.20823 0.024,-0.41646 0,-0.6247c-0.20797,-1.64183 -0.95986,-2.94729 -2.52764,-3.57999c-1.58377,-0.64071 -3.12755,-0.47253 -4.43137,0.70479c-1.3838,1.24939 -1.67176,2.8752 -1.32781,4.62916c0.29596,1.49767 1.13584,2.61892 2.61563,3.15552c2.96758,1.0732 5.69519,-0.9851 5.67919,-4.28478z" transform="translate(171.3861204288005, 44.257781261896525) rotate(0)" vector-effect="non-scaling-stroke"/></g><g><defs><path id="path-1746429648223903" d="M11.48458,1.96783c0.08799,-0.58465 -0.19197,-1.28143 0.12798,-1.51369c0.33595,-0.25629 0.99186,-0.10412 1.50379,-0.09611c0.49593,0 1.16783,-0.21624 1.4318,0.0881c0.24796,0.29633 0.09599,0.94505 0.09599,1.44161c0,4.01247 0,8.03295 0.016,12.04543c0,0.42447 -0.07999,0.57664 -0.53592,0.55262c-0.7279,-0.04004 -1.45579,-0.02403 -2.18369,0c-0.31196,0.00801 -0.45593,-0.05606 -0.42394,-0.40045c0.032,-0.34438 0,-0.69678 0,-1.16129c-0.83988,0.91302 -1.74375,1.53771 -2.85559,1.81002c-3.91144,0.95306 -7.83888,-1.64183 -8.51078,-5.67032c-0.51193,-3.09945 0.24796,-5.79045 2.84759,-7.75264c2.0957,-1.56975 5.11127,-1.72993 7.17497,-0.48054c0.47993,0.29633 0.86388,0.68877 1.31181,1.13727zM7.41316,11.99501c2.50364,0 4.2154,-1.87409 4.2074,-4.58111c0,-2.6029 -1.80774,-4.51703 -4.24739,-4.50102c-2.47165,0.01602 -4.2234,1.92214 -4.2154,4.59712c0,2.62693 1.77575,4.485 4.25539,4.47699z" vector-effect="non-scaling-stroke"/></defs><path style="stroke-width: 0; stroke-linecap: butt; stroke-linejoin: miter; fill: rgb(2, 2, 2);" d="M11.48458,1.96783c0.08799,-0.58465 -0.19197,-1.28143 0.12798,-1.51369c0.33595,-0.25629 0.99186,-0.10412 1.50379,-0.09611c0.49593,0 1.16783,-0.21624 1.4318,0.0881c0.24796,0.29633 0.09599,0.94505 0.09599,1.44161c0,4.01247 0,8.03295 0.016,12.04543c0,0.42447 -0.07999,0.57664 -0.53592,0.55262c-0.7279,-0.04004 -1.45579,-0.02403 -2.18369,0c-0.31196,0.00801 -0.45593,-0.05606 -0.42394,-0.40045c0.032,-0.34438 0,-0.69678 0,-1.16129c-0.83988,0.91302 -1.74375,1.53771 -2.85559,1.81002c-3.91144,0.95306 -7.83888,-1.64183 -8.51078,-5.67032c-0.51193,-3.09945 0.24796,-5.79045 2.84759,-7.75264c2.0957,-1.56975 5.11127,-1.72993 7.17497,-0.48054c0.47993,0.29633 0.86388,0.68877 1.31181,1.13727zM7.41316,11.99501c2.50364,0 4.2154,-1.87409 4.2074,-4.58111c0,-2.6029 -1.80774,-4.51703 -4.24739,-4.50102c-2.47165,0.01602 -4.2234,1.92214 -4.2154,4.59712c0,2.62693 1.77575,4.485 4.25539,4.47699z" transform="translate(121.18217479250688, 44.27184782252607) rotate(0)" vector-effect="non-scaling-stroke"/></g><g><defs><path id="path-1746429648223901" d="M0.00006,7.50436c-0.016,-4.29278 3.24754,-7.49636 7.63091,-7.50436c4.31138,0 7.63091,3.17154 7.63891,7.29613c0.008,4.42093 -3.14355,7.60047 -7.55892,7.61649c-4.43137,0.01602 -7.6949,-3.12348 -7.7109,-7.40826zM7.61497,11.99737c2.55963,0.01602 4.43137,-1.85807 4.44736,-4.44495c0.016,-2.67498 -1.84774,-4.62916 -4.41537,-4.62916c-2.48764,0 -4.40737,1.92214 -4.42337,4.43695c-0.016,2.69901 1.80774,4.62916 4.39137,4.64518z" vector-effect="non-scaling-stroke"/></defs><path style="stroke-width: 0; stroke-linecap: butt; stroke-linejoin: miter; fill: rgb(2, 2, 2);" d="M0.00006,7.50436c-0.016,-4.29278 3.24754,-7.49636 7.63091,-7.50436c4.31138,0 7.63091,3.17154 7.63891,7.29613c0.008,4.42093 -3.14355,7.60047 -7.55892,7.61649c-4.43137,0.01602 -7.6949,-3.12348 -7.7109,-7.40826zM7.61497,11.99737c2.55963,0.01602 4.43137,-1.85807 4.44736,-4.44495c0.016,-2.67498 -1.84774,-4.62916 -4.41537,-4.62916c-2.48764,0 -4.40737,1.92214 -4.42337,4.43695c-0.016,2.69901 1.80774,4.62916 4.39137,4.64518z" transform="translate(210.16761481188502, 44.269477908273075) rotate(0)" vector-effect="non-scaling-stroke"/></g><g><defs><path id="path-1746429648223899" d="M102.20139115697762 36.344509870219106 C104.56905271935261 33.285099828257074 109.6163312526588 33.96585860722769 111.36008199792145 36.60880445499593 C111.94399853188558 37.49779533106343 112.31994479347888 38.466875475245125 112.32794365010852 39.52405381435243 C112.35194021999749 42.50337458820026 112.32794365010852 45.474686435236684 112.34394136336783 48.45400720908453 C112.34394136336783 48.7823732083527 112.29594822358997 48.93454281776967 111.912003105367 48.918524964146826 C111.16011058218035 48.88648925690116 110.4082180589937 48.87848033008974 109.66432439243667 48.918524964146826 C109.24838384769512 48.94255174458109 109.20039070791725 48.7823732083527 109.20039070791725 48.42197150183885 C109.20039070791725 45.859114922184794 109.22438727780619 43.30426726934216 109.1763941380283 40.74141068968811 C109.1363998548801 38.58700937741642 107.92857250380365 37.321598941212216 105.96885262954055 37.28956323396654 C103.86515333594386 37.257527526720864 102.28937857990374 38.651080791907766 102.23338658349621 40.73340176287668 C102.16939573045906 43.272231562096486 102.19339230034801 45.81106136131629 102.20939001360728 48.34989116053608 C102.20939001360728 48.83042676922122 102.08140830753295 48.94255174458109 101.62547347964319 48.918524964146826 C100.9215740962344 48.87848033008974 100.20967585619596 48.90250711052399 99.49777761615755 48.918524964146826 C99.21781763411994 48.918524964146826 99.05784050152704 48.91051603733541 99.05784050152704 48.534096477198716 C99.07383821478633 44.04108853599271 99.07383821478633 39.54007166797526 99.05784050152704 35.047063726769245 C99.05784050152704 34.74272450793533 99.14582792445314 34.654626313009715 99.44178561975002 34.66263523982114 C100.2336724260849 34.67865309344398 101.02555923241981 34.686662020255405 101.81744603875467 34.66263523982114 C102.12140259068117 34.66263523982114 102.21738887023693 34.742724507935336 102.20139115697765 35.047063726769245 C102.1773945870887 35.43950114052877 102.20139115697765 35.83193855428829 102.20139115697765 36.35251879703054 C102.20139115697765 36.35251879703054 102.20139115697762 36.344509870219106 102.20139115697762 36.344509870219106 Z" vector-effect="non-scaling-stroke"/></defs> <path style="stroke-width: 0; stroke-linecap: butt; stroke-linejoin: miter; fill: rgb(2, 2, 2);" d="M142.20939001360773 46.30374531837424 C144.57705157598275 43.24433527641213 149.62433010928896 43.92509405538294 151.36808085455158 46.568039903150975 C151.95199738851574 47.457030779218485 152.32794365010903 48.4261109234003 152.33594250673866 49.48328926250747 C152.3599390766276 52.4626100363555 152.33594250673866 55.433921883391804 152.35194021999797 58.41324265723961 C152.35194021999797 58.74160865650788 152.3039470802201 58.893778265924766 151.92000196199717 58.877760412301996 C151.16810943881046 58.84572470505623 150.41621691562386 58.837715778244956 149.67232324906684 58.877760412301996 C149.25638270432523 58.901787192736265 149.20838956454736 58.74160865650788 149.20838956454736 58.381206949994066 C149.20838956454736 55.818350370339886 149.2323861344363 53.263502717497204 149.18439299465842 50.70064613784325 C149.14439871151023 48.54624482557165 147.9365713604338 47.28083438936733 145.9768514861707 47.24879868212179 C143.87315219257403 47.21676297487602 142.2973774365339 48.61031624006296 142.24138544012635 50.69263721103175 C142.17739458708922 53.23146701025166 142.20139115697816 55.77029680947135 142.21738887023741 58.30912660869126 C142.21738887023741 58.78966221737642 142.0894071641631 58.901787192736265 141.63347233627331 58.877760412301996 C140.92957295286453 58.837715778244956 140.21767471282612 58.861742558679225 139.50577647278772 58.877760412301996 C139.22581649075005 58.877760412301996 139.06583935815718 58.8697514854905 139.06583935815718 58.493331925353914 C139.0818370714165 54.000323984147826 139.0818370714165 49.49930711613047 139.06583935815718 45.00629917492438 C139.06583935815718 44.70195995609038 139.1538267810833 44.6138617611648 139.44978447638016 44.6218706879763 C140.24167128271506 44.63788854159907 141.03355808904996 44.64589746841057 141.8254448953848 44.6218706879763 C142.1294014473113 44.6218706879763 142.2253877268671 44.70195995609038 142.2093900136078 45.00629917492438 C142.18539344371885 45.39873658868396 142.2093900136078 45.79117400244354 142.2093900136078 46.31175424518574 C142.2093900136078 46.31175424518574 142.20939001360773 46.30374531837424 142.20939001360773 46.30374531837424 Z" vector-effect="non-scaling-stroke"/></g><g><defs><path id="path-1746429648223897" d="M194.70816807882488 34.390331728232226 C196.62789366993977 34.35829602098655 198.20366842597988 34.862858410105936 199.55547519638995 36.05618850500733 C199.95541802787218 36.408581284709754 200.07540087731687 36.66486694267516 199.61146719279745 37.06531328324609 C199.15553236490766 37.457750697005615 198.74759067679574 37.91425952525648 198.3716444152024 38.37877728031877 C198.10768214642414 38.707143279586944 197.93970615720158 38.66709864552985 197.63574960527507 38.41882191437587 C196.14796227216104 37.22549181947446 194.51619551971342 36.88110796658346 192.75644706119147 37.754080989028104 C191.052690599077 38.6030272310385 190.17281636981605 40.64530356795028 190.54876263140937 42.76766917297626 C190.9007123231138 44.76990087583096 192.27651566341277 46.13942736058357 194.2442343943055 46.35566838449188 C195.60404002134518 46.50783799390883 196.7878708025327 46.01128453160087 197.80372559449762 45.14632043596764 C198.11568100305377 44.882025851190825 198.25166156575776 44.93007941205933 198.48362840801747 45.21039185045899 C198.88357123949973 45.69092745914411 199.29151292761165 46.16345414101782 199.74744775550144 46.58792726202302 C200.1313928737244 46.94832896853686 200.02740773753902 47.18058784606801 199.68345690246426 47.476918138090504 C197.88371416079406 49.07069457356284 195.78001486719737 49.51118554819087 193.46034644460022 49.17481062211128 C190.4287797819647 48.74232857429467 188.21309649555295 46.72407901781713 187.52519482540347 43.79281180483786 C186.77330230221682 40.59725000708177 187.8851433737375 37.36965250208001 190.3167957891497 35.679768944870645 C191.58061513663364 34.806795922426 193.03640704322908 34.39033172823222 194.7241657920842 34.39033172823222 C194.7241657920842 34.39033172823222 194.70816807882488 34.390331728232226 194.70816807882488 34.390331728232226 Z" vector-effect="non-scaling-stroke"/></defs> <path style="stroke-width: 0; stroke-linecap: butt; stroke-linejoin: miter; fill: rgb(2, 2, 2);" d="M234.71616693545616 44.349567176387836 C236.63589252657107 44.31753146914207 238.2116672826112 44.822093858261496 239.5634740530212 46.01542395316301 C239.96341688450343 46.36781673286532 240.0833997339481 46.624102390830785 239.61946604942875 47.02454873140164 C239.16353122153896 47.41698614516122 238.75558953342704 47.87349497341211 238.3796432718337 48.33801272847427 C238.11568100305544 48.66637872774254 237.9477050138329 48.6263340936855 237.64374846190634 48.378057362531536 C236.15596112879234 47.184727267630024 234.52419437634467 46.84034341473898 232.76444591782274 47.71331643718372 C231.06068945570826 48.56226267919419 230.1808152264473 50.604539016105946 230.55676148804065 52.72690462113178 C230.90871117974507 54.729136323986495 232.284514520044 56.098662808739164 234.2522332509368 56.31490383264736 C235.6120388779765 56.467073442064475 236.79586965916394 55.970519979756546 237.8117244511289 55.105555884123305 C238.123679859685 54.84126129934634 238.25966042238906 54.88931486021488 238.49162726464874 55.169627298614614 C238.89157009613098 55.65016290729977 239.2995117842429 56.12268958917343 239.7554466121327 56.547162710178554 C240.13939173035567 56.90756441669237 240.0354065941703 57.13982329422356 239.69145575909556 57.436153586246064 C237.89171301742533 59.02993002171843 235.7880137238286 59.47042099634655 233.46834530123147 59.13404607026678 C230.43677863859597 58.70156402245016 228.2210953521842 56.68331446597267 227.53319368203472 53.75204725299341 C226.78130115884812 50.55648545523741 227.89314223036877 47.32888795023564 230.32479464578097 45.6390043930262 C231.58861399326491 44.766031370581686 233.04440589986035 44.349567176387836 234.73216464871547 44.349567176387836 C234.73216464871547 44.349567176387836 234.71616693545616 44.349567176387836 234.71616693545616 44.349567176387836 Z" vector-effect="non-scaling-stroke"/></g><g><defs><path id="path-1746429648222895" d="M10.142550206390272 46.39571301854918 C10.142550206390272 44.1852492185976 10.134551349760626 41.982794345457414 10.142550206390272 39.77233054550582 C10.174545632908856 35.04706372676872 14.221967087509388 31.5471627101787 18.9012982158519 32.0997786601666 C21.220966638449053 32.37208217175484 22.94871967045244 33.509349778976315 24.268531014343917 35.36742079922547 C25.25239037979029 36.752965137600924 25.908296623421215 38.30669693901618 26.644191433348585 39.820384106374334 C27.236106823942336 41.037740981709995 27.796026788017507 42.2711157106685 28.715895300426723 43.296258342530095 C30.09169864072571 44.841981217133934 31.963431092062734 45.33853467944189 33.803168116881146 44.673793754094135 C35.50692457899561 44.06511531642631 36.690755360183104 42.40726746646261 36.75474621322027 40.42105361723075 C36.81873706625744 38.44284869481031 36.23482053229334 36.720929430355255 34.36308808095632 35.759858212984994 C32.523351056137905 34.81480484923758 30.76360259761593 35.12715299488292 29.187827841575796 36.41659021152134 C28.795883866723173 36.73694728397809 28.587913594352397 36.760974064412345 28.267959329166587 36.352518797029994 C27.868016497684312 35.84795640791061 27.42008052642418 35.3754297260369 26.94014912864546 34.94294767822028 C26.532207440533558 34.58254597170643 26.652190289978236 34.358296020986714 26.980143411793684 34.0539568021528 C28.65990330401921 32.50022500073755 30.675615174689835 31.947609050749644 32.907296174360866 32.099778660166606 C34.05113267240015 32.17986792828079 35.106981747513345 32.54026963479464 36.05084682981148 33.19700163333098 C36.170829679256165 33.28509982825659 36.29881138533049 33.49333192535348 36.466787374553036 33.35718016955936 C36.5467759408495 33.293108755068005 36.52277937096056 33.09288558478253 36.52277937096056 32.948724902177005 C36.52277937096056 30.842377150773856 36.53877708421985 28.744038326182125 36.514780514330916 26.637690574778972 C36.514780514330916 26.141137112471007 36.642762220405245 25.996976429865473 37.13069247481361 26.021003210299725 C37.85858842811134 26.061047844356818 38.58648438140906 26.061047844356818 39.31438033470679 26.021003210299725 C39.77031516259655 25.996976429865466 39.914294581930186 26.11711033203675 39.90629572530053 26.597645940721875 C39.8822991554116 29.160502520375907 39.890298012041235 31.723359100029914 39.890298012041235 34.27820675287252 C39.890298012041235 36.2323848948587 39.890298012041235 38.19457196365631 39.890298012041235 40.148750105642506 C39.890298012041235 44.9140615584367 35.994854833403984 48.38192686778104 31.23553513876499 47.933426966341585 C28.667902160648847 47.69315916199902 26.86016056234901 46.37969516492634 25.5003549353093 44.29737419395745 C24.60448299278902 42.93585663601625 23.97257331904704 41.43818732228093 23.268673935638255 39.980562642602706 C22.66076083178521 38.723161133209956 22.04484887130252 37.47376855062862 21.044991792596853 36.464643772389856 C19.74917701859431 35.14317084850575 18.17340226255418 34.806795922426154 16.453648087180433 35.30334938473412 C14.701898485288108 35.799902847042084 13.718039119841732 37.081331136869096 13.382087141396632 38.8272771817584 C13.030137449692237 40.645303567950464 13.358090571507692 42.335187125159834 14.749891625065985 43.648651122232515 C16.405654947402564 45.21039185045919 18.92529478574084 45.20238292364776 20.797027237077845 43.648651122232515 C21.18897121193047 43.32028512296434 21.420938054190184 43.24820478166157 21.77288774589457 43.69670468310103 C22.18082943400649 44.21728492584325 22.644763118525916 44.7058294613398 23.132693372934277 45.15432936277926 C23.468645351379383 45.466677508424596 23.36466021519399 45.650882825087216 23.100697946415696 45.90716848305262 C21.46893119396806 47.484927064902124 19.477215893186372 48.04555194170144 17.26953146340426 47.94944481996441 C16.013710972549948 47.89338233228448 14.853876761251371 47.5169627721478 13.838021969286414 46.77213257868585 C13.406083711285566 46.451775506229104 13.374088284766987 46.69204331057166 13.374088284766987 47.06045394389693 C13.374088284766987 49.142774914865825 13.350091714878047 51.22509588583471 13.398084854655924 53.3074168568036 C13.414082567915212 53.94012207490569 13.21411115217408 54.08428275751123 12.63819347483962 54.036229196642715 C11.974288374579055 53.98016670896278 11.302384417688847 53.996184562585626 10.638479317428287 54.036229196642715 C10.222538772686733 54.06025597707696 10.118553636501339 53.916095294471425 10.126552493130983 53.50764002708907 C10.142550206390275 51.13699769090911 10.13455134976063 48.75834642791772 10.13455134976063 46.38770409173775 C10.13455134976063 46.38770409173775 10.142550206390272 46.39571301854918 10.142550206390272 46.39571301854918 Z" vector-effect="non-scaling-stroke"/></defs> <path style="stroke-width: 0; stroke-linecap: butt; stroke-linejoin: miter; fill: rgb(254, 254, 254);" d="M50.15054906301992 56.35494846670508 C50.15054906301992 54.14448466675344 50.14255020639027 51.9420297936133 50.15054906301992 49.73156599366166 C50.182544489538515 45.00629917492461 54.22996594413905 41.506398158334605 58.909297072481564 42.059014108322344 C61.22896549507871 42.33131761991058 62.9567185270821 43.46858522713205 64.27652987097358 45.32665624738138 C65.26038923641994 46.71220058575682 65.91629548005088 48.265932387171915 66.65219028997825 49.7796195545302 C67.24410568057198 50.996976429865754 67.80402564464717 52.230351158824305 68.72389415705638 53.25549379068593 C70.09969749735535 54.80121666528976 71.97142994869239 55.29777012759769 73.81116697351081 54.63302920224987 C75.51492343562526 54.024350764582096 76.69875421681274 52.36650291461842 76.76274506984993 50.38028906538648 C76.82673592288711 48.40208414296603 76.24281938892301 46.68016487851105 74.37108693758597 45.71909366114073 C72.53134991276755 44.77404029739341 70.77160145424557 45.086388443038686 69.19582669820545 46.37582565967705 C68.80388272335284 46.69618273213382 68.59591245098204 46.72020951256809 68.27595818579624 46.31175424518574 C67.87601535431398 45.80719185606654 67.42807938305384 45.33466517419265 66.94814798527511 44.90218312637603 C66.54020629716322 44.54178141986222 66.66018914660788 44.31753146914252 66.98814226842333 44.01319225030852 C68.66790216064885 42.459460448893424 70.68361403131948 41.90684449890546 72.91529503099053 42.059014108322344 C74.0591315290298 42.13910337643665 75.114980604143 42.49950508295046 76.05884568644115 43.15623708148678 C76.17882853588583 43.24433527641236 76.30681024196014 43.45256737350928 76.47478623118269 43.316415617715165 C76.55477479747915 43.252344203223856 76.53077822759022 43.05212103293843 76.53077822759022 42.907960350332814 C76.53077822759022 40.80161259892975 76.5467759408495 38.70327377433796 76.52277937096056 36.596926022934895 C76.52277937096056 36.10037256062674 76.6507610770349 35.95621187802135 77.13869133144325 35.98023865845562 C77.866587284741 36.02028329251266 78.59448323803872 36.02028329251266 79.32237919133644 35.98023865845562 C79.7783140192262 35.95621187802135 79.92229343855985 36.07634578019247 79.91429458193019 36.55688138887763 C79.89029801204126 39.11973796853181 79.89829686867088 41.68259454818576 79.89829686867088 44.23744220102844 C79.89829686867088 46.19162034301462 79.89829686867088 48.15380741181207 79.89829686867088 50.107985553798244 C79.89829686867088 54.873297006592566 76.00285369003365 58.3411623159368 71.24353399539464 57.89266241449741 C68.6759010172785 57.65239461015494 66.86815941897868 56.338930613082084 65.50835379193896 54.25660964211329 C64.61248184941869 52.89509208417212 63.980572175676684 51.39742277043683 63.2766727922679 49.939798090758586 C62.668759688414866 48.682396581365765 62.052847727932175 47.43300399878444 61.0529906492265 46.42387922054559 C59.757175875223965 45.102406296661684 58.181401119183846 44.76603137058191 56.46164694381008 45.26258483288984 C54.70989734191775 45.759138295198 53.72603797647139 47.04056658502486 53.39008599802628 48.786512629914114 C53.03813630632189 50.60453901610617 53.36608942813734 52.294422573315614 54.757890481695654 53.607886570388246 C56.41365380403221 55.16962729861507 58.9332936423705 55.16161837180357 60.80502609370751 53.607886570388246 C61.19697006856012 53.2795205711202 61.42893691081983 53.207440229817394 61.78088660252422 53.655940131256784 C62.18882829063614 54.17652037399898 62.652761975155556 54.66506490949564 63.14069222956394 55.11356481093503 C63.47664420800905 55.425912956580305 63.37265907182365 55.61011827324296 63.10869680304535 55.866403931208424 C61.47693005059773 57.44416251305802 59.48521474981604 58.004787389857256 57.27753032003392 57.90868026812018 C56.0217098291796 57.85261778044037 54.861875617881026 57.47619822030356 53.84602082591607 56.731368026841665 C53.414082567915216 56.41101095438489 53.38208714139665 56.651278758727585 53.38208714139665 57.01968939205267 C53.38208714139665 59.10201036302169 53.35809057150772 61.184331333990485 53.40608371128559 63.26665230495951 C53.42208142454487 63.89935752306155 53.222110008803725 64.04351820566717 52.64619233146928 63.99546464479863 C51.982287231208716 63.93940215711859 51.3103832743185 63.95542001074136 50.64647817405793 63.99546464479863 C50.23053762931639 64.0194914252329 50.12655249313099 63.875330742627284 50.13455134976064 63.46687547524493 C50.15054906301992 61.09623313906491 50.1425502063903 58.71758187607361 50.1425502063903 56.34693953989358 C50.1425502063903 56.34693953989358 50.15054906301992 56.35494846670508 50.15054906301992 56.35494846670508 Z" vector-effect="non-scaling-stroke"/></g></svg>