<svg height="100" overflow="visible" viewBox="0 0 279.99999999999864 100" width="279.99999999999864" xmlns="http://www.w3.org/2000/svg"><g><defs><path id="path-17464296482831093" d="M0 10.000000000000002 C0 4.477152502000001 4.477152502000001 0 10.000000000000002 0 C10.000000000000002 0 270 0 270 0 C275.522847498 0 280 4.477152502000001 280 10.000000000000002 C280 10.000000000000002 280 90 280 90 C280 95.522847498 275.522847498 100 270 100 C270 100 10.000000000000002 100 10.000000000000002 100 C4.477152502000001 100 0 95.522847498 0 90 C0 90 0 10.000000000000002 0 10.000000000000002 Z" vector-effect="non-scaling-stroke"/></defs> <path style="stroke: rgb(140, 140, 140); stroke-width: 0; stroke-linecap: butt; stroke-linejoin: miter; fill: rgb(247, 247, 247);" d="M0 10.000000000000002 C0 4.477152502000001 4.477152502000001 0 10.000000000000002 0 C10.000000000000002 0 270 0 270 0 C275.522847498 0 280 4.477152502000001 280 10.000000000000002 C280 10.000000000000002 280 90 280 90 C280 95.522847498 275.522847498 100 270 100 C270 100 10.000000000000002 100 10.000000000000002 100 C4.477152502000001 100 0 95.522847498 0 90 C0 90 0 10.000000000000002 0 10.000000000000002 Z" vector-effect="non-scaling-stroke"/></g><g><defs><path id="path-1746429648226921" d="M27.223307728993905 47.36122291675869 C27.347757135755018 47.14086495037962 27.301088608219604 46.89689720188851 27.324422871987313 46.66866930813875 C27.635546388890102 42.678616131203455 28.281127686463382 38.735782518492236 29.090048830410634 34.82442861526375 C29.77452056759677 31.52692904694838 30.334542898021787 28.205819696520965 30.93345566805965 24.88471034609355 C30.995680371440205 24.54630346915426 31.050126986898192 24.20789659221498 31.120129778201324 23.877359642646372 C31.18235448158188 23.562562547819127 31.361250503800985 23.405164000405506 31.67237402070377 23.405164000405506 C34.72916257427366 23.405164000405506 37.77817303992098 23.405164000405506 40.83496159349087 23.389424145664144 C41.06052614324538 23.389424145664144 41.13830702247108 23.405164000405506 41.091638494935665 23.680611458379342 C40.29049543891099 27.92250231117644 39.51268664665402 32.156523236602865 38.719321678551914 36.39841408939996 C38.11263082059148 39.648694093491244 37.50593996263104 42.898974097582524 36.891471016748035 46.14925410167381 C36.463676181006704 48.38431347494724 37.84039774330154 50.33605546287614 40.11159941669188 50.69020219455678 C42.81837401374613 51.115178272573566 45.10513186298162 49.517583016325304 45.781825512245184 46.70014901762148 C46.51296577696674 43.66235705253859 47.12743472284974 40.59308537797297 47.65634470158448 37.51594377603667 C48.17747659239665 34.45454202884173 48.72194274697653 31.393140281646794 49.30529934116925 28.339608461822532 C49.593088594304334 26.82858240665177 49.857543583671706 25.309686424110318 50.16088901265192 23.80653029631024 C50.22311371603248 23.515342983595037 50.332006946948454 23.45238356462959 50.604240024238386 23.45238356462959 C51.70872850924329 23.46812341937095 52.82099508217075 23.45238356462959 53.92548356717564 23.460253492000273 C54.03437679809162 23.460253492000273 54.143270029007596 23.436643709888227 54.267719435768704 23.49960312885368 C54.04215488601418 24.750921580791967 53.82436842418224 26.01010996010094 53.598803874427716 27.26142841203923 C53.05433771984784 30.259870740268724 52.48653730150024 33.250443141127526 51.95762732276551 36.24888546935701 C51.35093646480507 39.67230387560328 50.75202369476721 43.10359220922023 49.80309696821371 46.448311341759684 C49.40641448416266 47.84128848637024 48.96306347257619 49.21065584886874 48.154142328628936 50.43836451869499 C46.8552016455598 52.39797643399458 45.0351290716785 53.65716481330356 42.865042541281554 54.428417695630294 C41.49609906690929 54.916353192612526 40.080487065001606 55.19180065058636 38.63376271140365 55.28623977903454 C38.57931609594566 55.28623977903454 38.50931330464253 55.26262999692249 38.47820095295225 55.3413292706293 C38.47820095295225 55.3413292706293 35.662533124982026 55.3413292706293 35.662533124982026 55.3413292706293 C35.592530333678894 55.23115028743977 35.48363710276293 55.28623977903454 35.39030004769209 55.278369851663854 C34.091359364622946 55.16819086847432 32.79241868155381 55.02653217580207 31.563480789787796 54.546466606190506 C29.494509402384256 53.74373401438104 28.032228872941158 52.3428869423998 27.43331610290329 50.12356742386774 C27.347757135755025 49.8087703290405 27.293310520297037 49.48610330684257 27.21552964107134 49.17130621201533 C27.21552964107134 48.56532180447289 27.21552964107134 47.95933739693045 27.21552964107134 47.353352989388 C27.21552964107134 47.353352989388 27.223307728993905 47.36122291675869 27.223307728993905 47.36122291675869 Z" vector-effect="non-scaling-stroke"/></defs> <path style="stroke-width: 0; stroke-linecap: butt; stroke-linejoin: miter; fill: rgb(2, 21, 61);" d="M70.00418941271823 58.35044975724031 C70.12863881947942 58.13009179086134 70.08197029194389 57.886124042370284 70.10530455571165 57.657896148620466 C70.41642807261451 53.667842971685104 71.06200937018775 49.72500935897392 71.8709305141349 45.81365545574545 C72.55540225132108 42.51615588743016 73.11542458174608 39.19504653700278 73.71433735178402 35.873937186575176 C73.7765620551645 35.53553030963599 73.83100867062262 35.19712343269657 73.90101146192569 34.866586483128 C73.96323616530617 34.551789388300904 74.14213218752525 34.39439084088713 74.4532557044281 34.39439084088713 C77.51004425799806 34.39439084088713 80.55905472364543 34.39439084088713 83.61584327721516 34.378650986145885 C83.84140782696977 34.378650986145885 83.91918870619543 34.39439084088713 83.87252017866012 34.66983829886112 C83.07137712263534 38.911729151658164 82.29356833037832 43.145750077084585 81.50020336227635 47.38764092988163 C80.89351250431582 50.637920933972964 80.28682164635552 53.8882009380643 79.6723527004724 57.13848094215541 C79.24455786473118 59.373540315428954 80.62127942702591 61.32528230335788 82.89248110041626 61.67942903503854 C85.59925569747043 62.104405113055236 87.88601354670595 60.50680985680697 88.56270719596955 57.689375858103176 C89.29384746069104 54.65158389302019 89.90831640657416 51.58231221845472 90.4372263853088 48.5051706165184 C90.95835827612109 45.44376886932332 91.50282443070091 42.38236712212847 92.08618102489368 39.32883530230424 C92.37397027802876 37.81780924713348 92.63842526739609 36.2989132645921 92.94177069637635 34.79575713679196 C93.00399539975683 34.504569824076725 93.11288863067284 34.441610405111305 93.38512170796275 34.441610405111305 C94.48961019296758 34.45735025985255 95.60187676589521 34.441610405111305 96.70636525090003 34.449480332481926 C96.81525848181604 34.449480332481926 96.92415171273205 34.42587055036984 97.04860111949301 34.488829969335484 C96.82303656973863 35.740148421273716 96.60525010790661 36.99933680058257 96.379685558152 38.25065525252103 C95.83521940357218 41.24909758075046 95.2674189852246 44.23966998160927 94.73850900648995 47.2381123098387 C94.13181814852942 50.66153071608505 93.53290537849148 54.09281904970203 92.5839786519382 57.4375381822415 C92.1872961678871 58.83051532685204 91.74394515630047 60.19988268935049 90.93502401235332 61.42759135917663 C89.63608332928425 63.38720327447618 87.81601075540289 64.64639165378526 85.64592422500596 65.417644536112 C84.27698075063358 65.90558003309434 82.86136874872591 66.18102749106811 81.41464439512811 66.27546661951624 C81.36019777966999 66.27546661951624 81.29019498836692 66.25185683740415 81.25908263667657 66.33055611111104 C81.25908263667657 66.33055611111104 78.4434148087064 66.33055611111104 78.4434148087064 66.33055611111104 C78.37341201740333 66.22037712792144 78.26451878648732 66.27546661951624 78.17118173141648 66.26759669214562 C76.8722410483474 66.15741770895602 75.5733003652781 66.01575901628371 74.34436247351209 65.53569344667221 C72.27539108610858 64.73296085486277 70.8131105566656 63.332113782881606 70.21419778662766 61.11279426434953 C70.12863881947942 60.797997169522205 70.0741922040213 60.47533014732426 69.99641132479564 60.16053305249693 C69.99641132479564 59.55454864495459 69.99641132479564 58.948564237412256 69.99641132479564 58.34257982986969 C69.99641132479564 58.34257982986969 70.00418941271823 58.35044975724031 70.00418941271823 58.35044975724031 Z" vector-effect="non-scaling-stroke"/></g><g><defs><path id="path-1746429648225919" d="M25.55456,30.64637c0.71558,-1.76286 1.40006,-3.47064 2.08453,-5.17054c2.25565,-5.58765 4.51129,-11.1753 6.76694,-16.76295c1.1356,-2.80956 2.2712,-5.61126 3.39902,-8.42082c0.06222,-0.16527 0.14001,-0.22036 0.3189,-0.22036c3.29013,0 6.58804,0 9.87817,0c0.20223,0 0.26445,0.04722 0.28001,0.25971c0.22556,2.43968 0.45891,4.87149 0.68447,7.31116c0.17112,1.80221 0.33446,3.6123 0.50558,5.41451c0.18667,2.00683 0.38113,4.00579 0.57558,6.01262c0.18667,1.98322 0.37335,3.97431 0.56002,5.95754c0.19445,2.02257 0.38113,4.05301 0.57558,6.07558c0.03889,0.36989 0.04667,0.36989 -0.33446,0.36989c-3.18124,0 -6.37025,0 -9.55149,0c-0.24112,0 -0.3189,-0.06296 -0.33446,-0.30693c-0.18667,-2.40033 -0.39668,-4.80066 -0.58336,-7.20098c-0.01556,-0.18888 -0.08556,-0.2361 -0.2489,-0.2361c-0.43557,0 -0.87892,-0.00787 -1.3145,-0.00787c-1.82007,0 -3.63237,0 -5.45244,0.00787c-0.58336,0 -0.80892,0.14953 -1.02671,0.68468c-0.7467,1.87304 -1.50117,3.73822 -2.24787,5.61126c-0.07778,0.19675 -0.11667,0.40137 -0.1789,0.60598c-0.20223,0.66894 -0.55224,0.94439 -1.24449,0.94439c-0.9956,0 -1.99897,-0.02361 -2.99456,-0.02361c-3.07234,0 -6.14469,0 -9.21703,0c-0.31112,0 -0.42002,-0.08657 -0.4978,-0.38563c-1.19783,-4.37568 -2.41121,-8.75136 -3.62459,-13.12704c-0.02333,-0.08657 0.01556,-0.24397 -0.16334,-0.22036c-0.14001,0.01574 -0.21779,0.0787 -0.2489,0.2361c-0.71558,3.91922 -1.43895,7.83058 -2.16231,11.7498c-0.09334,0.49581 -0.19445,0.98374 -0.28001,1.47955c-0.03111,0.17314 -0.07778,0.2361 -0.25668,0.2361c-3.00234,0 -6.00468,0 -9.0148,0c-0.20223,0 -0.22556,-0.06296 -0.19445,-0.24397c0.51335,-2.73873 1.01893,-5.47747 1.52451,-8.2162c0.52891,-2.85678 1.05004,-5.71357 1.57895,-8.57035c0.63003,-3.43129 1.26783,-6.86258 1.90563,-10.29387c0.24112,-1.29854 0.48224,-2.58921 0.70781,-3.88774c0.03889,-0.20462 0.10889,-0.25184 0.30335,-0.25971c1.64895,-0.00787 3.29013,-0.03148 4.93909,-0.03935c2.54343,-0.01574 5.08687,-0.01574 7.6303,0.04722c1.54006,0.03935 3.07234,0.16527 4.49573,0.82634c1.98341,0.92078 3.25902,2.41607 3.66348,4.62752c0.44335,2.43181 0.13223,4.74557 -0.94893,6.95702c-0.69225,1.40872 -1.71118,2.51051 -3.08012,3.27389c-0.51335,0.29119 -1.01115,0.60598 -1.53228,0.87356c-0.25668,0.13379 -0.3189,0.25971 -0.21779,0.55089c1.22894,3.59656 2.44232,7.20098 3.66348,10.80541c0.29557,0.86569 0.58336,1.73138 0.89448,2.65217zM39.1351,7.07594c0,0 -0.03889,0 -0.05445,0c-2.1312,5.47747 -4.26239,10.95494 -6.41692,16.49537c0.17112,-0.07083 0.28001,-0.11805 0.38113,-0.16527c2.28676,-1.08605 4.57352,-2.1721 6.86027,-3.25028c0.16334,-0.0787 0.1789,-0.17314 0.17112,-0.32267c-0.07,-0.90504 -0.13223,-1.81008 -0.20223,-2.71512c-0.17112,-2.33737 -0.34224,-4.68261 -0.52113,-7.01998c-0.07778,-1.00735 -0.14778,-2.00683 -0.22556,-3.00631zM18.50761,6.54078c-0.00778,-0.22823 -0.02333,-0.66107 -0.05445,-1.09392c-0.09334,-1.2041 -0.66114,-1.78647 -1.84341,-1.94387c-0.52113,-0.07083 -1.04226,0 -1.55562,-0.03935c-0.31112,-0.03148 -0.37335,0.10231 -0.42779,0.36202c-0.36557,1.92813 -0.73892,3.84839 -1.11227,5.77653c-0.30335,1.55825 -0.60669,3.11649 -0.91004,4.67474c-0.03111,0.17314 -0.02333,0.28332 0.19445,0.29119c0.25668,0 0.51335,0.04722 0.77781,0.05509c1.75785,0.0787 3.12679,-0.74764 3.78793,-2.29802c0.75447,-1.7786 1.14338,-3.63591 1.15116,-5.77653z" vector-effect="non-scaling-stroke"/></defs><path style="stroke-width: 0; stroke-linecap: butt; stroke-linejoin: miter; fill: rgb(2, 21, 61);" d="M25.55456,30.64637c0.71558,-1.76286 1.40006,-3.47064 2.08453,-5.17054c2.25565,-5.58765 4.51129,-11.1753 6.76694,-16.76295c1.1356,-2.80956 2.2712,-5.61126 3.39902,-8.42082c0.06222,-0.16527 0.14001,-0.22036 0.3189,-0.22036c3.29013,0 6.58804,0 9.87817,0c0.20223,0 0.26445,0.04722 0.28001,0.25971c0.22556,2.43968 0.45891,4.87149 0.68447,7.31116c0.17112,1.80221 0.33446,3.6123 0.50558,5.41451c0.18667,2.00683 0.38113,4.00579 0.57558,6.01262c0.18667,1.98322 0.37335,3.97431 0.56002,5.95754c0.19445,2.02257 0.38113,4.05301 0.57558,6.07558c0.03889,0.36989 0.04667,0.36989 -0.33446,0.36989c-3.18124,0 -6.37025,0 -9.55149,0c-0.24112,0 -0.3189,-0.06296 -0.33446,-0.30693c-0.18667,-2.40033 -0.39668,-4.80066 -0.58336,-7.20098c-0.01556,-0.18888 -0.08556,-0.2361 -0.2489,-0.2361c-0.43557,0 -0.87892,-0.00787 -1.3145,-0.00787c-1.82007,0 -3.63237,0 -5.45244,0.00787c-0.58336,0 -0.80892,0.14953 -1.02671,0.68468c-0.7467,1.87304 -1.50117,3.73822 -2.24787,5.61126c-0.07778,0.19675 -0.11667,0.40137 -0.1789,0.60598c-0.20223,0.66894 -0.55224,0.94439 -1.24449,0.94439c-0.9956,0 -1.99897,-0.02361 -2.99456,-0.02361c-3.07234,0 -6.14469,0 -9.21703,0c-0.31112,0 -0.42002,-0.08657 -0.4978,-0.38563c-1.19783,-4.37568 -2.41121,-8.75136 -3.62459,-13.12704c-0.02333,-0.08657 0.01556,-0.24397 -0.16334,-0.22036c-0.14001,0.01574 -0.21779,0.0787 -0.2489,0.2361c-0.71558,3.91922 -1.43895,7.83058 -2.16231,11.7498c-0.09334,0.49581 -0.19445,0.98374 -0.28001,1.47955c-0.03111,0.17314 -0.07778,0.2361 -0.25668,0.2361c-3.00234,0 -6.00468,0 -9.0148,0c-0.20223,0 -0.22556,-0.06296 -0.19445,-0.24397c0.51335,-2.73873 1.01893,-5.47747 1.52451,-8.2162c0.52891,-2.85678 1.05004,-5.71357 1.57895,-8.57035c0.63003,-3.43129 1.26783,-6.86258 1.90563,-10.29387c0.24112,-1.29854 0.48224,-2.58921 0.70781,-3.88774c0.03889,-0.20462 0.10889,-0.25184 0.30335,-0.25971c1.64895,-0.00787 3.29013,-0.03148 4.93909,-0.03935c2.54343,-0.01574 5.08687,-0.01574 7.6303,0.04722c1.54006,0.03935 3.07234,0.16527 4.49573,0.82634c1.98341,0.92078 3.25902,2.41607 3.66348,4.62752c0.44335,2.43181 0.13223,4.74557 -0.94893,6.95702c-0.69225,1.40872 -1.71118,2.51051 -3.08012,3.27389c-0.51335,0.29119 -1.01115,0.60598 -1.53228,0.87356c-0.25668,0.13379 -0.3189,0.25971 -0.21779,0.55089c1.22894,3.59656 2.44232,7.20098 3.66348,10.80541c0.29557,0.86569 0.58336,1.73138 0.89448,2.65217zM39.1351,7.07594c0,0 -0.03889,0 -0.05445,0c-2.1312,5.47747 -4.26239,10.95494 -6.41692,16.49537c0.17112,-0.07083 0.28001,-0.11805 0.38113,-0.16527c2.28676,-1.08605 4.57352,-2.1721 6.86027,-3.25028c0.16334,-0.0787 0.1789,-0.17314 0.17112,-0.32267c-0.07,-0.90504 -0.13223,-1.81008 -0.20223,-2.71512c-0.17112,-2.33737 -0.34224,-4.68261 -0.52113,-7.01998c-0.07778,-1.00735 -0.14778,-2.00683 -0.22556,-3.00631zM18.50761,6.54078c-0.00778,-0.22823 -0.02333,-0.66107 -0.05445,-1.09392c-0.09334,-1.2041 -0.66114,-1.78647 -1.84341,-1.94387c-0.52113,-0.07083 -1.04226,0 -1.55562,-0.03935c-0.31112,-0.03148 -0.37335,0.10231 -0.42779,0.36202c-0.36557,1.92813 -0.73892,3.84839 -1.11227,5.77653c-0.30335,1.55825 -0.60669,3.11649 -0.91004,4.67474c-0.03111,0.17314 -0.02333,0.28332 0.19445,0.29119c0.25668,0 0.51335,0.04722 0.77781,0.05509c1.75785,0.0787 3.12679,-0.74764 3.78793,-2.29802c0.75447,-1.7786 1.14338,-3.63591 1.15116,-5.77653z" transform="translate(158.79530618092645, 34.330556111111264) rotate(0)" vector-effect="non-scaling-stroke"/></g><g><defs><path id="path-1746429648225917" d="M60.894650345797984 33.46293118013572 C60.731310499424026 34.32862319091063 60.567970653050054 35.19431520168555 60.404630806676096 36.06787713983114 C59.77460568494795 39.45981583659466 59.136802475297245 42.8438846059875 58.5067773535691 46.235823302751015 C57.98564546275693 49.02964751934278 57.4567354840222 51.83134166330523 56.94338168113259 54.625165879897 C56.90449124151974 54.82191406416403 56.83448845021662 54.86126370101743 56.65559242799751 54.86126370101743 C55.465544975844345 54.86126370101743 54.28327561161376 54.853393773646744 53.0932281594606 54.86126370101743 C52.88321978555122 54.86126370101743 52.85988552178351 54.81404413679334 52.89877596139636 54.60942602515564 C53.419907852208524 51.82347173593455 53.93326165509812 49.03751744671347 54.45439354591029 46.2436932301217 C54.99885970049017 43.300340393487005 55.54332585507005 40.34911762948162 56.08779200964992 37.405764792846924 C56.66337051592007 34.305013408798594 57.23894902219023 31.19639209737959 57.81452752846039 28.09564071333127 C58.08676060575032 26.63970414975528 58.351215595117694 25.191637513549974 58.60789249656249 23.73570094997398 C58.646782936175335 23.523212910965594 58.69345146371076 23.405164000405378 58.973462628923265 23.405164000405378 C62.48915836992475 23.420903855146737 65.99707602300369 23.41303392777606 69.51277176400517 23.405164000405378 C69.72278013791455 23.405164000405378 69.81611719298539 23.4366437098881 69.83167336883052 23.680611458379214 C69.94834468766908 25.427735334670402 70.08835027027533 27.17485921096159 70.220577764959 28.921983087252777 C70.3761395234104 30.952424348888474 70.52392319393923 32.98286561052418 70.67948495239062 35.00543694478921 C70.80393435915174 36.72108111159768 70.93616185383542 38.444595205776814 71.06061126059653 40.16023937258527 C71.07616743644166 40.341247702110934 71.09172361228681 40.5222560316366 71.16172640358994 40.71900421590363 C71.31728816204134 40.38846726633503 71.47284992049272 40.057930316766424 71.6284116789441 39.719523439827135 C73.02068941708409 36.61877205577882 74.53741656198517 33.57311016332525 75.98414091558313 30.495968561388977 C76.97973616967204 28.37895809867579 77.94421907207068 26.254077708591907 78.91648006239188 24.13706724587871 C79.1420446121464 23.64126182152581 79.50761474450718 23.389424145664016 80.06763707493221 23.389424145664016 C83.41999296955973 23.389424145664016 86.77234886418726 23.38155421829333 90.1247047588148 23.36581436355197 C90.38138166025959 23.36581436355197 90.482496803253 23.38155421829333 90.42027209987243 23.696351313120577 C89.68913183515089 27.529005942642236 88.98132583419705 31.361660572163892 88.26574174532064 35.19431520168555 C87.58127000813451 38.86957128379358 86.89679827094838 42.544827365901625 86.21232653376225 46.22795337538034 C85.69119464295008 49.037517446713466 85.17006275213791 51.83921159067591 84.64893086132574 54.648775662009044 C84.62559659755803 54.7904343546813 84.57892807002261 54.85339377364675 84.42336631157121 54.85339377364675 C81.28101879085307 54.85339377364675 78.13867127013492 54.85339377364675 74.99632374941676 54.85339377364675 C74.96521139772648 54.85339377364675 74.94187713395878 54.845523846276066 74.89520860642337 54.837653918905396 C76.16303693780222 47.99868703378358 77.42308718125851 41.159720148661776 78.69091551263736 34.32075326353996 C78.66758124886965 34.32075326353996 78.65202507302452 34.305013408798594 78.62869080925681 34.297143481427916 C78.4497947870377 34.659160140479244 78.27867685274117 35.02904672690126 78.09978083052206 35.391063385952584 C75.17521977163587 41.529606735083775 72.2428806248271 47.660280156844294 69.3183195659409 53.79882350597549 C69.17831398333463 54.09001081869069 69.03053031280581 54.37332820403521 68.9060809060447 54.67238544412108 C68.84385620266414 54.82978399153471 68.75051914759331 54.86913362838811 68.59495738914191 54.86913362838811 C66.73599437564776 54.86913362838811 64.88480945007618 54.86126370101743 63.02584643658203 54.86913362838811 C62.79250379890494 54.86913362838811 62.776947623059804 54.76682457256926 62.761391447214656 54.585816243043595 C62.63694204045354 53.12200975209692 62.51249263369243 51.658203261150256 62.38026513900874 50.19439677020358 C62.20914720471221 48.22691492753332 62.045807358338244 46.25943308486307 61.87468942404171 44.291951242192816 C61.70357148974518 42.324469399522556 61.53245355544865 40.3569875568523 61.361335621152115 38.38950571418204 C61.22133003854586 36.74469089370971 61.073546368017034 35.10774600060806 60.933540785410784 33.462931180135726 C60.933540785410784 33.462931180135726 60.894650345797984 33.46293118013572 60.894650345797984 33.46293118013572 Z" vector-effect="non-scaling-stroke"/></defs> <path style="stroke-width: 0; stroke-linecap: butt; stroke-linejoin: miter; fill: rgb(2, 21, 61);" d="M103.67553202952172 44.45215802061807 C103.51219218314782 45.317850031392936 103.34885233677369 46.18354204216803 103.18551249039979 47.057103980313514 C102.55548736867172 50.44904267707716 101.91768415902084 53.83311144646996 101.28765903729277 57.225050143233375 C100.76652714648071 60.01887435982508 100.23761716774584 62.82056850378763 99.72426336485637 65.61439272037933 C99.68537292524343 65.81114090464644 99.61537013394036 65.85049054149977 99.43647411172128 65.85049054149977 C98.24642665956799 65.85049054149977 97.06415729533751 65.84262061412915 95.87410984318421 65.85049054149977 C95.66410146927501 65.85049054149977 95.64076720550725 65.80327097727582 95.67965764511996 65.59865286563809 C96.20078953593224 62.812698576417006 96.71414333882171 60.026744287195925 97.235275229634 57.232920070603996 C97.77974138421382 54.289567233969365 98.32420753879364 51.33834446996411 98.8686736933737 48.394991633329255 C99.44425219964387 45.294240249281074 100.01983070591382 42.185618937862046 100.595409212184 39.08486755381364 C100.8676422894739 37.62893099023768 101.13209727884146 36.18086435403234 101.38877418028619 34.72492779045638 C101.42766461989913 34.51243975144803 101.47433314743444 34.39439084088781 101.75434431264694 34.39439084088781 C105.27004005364847 34.41013069562905 108.77795770672742 34.40226076825843 112.29365344772896 34.39439084088781 C112.50366182163816 34.39439084088781 112.596998876709 34.42587055037052 112.61255505255417 34.66983829886158 C112.72922637139277 36.416962175152776 112.86923195399913 38.164086051443974 113.00145944868268 39.91120992773517 C113.157021207134 41.94165118937076 113.30480487766295 43.972092451006574 113.46036663611426 45.99466378527154 C113.58481604287545 47.71030795208003 113.71704353755922 49.43382204625914 113.84149294432018 51.149466213067626 C113.85704912016536 51.330474542593265 113.87260529601053 51.511482872118904 113.9426080873136 51.70823105638601 C114.09816984576491 51.377694106817444 114.25373160421645 51.047157157248876 114.40929336266777 50.70875028030946 C115.80157110080768 47.60799889626128 117.31829824570877 44.56233700380767 118.7650225993068 41.48519540187135 C119.76061785339562 39.368184939158255 120.7251007557943 37.24330454907431 121.69736174611558 35.12629408636121 C121.92292629587018 34.63048866200825 122.28849642823093 34.37865098614634 122.84851875865593 34.37865098614634 C126.20087465328334 34.37865098614634 129.55323054791097 34.37078105877572 132.9055864425386 34.35504120403425 C133.16226334398334 34.35504120403425 133.26337848697676 34.37078105877572 133.20115378359606 34.685578153603046 C132.47001351887457 38.51823278312463 131.76220751792084 42.350887412646216 131.0466234290443 46.18354204216803 C130.36215169185812 49.85879812427606 129.67767995467216 53.5340542063841 128.99320821748597 57.217180215862754 C128.4720763266737 60.026744287195925 127.95094443586163 62.82843843115825 127.42981254504934 65.63800250249142 C127.4064782812818 65.77966119516373 127.35980975374628 65.84262061412915 127.20424799529496 65.84262061412915 C124.06190047457676 65.84262061412915 120.91955295385856 65.84262061412915 117.77720543314035 65.84262061412915 C117.74609308145023 65.84262061412915 117.72275881768246 65.83475068675853 117.67609029014716 65.82688075938768 C118.94391862152588 58.98791387426604 120.20396886498224 52.14894698914418 121.47179719636097 45.309980104022316 C121.44846293259343 45.309980104022316 121.43290675674825 45.294240249281074 121.40957249298049 45.286370321910226 C121.23067647076141 45.64838698096173 121.05955853646492 46.01827356738363 120.88066251424584 46.38029022643491 C117.95610145535966 52.51883357556608 115.02376230855089 58.649506997326625 112.09920124966447 64.7880503464578 C111.95919566705834 65.07923765917303 111.81141199652939 65.36255504451765 111.68696258976843 65.6616122846035 C111.62473788638772 65.81901083201706 111.53140083131711 65.85836046887061 111.37583907286557 65.85836046887061 C109.5168760593715 65.85836046887061 107.66569113379978 65.85049054149977 105.8067281203057 65.85836046887061 C105.57338548262874 65.85836046887061 105.55782930678356 65.75605141305164 105.54227313093838 65.575043083526 C105.4178237241772 64.11123659257942 105.29337431741624 62.64743010163261 105.16114682273246 61.18362361068603 C104.99002888843597 59.21614176801563 104.82668904206184 57.248659925345464 104.65557110776535 55.2811780826753 C104.48445317346886 53.3136962400049 104.31333523917237 51.346214397334734 104.14221730487589 49.37873255466434 C104.00221172226952 47.73391773419212 103.8544280517408 46.09697284109052 103.71442246913443 44.45215802061807 C103.71442246913443 44.45215802061807 103.67553202952172 44.45215802061807 103.67553202952172 44.45215802061807 Z" vector-effect="non-scaling-stroke"/></g><g><defs><path id="path-1746429648225915" d="M6.95963,31.51709c-2.05342,0 -4.11461,0 -6.16802,0c-0.87115,0 -0.87115,0 -0.70781,-0.86569c0.54447,-2.93548 1.08115,-5.87097 1.62562,-8.80645c0.6378,-3.43129 1.26783,-6.86258 1.90563,-10.29387c0.66114,-3.59656 1.33005,-7.20098 1.99119,-10.79754c0.13223,-0.71616 0.12445,-0.73977 0.84003,-0.74764c2.92456,-0.00787 5.84912,-0.00787 8.77368,0c1.01893,0 2.03786,0.01574 3.04901,0.03148c1.61006,0.03148 3.17346,0.25184 4.63574,0.99948c2.41121,1.23558 3.5857,3.2188 3.52347,5.94967c-0.03111,1.27493 -0.14778,2.53412 -0.64558,3.72248c-0.57558,1.36937 -1.57895,2.37672 -2.77678,3.20306c-0.27223,0.18888 -0.54447,0.36989 -0.8167,0.55089c-0.29557,0.19675 -0.28779,0.19675 -0.01556,0.3935c0.47446,0.34628 0.96448,0.68468 1.39228,1.09392c1.17449,1.1254 1.72674,2.54199 1.85118,4.13958c0.14001,1.72351 0.02333,3.43129 -0.68447,5.03675c-1.33783,3.06927 -3.66348,4.95805 -6.89916,5.68209c-2.18564,0.48794 -4.41018,0.68468 -6.65027,0.69255c-1.40783,0 -2.81567,0 -4.2235,0c0,0 0,0.00787 0,0.01574zM16.09888,20.50706c0,-0.40924 -0.03889,-1.10179 -0.19445,-1.78647c-0.21001,-0.94439 -0.65336,-1.69203 -1.67229,-1.90452c-0.68447,-0.14166 -1.36894,-0.07083 -2.05342,0.00787c-0.13223,0.01574 -0.14778,0.08657 -0.17112,0.19675c-0.06222,0.36989 -0.13223,0.7319 -0.19445,1.09392c-0.60669,3.32111 -1.2056,6.64222 -1.81229,9.96333c-0.02333,0.13379 -0.01556,0.19675 0.14001,0.20462c0.45113,0.03935 0.89448,0.05509 1.34561,0.03148c1.2056,-0.0787 2.16231,-0.60598 2.86234,-1.62121c1.22116,-1.7786 1.75785,-3.76183 1.75007,-6.19363zM18.16007,7.11245c-0.01556,-0.60598 -0.05445,-1.32215 -0.26445,-2.00683c-0.21779,-0.70042 -0.59891,-1.25132 -1.3145,-1.48742c-0.55224,-0.18101 -1.12004,-0.14953 -1.68785,-0.09444c-0.19445,0.02361 -0.28001,0.0787 -0.3189,0.29119c-0.29557,1.65268 -0.61447,3.2975 -0.92559,4.95018c-0.25668,1.3615 -0.51335,2.72299 -0.77003,4.09236c-0.03111,0.17314 -0.02333,0.25971 0.20223,0.27545c0.49002,0.03148 0.97226,0.03935 1.46228,0.04722c1.01115,0.01574 1.74229,-0.44072 2.27898,-1.29854c0.89448,-1.42446 1.34561,-2.97483 1.34561,-4.76131z" vector-effect="non-scaling-stroke"/></defs><path style="stroke-width: 0; stroke-linecap: butt; stroke-linejoin: miter; fill: rgb(2, 22, 61);" d="M6.95963,31.51709c-2.05342,0 -4.11461,0 -6.16802,0c-0.87115,0 -0.87115,0 -0.70781,-0.86569c0.54447,-2.93548 1.08115,-5.87097 1.62562,-8.80645c0.6378,-3.43129 1.26783,-6.86258 1.90563,-10.29387c0.66114,-3.59656 1.33005,-7.20098 1.99119,-10.79754c0.13223,-0.71616 0.12445,-0.73977 0.84003,-0.74764c2.92456,-0.00787 5.84912,-0.00787 8.77368,0c1.01893,0 2.03786,0.01574 3.04901,0.03148c1.61006,0.03148 3.17346,0.25184 4.63574,0.99948c2.41121,1.23558 3.5857,3.2188 3.52347,5.94967c-0.03111,1.27493 -0.14778,2.53412 -0.64558,3.72248c-0.57558,1.36937 -1.57895,2.37672 -2.77678,3.20306c-0.27223,0.18888 -0.54447,0.36989 -0.8167,0.55089c-0.29557,0.19675 -0.28779,0.19675 -0.01556,0.3935c0.47446,0.34628 0.96448,0.68468 1.39228,1.09392c1.17449,1.1254 1.72674,2.54199 1.85118,4.13958c0.14001,1.72351 0.02333,3.43129 -0.68447,5.03675c-1.33783,3.06927 -3.66348,4.95805 -6.89916,5.68209c-2.18564,0.48794 -4.41018,0.68468 -6.65027,0.69255c-1.40783,0 -2.81567,0 -4.2235,0c0,0 0,0.00787 0,0.01574zM16.09888,20.50706c0,-0.40924 -0.03889,-1.10179 -0.19445,-1.78647c-0.21001,-0.94439 -0.65336,-1.69203 -1.67229,-1.90452c-0.68447,-0.14166 -1.36894,-0.07083 -2.05342,0.00787c-0.13223,0.01574 -0.14778,0.08657 -0.17112,0.19675c-0.06222,0.36989 -0.13223,0.7319 -0.19445,1.09392c-0.60669,3.32111 -1.2056,6.64222 -1.81229,9.96333c-0.02333,0.13379 -0.01556,0.19675 0.14001,0.20462c0.45113,0.03935 0.89448,0.05509 1.34561,0.03148c1.2056,-0.0787 2.16231,-0.60598 2.86234,-1.62121c1.22116,-1.7786 1.75785,-3.76183 1.75007,-6.19363zM18.16007,7.11245c-0.01556,-0.60598 -0.05445,-1.32215 -0.26445,-2.00683c-0.21779,-0.70042 -0.59891,-1.25132 -1.3145,-1.48742c-0.55224,-0.18101 -1.12004,-0.14953 -1.68785,-0.09444c-0.19445,0.02361 -0.28001,0.0787 -0.3189,0.29119c-0.29557,1.65268 -0.61447,3.2975 -0.92559,4.95018c-0.25668,1.3615 -0.51335,2.72299 -0.77003,4.09236c-0.03111,0.17314 -0.02333,0.25971 0.20223,0.27545c0.49002,0.03148 0.97226,0.03935 1.46228,0.04722c1.01115,0.01574 1.74229,-0.44072 2.27898,-1.29854c0.89448,-1.42446 1.34561,-2.97483 1.34561,-4.76131z" transform="translate(132.0050910094692, 34.364878613247356) rotate(0)" vector-effect="non-scaling-stroke"/></g></svg>